<?xml version="1.0" standalone="no"?>
<!DOCTYPE svg PUBLIC "-//W3C//DTD SVG 1.1//EN" "http://www.w3.org/Graphics/SVG/1.1/DTD/svg11.dtd" >
<svg xmlns="http://www.w3.org/2000/svg" xmlns:xlink="http://www.w3.org/1999/xlink" version="1.1">
<metadata></metadata>
<defs>
<font id="fs_emeric_webbook_italic" horiz-adv-x="1214" >
<font-face units-per-em="2048" ascent="1497" descent="-551" />
<missing-glyph horiz-adv-x="442" />
<glyph horiz-adv-x="0" />
<glyph horiz-adv-x="0" />
<glyph unicode="&#xd;" horiz-adv-x="442" />
<glyph unicode=" "  horiz-adv-x="442" />
<glyph unicode="&#x09;" horiz-adv-x="442" />
<glyph unicode="&#xa0;" horiz-adv-x="442" />
<glyph unicode="!" horiz-adv-x="466" d="M90 0l21 180h145q20 0 25.5 -7t3.5 -23l-17 -150h-178zM176 352l4 150q4 94 9.5 186t15.5 182l57 488h152l-58 -475q-10 -96 -35.5 -237.5t-60.5 -293.5h-84z" />
<glyph unicode="&#x22;" horiz-adv-x="763" d="M215 831l2 228q0 59 4 110.5t10 102.5l11 86h161l-10 -92q-4 -43 -12 -91.5t-25 -115.5l-49 -228h-92zM528 831l2 228q0 59 4.5 110.5t10.5 102.5l10 86h162l-10 -92q-4 -43 -12.5 -91.5t-24.5 -115.5l-49 -228h-93z" />
<glyph unicode="#" d="M117 391l14 127h195l90 320h-246l14 127h269l112 393h142l-113 -393h248l112 393h142l-113 -393h170l-14 -127h-193l-92 -320h246l-15 -127h-268l-112 -391h-142l113 391h-248l-113 -391h-139l113 391h-172zM465 518h248l92 320h-248z" />
<glyph unicode="$" d="M100 96l43 94l113 -24q76 -16 142.5 -28.5t129.5 -16.5l66 561l-43 20q-74 35 -133.5 70t-101.5 77t-63.5 91t-21.5 111q0 145 118 234t329 93l41 203h94l-25 -207q78 -8 156 -23.5t137 -37.5l-22 -96l-117 10q-37 4 -82 6t-88 4l-55 -451l4 -2q86 -39 148.5 -78.5 t103.5 -83.5t60.5 -96.5t19.5 -117.5q0 -182 -114 -297t-318 -129l-39 -207h-95l25 207q-102 8 -214 38.5t-198 75.5zM383 1053q0 -35 12.5 -62.5t40 -52.5t71.5 -50.5t105 -53.5l50 405q-123 -4 -201 -46t-78 -140zM637 125q119 14 190.5 83.5t71.5 188.5q0 41 -10 73 t-35 59.5t-62.5 52t-93.5 51.5z" />
<glyph unicode="%" horiz-adv-x="1775" d="M172 999q0 76 27.5 144.5t76 121t114 83t140.5 30.5q68 0 124.5 -24.5t97.5 -67.5t64.5 -103.5t23.5 -131.5q0 -76 -28 -143.5t-76 -120t-113.5 -83t-141.5 -30.5q-68 0 -124 24.5t-97 67.5t-64.5 102t-23.5 131zM303 1004q0 -90 50 -145.5t130 -55.5q57 0 99.5 21.5 t70 56t42 79t14.5 89.5q0 88 -50.5 144t-130.5 56q-57 0 -99 -21.5t-69.5 -56t-42 -78.5t-14.5 -89zM432 0l807 1358h150l-807 -1358h-150zM981 305q0 76 27.5 144.5t76 121t114 83t140.5 30.5q68 0 124.5 -24.5t97.5 -67.5t64.5 -103.5t23.5 -132.5q0 -76 -28 -143.5 t-76 -119.5t-113.5 -82.5t-141.5 -30.5q-68 0 -124 24.5t-97 67.5t-64.5 102t-23.5 131zM1112 309q0 -90 50 -145t130 -55q57 0 99.5 21.5t70 56t42 78.5t14.5 89q0 88 -50.5 144.5t-130.5 56.5q-57 0 -99 -21.5t-69.5 -56.5t-42 -79t-14.5 -89z" />
<glyph unicode="&#x26;" horiz-adv-x="1449" d="M72 391q0 76 27.5 138.5t73.5 115.5t108.5 98t134.5 82q-29 45 -48.5 96.5t-19.5 104.5q0 76 30 140.5t82 111.5t119.5 73.5t145.5 26.5q66 0 124 -21.5t101 -59t68.5 -90t25.5 -115.5q0 -68 -23.5 -124.5t-65.5 -106.5t-100 -99t-130 -103l256 -315q47 59 97 135t98 162 l98 178l96 -37q-55 -133 -134 -277.5t-173 -260.5l100 -119l178 -25l-6 -69q-35 -16 -76.5 -26.5t-74.5 -10.5q-55 0 -91 20.5t-79 71.5l-51 59q-86 -78 -196 -121.5t-222 -43.5q-98 0 -184.5 30.5t-151 86t-101 131t-36.5 163.5zM225 403q0 -57 22.5 -108t65.5 -90 t105.5 -62.5t140.5 -23.5q88 0 171 32.5t151 92.5l-410 501l-25 -18q-104 -78 -162.5 -148.5t-58.5 -175.5zM487 1042q0 -59 29 -113.5t88 -125.5l58 -74l104 105q41 41 69.5 73.5t46 61t25.5 55.5t8 57q0 76 -55 123t-141 47q-98 0 -165 -57.5t-67 -151.5z" />
<glyph unicode="'" horiz-adv-x="450" d="M215 831l2 228q0 59 4 110.5t10 102.5l11 86h161l-10 -92q-4 -43 -12 -91.5t-25 -115.5l-49 -228h-92z" />
<glyph unicode="(" horiz-adv-x="620" d="M129 293q0 162 39 314.5t109.5 290.5t171 261t223.5 227l65 -65q-102 -106 -184 -225t-141.5 -247t-91 -265.5t-31.5 -278.5q0 -188 57 -379.5t184 -357.5l-79 -66q-158 162 -240 363t-82 428z" />
<glyph unicode=")" horiz-adv-x="620" d="M-117 -432q100 106 183.5 225t142.5 247t91 265t32 279q0 188 -57.5 379.5t-184.5 357.5l80 65q158 -162 240 -362.5t82 -427.5q0 -162 -39 -314.5t-110 -290.5t-171 -261t-223 -228z" />
<glyph unicode="*" horiz-adv-x="843" d="M141 1057l49 100q8 16 15.5 19.5t27.5 -7.5l209 -122l9 311h114q27 0 21 -29l-62 -282l269 131l26 -97q4 -18 -1 -25t-23 -14l-248 -69l182 -246l-100 -61q-27 -16 -39 10l-121 246l-197 -271l-86 62q-14 10 -13 19t15 24l218 217z" />
<glyph unicode="+" horiz-adv-x="1046" d="M147 440l15 125h303l37 318h129l-37 -318h303l-14 -125h-303l-39 -319h-129l39 319h-304z" />
<glyph unicode="," horiz-adv-x="401" d="M-45 -260l141 227q8 10 7 15.5t-7 11.5l-26 26q-10 10 -11.5 17.5t0.5 28.5l13 120h147q18 0 24.5 -6t4.5 -24l-12 -113q-4 -41 -14.5 -73.5t-36 -69.5t-69.5 -83t-114 -116z" />
<glyph unicode="-" horiz-adv-x="804" d="M104 436l17 127h579l-16 -127h-580z" />
<glyph unicode="." horiz-adv-x="401" d="M53 0l21 186h145q20 0 25.5 -7t3.5 -23l-17 -156h-178z" />
<glyph unicode="/" horiz-adv-x="870" d="M-12 0l819 1358h149l-819 -1358h-149z" />
<glyph unicode="0" d="M119 541q0 158 43 308t121.5 268t187.5 189.5t240 71.5q94 0 175 -41t140 -114.5t93 -178t34 -229.5q0 -158 -43 -308.5t-122 -267t-187.5 -188t-237.5 -71.5q-96 0 -177 39.5t-140.5 113.5t-93 177.5t-33.5 230.5zM279 547q0 -92 19 -169t56 -133.5t90.5 -88 t120.5 -31.5q104 0 184 62.5t134.5 160.5t82 220t27.5 241q0 92 -19.5 169t-56 134t-90 89t-120.5 32q-104 0 -184.5 -62.5t-134.5 -162t-81.5 -221t-27.5 -240.5z" />
<glyph unicode="1" d="M199 0l16 125h348l125 1063q-35 -18 -84 -39t-102 -41l-166 -59l-41 98l414 190q23 10 40 15.5t44 5.5h67l-145 -1233h307l-14 -125h-809z" />
<glyph unicode="2" d="M139 0l11 84q4 20 8 30.5t20 26.5l436 426q66 63 121.5 122t96 115t64.5 111.5t24 112.5q0 100 -60.5 154.5t-171.5 54.5q-59 0 -123.5 -12.5t-146.5 -36.5l-129 -39l-41 94q121 63 236.5 99t226.5 36q82 0 149.5 -24.5t116.5 -69.5t75.5 -108.5t26.5 -139.5 q0 -72 -24.5 -139.5t-73.5 -136t-119.5 -142t-163.5 -155.5l-368 -332h676l-19 -131h-848z" />
<glyph unicode="3" d="M68 152l55 88l137 -54q88 -35 158.5 -50t138.5 -15q74 0 134.5 22.5t103.5 64.5t67.5 101.5t24.5 130.5q0 96 -53 144q-33 29 -79 39t-116 10h-119q-16 0 -20 5t-2 19l12 97h201q43 0 66.5 10t45.5 37q39 41 61.5 103.5t22.5 127.5q0 104 -64.5 154.5t-168.5 50.5 q-53 0 -122 -11.5t-151 -33.5l-120 -33l-39 94q121 59 234.5 92t219.5 33q76 0 142.5 -21.5t117 -61.5t79 -99t28.5 -133q0 -117 -47 -200t-125 -156q78 -39 115.5 -112t37.5 -159q0 -100 -38.5 -184t-106.5 -144.5t-157 -94t-189 -33.5q-135 0 -261 50t-224 122z" />
<glyph unicode="4" d="M88 352l10 84q4 25 9.5 37t21.5 29l725 827q16 18 25.5 23.5t31.5 5.5h127l-100 -879h197l-15 -127h-198l-41 -352h-152l41 352h-682zM270 479h514l80 686q-27 -37 -69.5 -89t-83.5 -99l-291 -334q-41 -47 -81 -92t-69 -72z" />
<glyph unicode="5" d="M109 133l53 88l117 -41q166 -59 282 -59q74 0 136.5 25.5t107.5 69.5t70.5 105.5t25.5 133.5q0 123 -76.5 182t-195.5 59q-59 0 -129 -15t-142 -40q-10 -4 -18 -3t-23 9l-47 25q-12 6 -15 14t-1 25l78 647h741l-14 -131h-604l-29 -236q-8 -63 -16.5 -126.5t-16.5 -102.5 q70 31 142.5 48t142.5 17q80 0 149.5 -25.5t120.5 -72.5t81 -114.5t30 -153.5q0 -100 -37 -188.5t-103.5 -153t-157.5 -102t-200 -37.5q-117 0 -235.5 44t-216.5 109z" />
<glyph unicode="6" d="M156 532q0 166 49 319t138 269.5t213 187t273 70.5q150 0 289 -78l-45 -92q-72 18 -135.5 27.5t-114.5 9.5q-90 0 -173 -35.5t-148.5 -103.5t-111.5 -165t-60 -220l59 31q88 45 172 69.5t162 24.5q80 0 148.5 -25.5t119.5 -73t81 -115t30 -151.5q0 -94 -36 -184 t-100.5 -160.5t-153.5 -113.5t-196 -43q-104 0 -190 43t-145.5 116.5t-92 175t-32.5 217.5zM315 526q0 -90 19.5 -164.5t58.5 -129t96.5 -85t133.5 -30.5q72 0 131 29.5t102 79.5t67.5 116t24.5 135q0 115 -71.5 174.5t-192.5 59.5q-76 0 -165 -27t-167 -70 q-25 -14 -31 -30.5t-6 -57.5z" />
<glyph unicode="7" d="M238 1223l16 135h936l-8 -76q-2 -12 -4 -23.5t-8.5 -24.5t-16.5 -31.5t-29 -45.5l-413 -625q-55 -84 -92 -146t-63 -120.5t-43 -121t-36 -144.5h-155q14 90 33.5 160.5t49 138.5t73.5 140.5t110 166.5l252 365q53 76 102 143.5t82 108.5h-786z" />
<glyph unicode="8" d="M111 385q0 66 23.5 123t62.5 106.5t90 88t104 67.5q-53 43 -93 104.5t-40 139.5q0 76 34 142.5t92 115.5t139 77.5t177 28.5q88 0 163 -25.5t130.5 -71.5t87 -108.5t31.5 -136.5q0 -55 -18.5 -105t-49 -95t-71.5 -83t-86 -71q100 -55 162.5 -121.5t62.5 -165.5 q0 -92 -42 -167.5t-112.5 -131t-163 -86t-194.5 -30.5q-104 0 -194.5 31.5t-156 87t-102 129t-36.5 157.5zM264 397q0 -57 23.5 -108t67.5 -90t107.5 -61.5t143.5 -22.5q74 0 137.5 20.5t110.5 57t73.5 86t26.5 104.5q0 66 -46 116t-171 105l-215 96q-14 6 -25.5 6.5 t-27.5 -10.5q-92 -49 -148.5 -125t-56.5 -174zM406 1028q0 -80 62 -129t163 -96l121 -55q16 -6 25 -5.5t26 11.5q68 51 115 123.5t47 154.5q0 98 -76 154.5t-193 56.5q-61 0 -114.5 -15.5t-92 -43t-61 -67.5t-22.5 -89z" />
<glyph unicode="9" d="M154 897q0 111 41 200t108.5 151.5t153.5 96t176 33.5q109 0 195.5 -43t147 -118.5t92.5 -176t32 -217.5q0 -166 -42 -318.5t-122 -269t-195.5 -186t-263.5 -69.5q-78 0 -158.5 21.5t-144.5 55.5l39 95q68 -16 137.5 -28.5t120.5 -12.5q84 0 157.5 29.5t132 93t100.5 163 t63 236.5l-74 -37q-78 -39 -159 -61.5t-159 -22.5q-80 0 -149.5 28.5t-120.5 80t-79.5 122t-28.5 154.5zM307 907q0 -123 71 -191.5t195 -68.5q78 0 165 25.5t167 66.5q25 12 31 25.5t6 64.5q0 82 -18.5 157t-57.5 131.5t-99 90t-142 33.5q-68 0 -125.5 -23.5t-100.5 -67.5 t-67.5 -105.5t-24.5 -137.5z" />
<glyph unicode=":" horiz-adv-x="401" d="M53 0l21 186h145q20 0 25.5 -7t3.5 -23l-17 -156h-178zM131 670l21 186h145q20 0 25.5 -7t3.5 -24l-17 -155h-178z" />
<glyph unicode=";" horiz-adv-x="401" d="M-45 -260l141 227q8 10 7 15.5t-7 11.5l-26 26q-10 10 -11.5 17.5t0.5 28.5l13 120h147q18 0 24.5 -6t4.5 -24l-12 -113q-4 -41 -14.5 -73.5t-36 -69.5t-69.5 -83t-114 -116zM131 670l21 186h145q20 0 25.5 -7t3.5 -24l-17 -155h-178z" />
<glyph unicode="&#x3c;" horiz-adv-x="1046" d="M123 449l12 108l778 344l-18 -143l-598 -258l534 -250l-18 -144z" />
<glyph unicode="=" horiz-adv-x="1044" d="M125 252l14 125h735l-14 -125h-735zM170 629l14 125h736l-15 -125h-735z" />
<glyph unicode="&#x3e;" horiz-adv-x="1046" d="M129 106l18 144l598 258l-534 250l18 143l691 -342l-13 -108z" />
<glyph unicode="?" horiz-adv-x="954" d="M117 1233q102 66 217 105.5t221 39.5q80 0 149.5 -23.5t122 -68.5t83 -107.5t30.5 -140.5t-25.5 -139t-70.5 -110.5t-109.5 -90.5t-140.5 -77l-115 -56l-55 -215h-90q-4 49 -6 94t-2 74q0 55 14 81t61 54l156 88q109 61 167 125t58 164q0 96 -65.5 150.5t-177.5 54.5 q-59 0 -126 -14.5t-141 -36.5l-116 -37zM250 0l20 180h146q20 0 25 -7t3 -23l-16 -150h-178z" />
<glyph unicode="@" horiz-adv-x="1499" d="M68 416q0 147 55 287.5t155.5 250t242 175t313.5 65.5q129 0 238.5 -43t190 -119t127 -178t46.5 -221q0 -92 -27 -178t-76 -151.5t-116.5 -105.5t-149.5 -40q-59 0 -102 22.5t-66 57.5l-47 -31q-45 -27 -87 -41t-81 -14q-53 0 -97 22.5t-78 62t-52.5 94t-18.5 118.5 q0 86 28 157.5t73 123.5t102 82t119 30q68 0 151 -60l35 -22l31 71l80 -8l-53 -426q-4 -29 -5.5 -42t-1.5 -23q0 -29 20.5 -48.5t63.5 -19.5q53 0 95.5 29t72 78t45 114.5t15.5 139.5q0 106 -38 188t-103.5 139.5t-153.5 87t-191 29.5q-135 0 -247.5 -50t-193.5 -137 t-126 -205t-45 -255q0 -117 37 -210t104.5 -157.5t163.5 -98.5t213 -34q111 0 234.5 41t283.5 107l39 -66q-55 -43 -123.5 -80t-145.5 -65.5t-160 -45t-165 -16.5q-133 0 -247.5 46t-198.5 129t-131 197t-47 247zM565 451q0 -86 39 -132.5t107 -46.5q29 0 67.5 11.5 t81.5 35.5q12 8 14.5 13.5t4.5 17.5l34 297q2 14 0 20.5t-12 14.5q-18 14 -56 27.5t-77 13.5q-43 0 -80 -19.5t-64.5 -55.5t-43 -86t-15.5 -111z" />
<glyph unicode="A" horiz-adv-x="1337" d="M-12 0l690 1358h127q16 0 21 -4t10 -19l393 -1335h-139q-16 0 -21.5 4t-9.5 14l-90 318h-647l-160 -318q-6 -12 -13.5 -15t-23.5 -3h-137zM385 463h547l-88 307q-35 119 -63.5 228.5t-47.5 187.5q-14 -35 -35.5 -81t-47 -99.5t-53.5 -109.5t-52 -108z" />
<glyph unicode="B" horiz-adv-x="1220" d="M104 0l160 1358h441q111 0 192.5 -21.5t130.5 -68.5q76 -72 76 -199q0 -92 -48 -184t-130 -166v-4q92 -37 145 -108.5t53 -174.5q0 -92 -33.5 -169t-95.5 -134q-66 -61 -163 -95t-226 -34h-502zM281 133h321q100 0 169 22.5t112 63.5q41 41 60.5 97.5t19.5 117.5 q0 104 -58 150q-33 25 -82 35t-127 10h-356zM354 756h398q35 0 56 8t42 31q23 25 41 56.5t31.5 67t20.5 71.5t7 69q0 47 -13 76.5t-36 48.5q-35 27 -87 34t-118 7h-286z" />
<glyph unicode="C" horiz-adv-x="1331" d="M113 590q0 160 53 302t146.5 250.5t219 172t271.5 63.5q92 0 169 -29.5t137 -79.5t104 -119t71 -144l-110 -56l-103 119q-72 84 -139.5 120t-153.5 36q-100 0 -191 -45t-160 -126t-110 -196t-41 -254q0 -106 27 -193t80 -149.5t130 -96.5t179 -34q76 0 163 20.5t175 55.5 l156 63l51 -86q-119 -90 -268.5 -147t-290.5 -57q-129 0 -233.5 46t-178 128t-113.5 193.5t-40 242.5z" />
<glyph unicode="D" horiz-adv-x="1382" d="M104 0l160 1358h406q184 0 309 -40t207 -118q72 -70 107.5 -169t35.5 -218q0 -188 -59.5 -341t-169.5 -261q-104 -102 -249.5 -156.5t-334.5 -54.5h-412zM281 135h206q174 0 298 44t208 130q86 90 131 217t45 285q0 98 -23.5 173t-74.5 124q-63 61 -164.5 88t-261.5 27 h-237z" />
<glyph unicode="E" horiz-adv-x="1103" d="M104 0l160 1358h834l-17 -133h-673l-54 -453h617l-17 -131h-614l-59 -508h696l-16 -133h-857z" />
<glyph unicode="F" horiz-adv-x="1044" d="M104 0l160 1358h826l-17 -133h-665l-54 -453h602l-16 -131h-600l-76 -641h-160z" />
<glyph unicode="G" horiz-adv-x="1441" d="M113 594q0 168 55 311.5t151.5 249t223.5 164.5t272 59q180 0 312.5 -97t199.5 -261l-108 -62l-107 119q-72 82 -143.5 118t-169.5 36q-115 0 -210 -48t-165 -132t-109 -200t-39 -251q0 -106 29 -192t83 -147.5t133 -95.5t179 -34q76 0 171.5 21.5t177.5 56.5 q27 12 42 20.5t24 15.5t12 15t6 19l32 272h-262l17 123h376q23 0 28 -7.5t3 -25.5l-76 -641h-98l-27 115l-96 -45q-88 -41 -180 -65.5t-184 -24.5q-121 0 -222.5 46t-175 128t-114.5 194.5t-41 245.5z" />
<glyph unicode="H" horiz-adv-x="1382" d="M104 0l160 1358h160l-68 -582h750l68 582h159l-159 -1358h-160l76 641h-750l-76 -641h-160z" />
<glyph unicode="I" horiz-adv-x="481" d="M109 0l159 1358h160l-160 -1358h-159z" />
<glyph unicode="J" horiz-adv-x="942" d="M-4 74l37 92l88 -19q61 -12 126.5 -20t119.5 -8q125 0 188 63q35 35 54.5 95.5t29.5 138.5l111 942h159l-112 -959q-12 -104 -41 -180t-82 -129t-128 -81.5t-173 -28.5q-86 0 -185.5 24.5t-191.5 69.5z" />
<glyph unicode="K" horiz-adv-x="1247" d="M104 0l160 1358h160l-82 -688l840 696l88 -98l-557 -467l456 -801h-145q-18 0 -26.5 4t-16.5 16l-385 687q-29 -25 -65.5 -51.5t-73.5 -53.5t-72 -50.5t-59 -37.5l-62 -514h-160z" />
<glyph unicode="L" horiz-adv-x="1036" d="M104 0l160 1358h160l-145 -1225h661l-16 -133h-820z" />
<glyph unicode="M" horiz-adv-x="1644" d="M104 0l160 1358h115q16 0 22.5 -3t16.5 -20l424 -704h2l588 704q12 14 20 18.5t29 4.5h114l-159 -1358h-156l129 1104q-31 -41 -72 -92t-75 -92l-375 -441h-86q-20 0 -27.5 4t-17.5 19l-254 407q-31 49 -62.5 104.5t-50.5 90.5l-131 -1104h-154z" />
<glyph unicode="N" horiz-adv-x="1427" d="M104 0l160 1358h88q16 0 23.5 -3t17.5 -18l537 -811q96 -145 164 -260l131 1092h153l-159 -1358h-89q-16 0 -23 3t-17 17l-535 809q-47 72 -90 139.5t-78 125.5l-129 -1094h-154z" />
<glyph unicode="O" horiz-adv-x="1445" d="M115 604q0 158 54 298t148.5 246.5t220.5 168t269 61.5q131 0 239.5 -49t186.5 -133t121 -198.5t43 -243.5q0 -158 -54.5 -298.5t-148.5 -247t-220 -167.5t-269 -61q-131 0 -240 49t-186.5 133t-120.5 198.5t-43 243.5zM276 616q0 -98 29 -186t84 -154.5t137.5 -104.5 t188.5 -38q113 0 208 47t164.5 129t108.5 192.5t39 239.5q0 98 -28.5 186.5t-84 155t-137.5 104.5t-188 38q-113 0 -208 -47.5t-165 -129t-109 -192.5t-39 -240z" />
<glyph unicode="P" horiz-adv-x="1200" d="M104 0l160 1358h455q246 0 356 -111q96 -92 96 -260q0 -106 -42 -217t-128 -197q-55 -53 -118.5 -73.5t-171.5 -20.5h-392l-55 -479h-160zM336 610h420q37 0 62.5 5.5t45 15.5t34.5 26.5t32 38.5q39 57 60.5 132t21.5 153q0 113 -56 172q-37 41 -93 56.5t-142 15.5h-313z " />
<glyph unicode="Q" horiz-adv-x="1445" d="M115 604q0 158 54 298t147.5 246.5t219.5 168t271 61.5q131 0 239.5 -49t186.5 -134t121 -198.5t43 -244.5q0 -109 -27 -210.5t-75 -189.5t-115.5 -159.5t-149.5 -120.5l234 -348l-144 -78l-221 366q-43 -16 -94 -24t-100 -8q-131 0 -240 49t-186.5 133t-120.5 198.5 t-43 243.5zM276 616q0 -98 29 -186t84 -154.5t137.5 -104.5t188.5 -38q113 0 208 47t164.5 129t108.5 192.5t39 239.5q0 98 -28.5 186.5t-84 155t-137.5 104.5t-188 38q-113 0 -208 -47.5t-165 -129t-109 -192.5t-39 -240z" />
<glyph unicode="R" horiz-adv-x="1253" d="M104 0l160 1358h469q236 0 346 -109q94 -90 95 -256q0 -135 -70 -260t-205 -201l238 -532h-148q-27 0 -35 20l-200 467q-6 16 -12.5 19.5t-28.5 3.5h-387l-62 -510h-160zM340 641h422q33 0 55.5 3t41 12.5t35.5 25.5t36 43q39 53 61.5 125t22.5 143q0 113 -51 166 q-35 35 -90.5 50.5t-145.5 15.5h-319z" />
<glyph unicode="S" horiz-adv-x="1103" d="M45 96l43 94l113 -24q92 -20 170 -32.5t149 -12.5q145 0 234.5 71.5t89.5 204.5q0 45 -12.5 79t-42 63.5t-76.5 57.5t-115 58l-102 47q-74 35 -133.5 70t-101.5 77t-63.5 91t-21.5 111q0 74 32 134t91 103t146 66.5t196 23.5q98 0 202.5 -18.5t182.5 -46.5l-22 -96 l-117 10q-53 4 -122 8t-122 4q-68 0 -126 -9t-100 -30.5t-65.5 -57.5t-23.5 -89q0 -35 13 -63.5t42 -54.5t74 -50.5t110 -55.5l99 -45q86 -39 148.5 -78.5t103 -83.5t60 -96.5t19.5 -117.5q0 -96 -33.5 -175t-96 -135.5t-153.5 -87t-204 -30.5q-53 0 -114.5 9t-123 24.5 t-120 37t-107.5 45.5z" />
<glyph unicode="T" horiz-adv-x="1136" d="M141 1225l17 133h1044l-16 -133h-443l-143 -1225h-160l144 1225h-443z" />
<glyph unicode="U" horiz-adv-x="1347" d="M152 440q0 35 3 85t11 116l86 717h160l-86 -723q-8 -66 -11.5 -109t-3.5 -77q0 -152 88 -235t250 -83q104 0 178 32t124 90t79 142t41 189l92 774h154l-96 -799q-35 -276 -178.5 -427.5t-403.5 -151.5q-119 0 -210 34.5t-152.5 97t-93 146.5t-31.5 182z" />
<glyph unicode="V" horiz-adv-x="1249" d="M135 1358h139q23 0 29 -23l201 -774q33 -125 57.5 -223t40.5 -176h2q25 59 70 157.5t108 231.5l375 782q10 25 37 25h141l-663 -1358h-148q-27 0 -30 20z" />
<glyph unicode="W" horiz-adv-x="1947" d="M158 1358h135q25 0 26 -21l142 -762q23 -113 41 -222t28 -177q8 31 25.5 79t38 103.5t43 113.5t43.5 108l307 778h131q16 0 20.5 -3t8.5 -20l141 -760q8 -49 18.5 -104t19.5 -109.5t18.5 -104.5t15.5 -89q33 86 81 203.5t103 253.5l293 712q6 14 12 17.5t21 3.5h137 l-571 -1358h-170q-16 0 -20.5 4t-8.5 16l-113 603q-12 72 -25.5 145.5t-23.5 141t-19 127t-14 100.5q-12 -41 -32.5 -98.5t-45 -123t-51 -135t-51.5 -133.5l-254 -647h-164q-25 0 -28 20z" />
<glyph unicode="X" horiz-adv-x="1234" d="M-20 0l567 717l-391 641h147q16 0 22.5 -4t14.5 -17l311 -512l402 514q10 10 17 14.5t24 4.5h147l-514 -651l440 -707h-143q-29 0 -41 18l-358 582l-455 -582q-8 -10 -16.5 -14t-24.5 -4h-149z" />
<glyph unicode="Y" horiz-adv-x="1175" d="M123 1358h145q16 0 21.5 -3t11.5 -18l160 -368q23 -53 46 -109.5t44.5 -109t39 -96.5t27.5 -74h3q18 35 46.5 81t61.5 98t69 106.5t70 105.5l246 366q10 12 17.5 16.5t23.5 4.5h139l-608 -903l-53 -455h-160l53 453z" />
<glyph unicode="Z" horiz-adv-x="1083" d="M33 0l10 80q4 20 8 29.5t15 23.5l587 764q72 94 139.5 179t120.5 149h-751l16 133h938l-10 -80q-4 -20 -8 -29.5t-15 -23.5l-587 -764q-72 -92 -140.5 -179t-122.5 -149h756l-16 -133h-940z" />
<glyph unicode="[" horiz-adv-x="604" d="M74 -469l217 1827h420l-17 -133h-268l-184 -1561h268l-16 -133h-420z" />
<glyph unicode="\" horiz-adv-x="823" d="M100 1358h146l497 -1358h-145z" />
<glyph unicode="]" horiz-adv-x="604" d="M-117 -469l17 133h268l184 1561h-268l16 133h420l-217 -1827h-420z" />
<glyph unicode="^" horiz-adv-x="1046" d="M195 938l366 440h119l268 -448l-114 -68l-228 377l-319 -377z" />
<glyph unicode="_" horiz-adv-x="882" d="M-76 -254l15 119h847l-12 -119h-850z" />
<glyph unicode="`" horiz-adv-x="778" d="M227 1343l86 111q6 8 12.5 11t18.5 -7l336 -284l-59 -72z" />
<glyph unicode="a" horiz-adv-x="1112" d="M70 422q0 127 41 235.5t109.5 188.5t157.5 125t183 45q66 0 120 -21.5t114 -60.5l51 -33l41 98l104 -10l-100 -858l143 -33l-8 -69q-31 -14 -72 -23.5t-75 -9.5q-51 0 -89 27.5t-49 74.5l-43 -26q-68 -41 -134 -64.5t-132 -23.5q-80 0 -147.5 33.5t-114.5 92t-73.5 138.5 t-26.5 174zM225 424q0 -137 56.5 -220t179.5 -83q63 0 134 23.5t122 56.5q16 10 22 20t9 27l63 516q2 16 -2 24.5t-21 18.5q-107 67 -220 67h-3q-74 0 -135 -31.5t-107.5 -90t-72 -141.5t-25.5 -187z" />
<glyph unicode="b" horiz-adv-x="1087" d="M78 8l170 1444h155l-65 -555l49 31q141 88 268 88q82 0 148.5 -34t114 -92.5t74 -139t26.5 -175.5q0 -127 -38 -234.5t-103.5 -187t-152.5 -124.5t-187 -45q-66 0 -127.5 20.5t-133.5 61.5l-55 30l-39 -96zM260 236q-2 -16 2 -24.5t21 -18.5q53 -33 117.5 -51.5 t123.5 -18.5q154 0 246 119.5t92 330.5q0 143 -56 223.5t-185 80.5q-63 0 -140.5 -26t-128.5 -58q-16 -10 -23 -19.5t-10 -28.5z" />
<glyph unicode="c" horiz-adv-x="1001" d="M70 436q0 129 48 246t134 199q66 61 146.5 98t183.5 37q115 0 214 -72t148 -213l-104 -51l-56 61q-63 70 -115.5 104t-117.5 34q-68 0 -127 -33t-103.5 -91.5t-70 -138t-25.5 -174.5q0 -154 73 -237.5t214 -83.5q59 0 118.5 14.5t139.5 46.5l96 39l47 -78 q-84 -68 -195.5 -113.5t-228.5 -45.5q-102 0 -180 34.5t-131 96t-80.5 144.5t-27.5 177z" />
<glyph unicode="d" horiz-adv-x="1122" d="M70 422q0 127 42 235.5t110.5 188.5t157.5 125t183 45q66 0 122 -21.5t116 -60.5l33 -23l65 541h156l-158 -1321l143 -33l-8 -69q-31 -14 -71.5 -23.5t-75.5 -9.5q-51 0 -89 27.5t-48 74.5l-43 -26q-68 -41 -136.5 -64.5t-134.5 -23.5q-80 0 -147.5 33.5t-115.5 92 t-74.5 138.5t-26.5 174zM225 424q0 -137 57.5 -220t180.5 -83q63 0 136 23.5t124 56.5q16 10 22.5 20t8.5 27l63 516q2 16 -2 24.5t-20 18.5q-107 67 -225 67h-3q-74 0 -136 -31.5t-108.5 -90t-72 -141.5t-25.5 -187z" />
<glyph unicode="e" horiz-adv-x="1060" d="M70 446q0 119 41 223.5t110.5 181.5t162.5 121t196 44q90 0 163.5 -34t126 -93.5t81 -138t28.5 -166.5q0 -74 -17.5 -97.5t-52.5 -23.5h-684v-8q0 -146 70 -239q72 -95 229 -95q47 0 102.5 11t129.5 36l129 43l41 -82q-41 -31 -92.5 -56.5t-106.5 -46t-112.5 -31.5 t-108.5 -11q-96 0 -176 33.5t-138.5 94t-90 145.5t-31.5 189zM242 582h589q0 135 -67.5 215t-194.5 80q-131 0 -215 -83t-112 -212z" />
<glyph unicode="f" horiz-adv-x="681" d="M55 881l11 82l182 32q-12 49 -12 119q0 80 28.5 145.5t77.5 111.5t113.5 71.5t136.5 25.5t144.5 -21.5t140.5 -62.5l-37 -90l-66 17q-100 26 -175 26h-5q-100 0 -154.5 -56t-54.5 -165q0 -31 3 -62.5t9 -54.5h357l-15 -118h-344l-153 -1303h-156l154 1303h-185z" />
<glyph unicode="g" horiz-adv-x="1087" d="M70 432q0 129 42 235.5t111.5 184.5t159.5 121t184 43q66 0 123.5 -20.5t120.5 -61.5l51 -33l41 98l105 -10l-119 -995q-16 -129 -45 -209t-82 -139q-109 -121 -313 -121q-70 0 -156 20.5t-154 51.5l29 88l68 -9q59 -8 114.5 -13t89.5 -5q139 0 209 76q37 41 56.5 104.5 t29.5 155.5l13 108l-31 -18q-72 -43 -144.5 -65.5t-138.5 -22.5q-82 0 -149.5 32.5t-114.5 91t-73.5 138.5t-26.5 174zM225 436q0 -137 59.5 -221t180.5 -84q63 0 137 23.5t131 58.5q18 10 24.5 19.5t8.5 25.5l61 506q2 16 -2 24.5t-20 18.5q-109 67 -232 67 q-74 0 -137 -29.5t-110 -84.5t-74 -137t-27 -187z" />
<glyph unicode="h" horiz-adv-x="1095" d="M78 0l170 1452h155l-63 -534l45 22q66 35 136.5 55.5t137.5 20.5q70 0 130.5 -21.5t105.5 -61.5t69.5 -94.5t24.5 -121.5q0 -27 -4 -63t-8 -76l-68 -578h-155l69 594q4 25 7.5 56.5t3.5 51.5q0 166 -213 166q-111 0 -240 -45q-41 -14 -47 -20t-10 -27l-91 -776h-155z" />
<glyph unicode="i" horiz-adv-x="434" d="M82 0l117 999h155l-116 -999h-156zM219 1198l21 172h131q18 0 25 -5t5 -24l-16 -143h-166z" />
<glyph unicode="j" horiz-adv-x="434" d="M-233 -461l10 84l78 8q59 6 96 18.5t59.5 34t33.5 55.5t17 85l138 1175h155l-135 -1161q-10 -84 -30.5 -141t-57.5 -96q-74 -78 -217 -78q-37 0 -77 4t-70 12zM219 1198l21 172h131q18 0 25 -5t5 -24l-16 -143h-166z" />
<glyph unicode="k" horiz-adv-x="1046" d="M78 0l170 1452h155l-112 -963l653 523l78 -97l-385 -309l332 -606h-144q-18 0 -26 4t-17 16l-264 492q-63 -47 -132 -93t-112 -69l-41 -350h-155z" />
<glyph unicode="l" horiz-adv-x="491" d="M102 139q0 14 2 37t7 45l143 1231h156l-156 -1319l168 -31l-8 -73q-35 -14 -80 -24.5t-82 -10.5q-70 0 -110 37t-40 108z" />
<glyph unicode="m" horiz-adv-x="1726" d="M78 0l117 999h112l19 -90l59 31q66 35 130.5 55.5t129.5 20.5q90 0 161 -35t112 -98l110 57q66 35 135.5 55.5t134.5 20.5q70 0 128.5 -21.5t101.5 -60.5t67.5 -94.5t24.5 -122.5q0 -27 -4 -63t-8 -76l-68 -578h-156l70 594q4 25 7 56.5t3 51.5q0 166 -202 166 q-53 0 -107.5 -11t-120.5 -34l-43 -16q-18 -8 -24 -14.5t-4 -22.5q2 -14 3 -27.5t1 -25.5q0 -27 -4.5 -63t-8.5 -76l-67 -578h-156l70 594q4 25 7 56.5t3 51.5q0 166 -203 166q-53 0 -107.5 -11t-119.5 -34l-29 -10q-16 -6 -21 -13t-7 -24l-91 -776h-155z" />
<glyph unicode="n" horiz-adv-x="1095" d="M78 0l117 999h112l19 -90l59 31q66 35 136.5 55.5t137.5 20.5q70 0 130.5 -21.5t105.5 -61.5t69.5 -94.5t24.5 -121.5q0 -27 -4 -63t-8 -76l-68 -578h-155l69 594q4 25 7.5 56.5t3.5 51.5q0 166 -213 166q-111 0 -240 -45q-41 -14 -47 -20t-10 -27l-91 -776h-155z" />
<glyph unicode="o" horiz-adv-x="1077" d="M70 436q0 119 40 225.5t108.5 184.5t161.5 124t200 46q90 0 167.5 -34t136 -93.5t91.5 -143.5t33 -182q0 -121 -40 -226.5t-110 -183t-162 -123.5t-198 -46q-90 0 -168 33.5t-136.5 93t-91 143.5t-32.5 182zM225 449q0 -68 17.5 -126.5t52.5 -102.5t87 -68.5t122 -24.5 q82 0 146.5 34t109.5 91t68.5 135t23.5 164q0 68 -17.5 126t-52 102t-87 68.5t-122.5 24.5q-82 0 -146.5 -33.5t-109.5 -91t-68.5 -135t-23.5 -163.5z" />
<glyph unicode="p" horiz-adv-x="1083" d="M20 -469l175 1468h112l31 -100l49 31q137 86 266 86q82 0 148.5 -34t114 -92.5t73 -139t25.5 -175.5q0 -127 -37 -234.5t-100.5 -187t-149.5 -124.5t-186 -45q-66 0 -127.5 19.5t-132.5 59.5l-39 23l-66 -555h-156zM260 236q-2 -16 2 -24.5t21 -18.5q53 -33 119.5 -51.5 t125.5 -18.5q154 0 242 119.5t88 330.5q0 143 -55 223.5t-185 80.5q-63 0 -139 -26t-127 -58q-16 -10 -23 -19.5t-10 -28.5z" />
<glyph unicode="q" horiz-adv-x="1077" d="M70 422q0 127 42 235.5t110.5 188.5t157.5 125t183 45q66 0 121 -21.5t115 -60.5l51 -33l41 98l104 -10l-172 -1458h-157l67 559l-31 -18q-68 -41 -135 -64.5t-133 -23.5q-80 0 -147.5 33.5t-115.5 92t-74.5 138.5t-26.5 174zM225 424q0 -137 57.5 -220t180.5 -83 q63 0 135 23.5t123 56.5q16 10 22.5 20t8.5 27l63 516q2 16 -2 24.5t-20 18.5q-107 67 -223 67h-3q-74 0 -136 -31.5t-108.5 -90t-72 -141.5t-25.5 -187z" />
<glyph unicode="r" horiz-adv-x="700" d="M76 0l117 999h114l15 -143l120 70q88 51 134.5 70.5t87.5 19.5q47 0 88 -29l-15 -96q-41 -10 -91 -25.5t-103.5 -34t-105.5 -37t-97 -36.5q-23 -10 -25 -35l-84 -723h-155z" />
<glyph unicode="s" horiz-adv-x="862" d="M12 76l39 86l111 -23q126 -26 209 -26h6q109 0 178.5 44t69.5 128q0 59 -39 95t-137 75l-111 43q-106 41 -171 97t-65 153q0 66 31 115.5t82 83.5t116.5 51.5t137.5 17.5q80 0 167 -17.5t152 -46.5l-28 -92l-84 10q-49 6 -105.5 11.5t-97.5 5.5q-47 0 -90 -7.5t-75 -22.5 t-50 -39.5t-18 -61.5q0 -47 38.5 -77t137.5 -69l110 -43q109 -41 174.5 -103.5t65.5 -160.5q0 -76 -30.5 -135t-83 -100t-123 -62.5t-152.5 -21.5q-92 0 -189.5 26.5t-175.5 65.5z" />
<glyph unicode="t" horiz-adv-x="796" d="M49 881l10 82l189 34l35 291h153l-33 -289h340l-14 -118h-340l-63 -541q-4 -37 -7.5 -65.5t-3.5 -47.5q0 -53 28 -82.5t93 -29.5q29 0 66 6t90 16l98 21l25 -86q-33 -18 -73 -35t-81 -28t-82 -18t-73 -7q-113 0 -178.5 65.5t-65.5 173.5q0 49 12 148l59 510h-184z" />
<glyph unicode="u" horiz-adv-x="1083" d="M98 283q0 27 4 62.5t9 76.5l67 577h156l-70 -593q-4 -25 -7 -57t-3 -52q0 -168 211 -168q53 0 110.5 12.5t122.5 34.5l29 10q16 6 21.5 13.5t7.5 23.5l90 776h155l-116 -999h-113l-18 90l-60 -31q-66 -35 -133 -55t-135 -20q-72 0 -131 21.5t-103.5 61t-69 94 t-24.5 122.5z" />
<glyph unicode="v" horiz-adv-x="974" d="M45 999h141q20 0 27 -20l158 -557q23 -78 42 -155t29 -124q23 47 61 127t75 154l276 555q6 10 12 15t21 5h137l-514 -999h-139q-16 0 -20.5 4t-8.5 14z" />
<glyph unicode="w" horiz-adv-x="1556" d="M53 999h137q20 0 27 -18l111 -459q23 -98 44 -202.5t31 -169.5q10 31 26.5 76.5t35 96t37 98.5t33.5 85l198 493h154q16 0 20 -4t8 -16l99 -490q18 -90 34.5 -184t24.5 -160q20 51 57 142.5t78 187.5l219 504q8 20 29 20h133l-446 -999h-146q-23 0 -28 18l-109 514 q-16 82 -30.5 164t-24.5 138q-8 -23 -20.5 -57t-29 -74.5t-33.5 -86t-36 -88.5l-215 -528h-141q-23 0 -29 20z" />
<glyph unicode="x" horiz-adv-x="968" d="M-39 0l428 524l-305 475h143q16 0 22.5 -3t12.5 -13l232 -367l288 367q8 10 14.5 13t22.5 3h144l-398 -493l330 -506h-145q-16 0 -22.5 2t-12.5 12l-256 404l-318 -404q-8 -10 -14 -12t-23 -2h-143z" />
<glyph unicode="y" horiz-adv-x="974" d="M45 999h143q20 0 27 -18l150 -530q10 -37 21 -81t22.5 -86t19.5 -79t14 -64q10 25 26.5 61t37 76.5t41 85t41.5 85.5l266 532q6 10 11 14t20 4h137l-762 -1480l-137 49l227 422z" />
<glyph unicode="z" horiz-adv-x="909" d="M6 0l8 59q4 23 8.5 33t18.5 27l453 538q59 72 109 126.5t91 97.5h-573l16 118h760l-8 -59q-4 -23 -8 -33t-19 -26l-452 -539q-59 -72 -109.5 -126t-91.5 -97h590l-15 -119h-778z" />
<glyph unicode="{" horiz-adv-x="659" d="M96 395l13 101q68 14 113.5 34.5t74.5 52t41 78t12 111.5q0 31 -2 72t-5 85t-5 86t-2 77q0 137 67.5 211.5t190.5 74.5q43 0 92 -9t84 -19l-10 -80l-164 -21q-72 -10 -94.5 -40.5t-22.5 -102.5q0 -31 2 -73t4 -87t4.5 -86t2.5 -72q0 -135 -54.5 -215.5t-177.5 -128.5 q84 -33 126 -85t42 -140q0 -53 -17.5 -122.5t-33.5 -125.5l-29 -102q-18 -66 -25.5 -98.5t-7.5 -53.5q0 -31 16.5 -50t59.5 -23l176 -21l-8 -80q-37 -10 -88 -19t-94 -9q-100 0 -151.5 55t-51.5 135q0 33 9.5 78t25.5 108l45 164q14 49 23.5 92t9.5 80q0 72 -44 110t-147 58 z" />
<glyph unicode="|" horiz-adv-x="473" d="M59 -469l228 1921h139l-227 -1921h-140z" />
<glyph unicode="}" horiz-adv-x="659" d="M-109 -457l11 80l164 21q72 10 94 40.5t22 102.5q0 31 -2 73t-4 87t-4 86t-2 71q0 135 54.5 216t176.5 129q-84 33 -126 85t-42 140q0 53 17.5 122.5t34.5 125.5l28 102q18 66 25.5 98.5t7.5 53.5q0 31 -16.5 50t-59.5 23l-176 21l8 80q37 10 88.5 19t94.5 9 q100 0 151 -55t51 -135q0 -33 -9 -78t-25 -109l-45 -163q-14 -49 -23.5 -92.5t-9.5 -79.5q0 -72 44 -110t146 -58l-12 -101q-68 -14 -114 -34.5t-74.5 -52t-41 -78t-12.5 -111.5q0 -31 2 -72t5.5 -85t5.5 -86t2 -77q0 -137 -68 -211.5t-190 -74.5q-43 0 -92.5 9t-84.5 19z " />
<glyph unicode="~" horiz-adv-x="1044" d="M168 631q41 90 109.5 143t146.5 53q43 0 82 -14t75.5 -31.5t71.5 -32t72 -14.5q49 0 86 24.5t76 76.5l82 -33q-41 -90 -109.5 -142.5t-146.5 -52.5q-43 0 -83 14.5t-77 32t-72 31.5t-71 14q-53 0 -88 -25.5t-72 -74.5z" />
<glyph unicode="&#xa1;" horiz-adv-x="466" d="M53 -359l58 475q10 96 35.5 237.5t60.5 293.5h84l-4 -150q-4 -94 -9.5 -186t-15.5 -182l-57 -488h-152zM182 849l17 150h178l-21 -180h-145q-20 0 -25.5 7t-3.5 23z" />
<glyph unicode="&#xa2;" d="M182 436q0 109 35 209t97.5 180t149.5 130.5t191 58.5l43 203h86l-24 -207q111 -23 186.5 -97.5t114.5 -181.5l-107 -51l-73 82q-39 41 -71 67.5t-67 40.5l-88 -749q47 4 99.5 20.5t111.5 38.5l121 47l43 -80q-78 -66 -181.5 -109.5t-211.5 -51.5l-45 -211h-86l24 215 q-82 12 -146.5 52t-109.5 98.5t-68.5 134t-23.5 161.5zM336 442q0 -117 52 -200.5t163 -112.5l88 748q-63 -8 -118.5 -44t-96.5 -93.5t-64.5 -133.5t-23.5 -164z" />
<glyph unicode="&#xa3;" d="M156 0l8 72q2 27 9 38t32 40l67 79q51 59 74 105.5t23 111.5q0 39 -6.5 82t-16.5 88h-186l10 80l158 23q-10 47 -19.5 105.5t-9.5 111.5q0 104 36 187t96.5 139.5t141 86t170.5 29.5q117 0 225.5 -55t190.5 -147l-74 -80l-122 67q-70 39 -125.5 56.5t-110.5 17.5 q-68 0 -120 -21.5t-88 -60.5t-54.5 -90t-18.5 -113q0 -61 10.5 -119.5t20.5 -107.5h422l-12 -109h-391q10 -43 15 -83.5t5 -81.5q0 -74 -30.5 -141.5t-106.5 -143.5l-39 -39h741l-16 -127h-909z" />
<glyph unicode="&#xa4;" horiz-adv-x="1210" d="M109 299l172 152q-35 80 -35 172q0 164 88 288l-135 146l112 96l121 -137q53 39 115.5 61.5t134.5 22.5t132 -24.5t106 -65.5l157 143l90 -96l-172 -154q37 -78 37 -170q0 -80 -23.5 -154.5t-64.5 -136.5l133 -143l-112 -98l-121 139q-51 -39 -114.5 -61.5t-135.5 -22.5 q-145 0 -236 90l-159 -145zM383 635q0 -111 57.5 -180.5t165.5 -69.5q63 0 115.5 27.5t90.5 73.5t59.5 106.5t21.5 128.5q0 111 -57 179.5t-166 68.5q-63 0 -115.5 -27t-90.5 -73t-59.5 -106.5t-21.5 -127.5z" />
<glyph unicode="&#xa5;" d="M147 1358h138q29 0 39 -27l180 -411q41 -96 76.5 -187.5t54.5 -148.5h2q12 27 33.5 63.5t48 79.5t54.5 88t56 86l283 424q14 20 22.5 26.5t28.5 6.5h135l-550 -826h237l-12 -108h-281l-10 -88h281l-13 -111h-282l-27 -225h-154l27 225h-278l12 111h280l11 88h-281l12 108 h242z" />
<glyph unicode="&#xa6;" horiz-adv-x="473" d="M59 -469l101 856h139l-100 -856h-140zM184 596l103 856h139l-100 -856h-142z" />
<glyph unicode="&#xa7;" horiz-adv-x="1134" d="M78 -385l43 94l88 -24q80 -23 136 -31t116 -8q131 0 209 55t78 160q0 84 -55.5 134t-166.5 95l-108 45q-158 66 -232.5 137.5t-74.5 186.5q0 51 16 99t42 89t58.5 77t63.5 67q-47 47 -67.5 103t-20.5 118q0 80 34.5 146.5t94 115.5t141.5 75.5t176 26.5t191.5 -26.5 t187.5 -77.5l-43 -94l-90 22q-66 16 -127 26.5t-121 10.5q-131 0 -210 -56.5t-79 -158.5q0 -80 55.5 -131t166.5 -96l108 -45q78 -33 136.5 -66t96 -69.5t56 -81t18.5 -99.5q0 -106 -53 -188t-125 -154q88 -84 88 -219q0 -80 -34.5 -147.5t-94 -115.5t-141.5 -75t-176 -27 t-192.5 29t-188.5 78zM256 485q0 -68 52 -117t186 -102l100 -41q43 -16 76.5 -33.5t62.5 -33.5q41 49 79 111.5t38 131.5q0 68 -51 115t-185 100l-100 41q-43 18 -75.5 34t-61.5 34q-18 -20 -39 -46t-39 -55.5t-30.5 -64.5t-12.5 -74z" />
<glyph unicode="&#xa8;" horiz-adv-x="778" d="M201 1167l22 185h144q16 0 23 -5.5t7 -21.5v-6q0 -4 -1 -8t-1 -11l-16 -133h-178zM555 1167l23 185h143q16 0 23.5 -5.5t7.5 -21.5v-6q0 -4 -1 -8t-1 -11l-17 -133h-178z" />
<glyph unicode="&#xa9;" horiz-adv-x="1476" d="M96 608q0 154 58.5 293t159 244.5t235.5 169t289 63.5q131 0 241.5 -50t190.5 -136t125 -200.5t45 -243.5q0 -154 -58.5 -292.5t-159 -245t-235.5 -168.5t-291 -62q-131 0 -240.5 50t-189.5 136t-125 200.5t-45 241.5zM225 614q0 -111 35 -204t97.5 -161.5t151.5 -107.5 t198 -39q137 0 248.5 52.5t190.5 140.5t122 203.5t43 242.5q0 111 -35 204t-98.5 162t-152.5 107.5t-198 38.5q-137 0 -247.5 -52t-189.5 -140t-122 -204t-43 -243zM479 653q0 63 23.5 124t64.5 108t96.5 75.5t120.5 28.5q86 0 147.5 -50t84.5 -122l-66 -41l-47 49 q-31 33 -60.5 48.5t-66.5 15.5q-39 0 -72.5 -17.5t-59.5 -49t-40 -73.5t-14 -92q0 -78 39 -126t116 -48q29 0 61 7.5t85 25.5l67 25l33 -60q-55 -43 -122.5 -72.5t-135.5 -29.5q-59 0 -106 21.5t-80 58.5t-50.5 87t-17.5 107z" />
<glyph unicode="&#xaa;" horiz-adv-x="933" d="M115 897q0 100 33.5 188.5t90 154t131 102t156.5 36.5q39 0 80 -11t82 -40l66 -43l41 80l79 -6l-81 -696l120 -35l-6 -60q-23 -10 -58.5 -18t-64.5 -8q-41 0 -74.5 23.5t-37.5 60.5l-43 -29q-39 -27 -97.5 -46.5t-109.5 -19.5q-70 0 -126 28t-96 77t-62.5 116.5 t-22.5 145.5zM254 901q0 -113 54 -178.5t149 -65.5q47 0 96 15.5t86 38.5q16 10 21.5 17t7.5 24l47 391q4 31 1 40t-20 21q-27 18 -67.5 31.5t-87.5 13.5q-59 0 -111.5 -22.5t-91.5 -65.5t-61.5 -108.5t-22.5 -151.5z" />
<glyph unicode="&#xab;" horiz-adv-x="1171" d="M115 451.5q-2 7.5 0 19.5l10 84l453 346l61 -67l-365 -330v-2l285 -330l-76 -70l-352 330q-14 12 -16 19.5zM586 451.5q-2 7.5 0 19.5l10 84l453 346l61 -67l-365 -330v-2l285 -330l-76 -70l-352 330q-14 12 -16 19.5z" />
<glyph unicode="&#xac;" horiz-adv-x="1046" d="M166 629l14 125h735l-59 -500h-127l45 375h-608z" />
<glyph unicode="&#xad;" horiz-adv-x="804" d="M104 436l17 127h579l-16 -127h-580z" />
<glyph unicode="&#xae;" horiz-adv-x="1476" d="M96 608q0 154 58.5 293t159 244.5t235.5 169t289 63.5q131 0 241.5 -50t190.5 -136t125 -200.5t45 -243.5q0 -154 -58.5 -292.5t-159 -245t-235.5 -168.5t-291 -62q-131 0 -240.5 50t-189.5 136t-125 200.5t-45 241.5zM225 614q0 -111 35 -204t97.5 -161.5t151.5 -107.5 t198 -39q137 0 248.5 52.5t190.5 140.5t122 203.5t43 242.5q0 111 -35 204t-98.5 162t-152.5 107.5t-198 38.5q-137 0 -247.5 -52t-189.5 -140t-122 -204t-43 -243zM514 387l70 594h217q119 0 168 -53q37 -41 37 -109q0 -135 -123 -203l100 -229h-92q-10 0 -16.5 3t-10.5 13 l-80 193q-4 12 -20 12h-119l-27 -221h-104zM655 700h166q20 0 29.5 3.5t19.5 13.5q16 16 23.5 39.5t7.5 52.5q0 47 -25.5 62.5t-82.5 15.5h-115z" />
<glyph unicode="&#xaf;" horiz-adv-x="778" d="M176 1190l14 125h580l-14 -125h-580z" />
<glyph unicode="&#xb0;" horiz-adv-x="849" d="M166 1018q0 72 26.5 137.5t73.5 114.5t109.5 78.5t136.5 29.5q63 0 118.5 -23.5t96.5 -64.5t63.5 -98t22.5 -127q0 -72 -26.5 -137.5t-73.5 -115.5t-110.5 -80t-137.5 -30q-63 0 -118.5 24t-95.5 66t-62.5 99t-22.5 127zM295 1020q0 -86 48 -139.5t126 -53.5 q53 0 93 20.5t66.5 54.5t40 76t13.5 83q0 86 -47 139t-125 53q-53 0 -94 -20.5t-67.5 -54t-40 -75.5t-13.5 -83z" />
<glyph unicode="&#xb1;" horiz-adv-x="1042" d="M111 0l14 125h735l-14 -125h-735zM178 592l15 125h303l32 282h129l-32 -282h303l-15 -125h-303l-32 -283h-129l32 283h-303z" />
<glyph unicode="&#xb2;" horiz-adv-x="788" d="M184 688l6 60q2 16 5.5 24t17.5 21l172 155q98 88 138 138.5t40 103.5q0 43 -31.5 61.5t-72.5 18.5q-47 0 -146 -31l-53 -16l-31 75q131 80 250 80q94 0 150.5 -52t56.5 -130q0 -45 -14.5 -82t-41 -70.5t-64.5 -67.5t-85 -75l-131 -110h307l-12 -103h-461z" />
<glyph unicode="&#xb3;" horiz-adv-x="784" d="M162 766l37 72l73 -23q43 -14 80 -23.5t68 -9.5q59 0 98 32t39 87q0 41 -25.5 57.5t-87.5 16.5h-55q-14 0 -17 4t1 27l8 63h117q20 0 27 4t18 17q10 16 20 40.5t10 47.5q0 92 -100 92q-39 0 -67.5 -5t-61.5 -16l-70 -20l-28 76q57 31 118.5 52t120.5 21q90 0 148.5 -50 t58.5 -128q0 -49 -24.5 -92t-61.5 -78q37 -23 55.5 -55.5t18.5 -71.5q0 -53 -20.5 -95t-54.5 -70.5t-79 -45t-96 -16.5q-72 0 -143.5 25.5t-124.5 64.5z" />
<glyph unicode="&#xb4;" horiz-adv-x="778" d="M223 1174l402 284q20 14 30 -4l64 -111l-453 -241z" />
<glyph unicode="&#xb5;" horiz-adv-x="1095" d="M16 -469l174 1468h156l-70 -593q-4 -25 -7 -57t-3 -52q0 -168 211 -168q53 0 110.5 12.5t123.5 34.5l28 10q16 6 21.5 13.5t7.5 23.5l90 776h156l-117 -999h-113l-18 90l-59 -31q-66 -35 -133.5 -55t-135.5 -20q-61 0 -116.5 17t-88.5 50l-61 -520h-156z" />
<glyph unicode="&#xb6;" horiz-adv-x="1026" d="M139 911l54 447h919l-14 -121h-168l-199 -1706h-131l201 1706h-133l-201 -1706h-129l156 1329h-299q-37 0 -48.5 10.5t-7.5 40.5z" />
<glyph unicode="&#xb7;" horiz-adv-x="401" d="M113 479l20 187h146q20 0 25 -7.5t3 -23.5l-16 -156h-178z" />
<glyph unicode="&#xb8;" horiz-adv-x="778" d="M186 -369l133 29q53 10 75 23.5t22 37.5q0 23 -30 37.5t-66.5 28.5t-66.5 33.5t-30 52.5q0 39 37 86t78 82l70 -16q-16 -20 -34 -49t-18 -50q0 -20 31 -32.5t69 -30t68.5 -44t30.5 -75.5q0 -51 -31.5 -87t-83 -60.5t-115 -37t-126.5 -14.5z" />
<glyph unicode="&#xb9;" horiz-adv-x="794" d="M215 688l12 100h164l53 451q-12 -8 -42.5 -23.5t-59.5 -25.5l-66 -23l-32 82l225 109q14 6 21.5 8t27.5 2h64l-68 -580h139l-12 -100h-426z" />
<glyph unicode="&#xba;" horiz-adv-x="935" d="M123 905q0 100 33.5 187.5t92 151t136.5 99t166 35.5q80 0 145.5 -30.5t112.5 -82t72.5 -120t25.5 -144.5q0 -100 -33.5 -186t-92 -149.5t-136.5 -99.5t-166 -36q-80 0 -145.5 30t-112.5 81t-72.5 119.5t-25.5 144.5zM262 924q0 -117 58.5 -191t168.5 -74q63 0 114.5 26 t88.5 70t56.5 103t19.5 127q0 117 -58.5 189.5t-168.5 72.5q-63 0 -114.5 -25.5t-88.5 -68.5t-56.5 -102.5t-19.5 -126.5z" />
<glyph unicode="&#xbb;" horiz-adv-x="1171" d="M59 170l365 330v2l-285 329l76 70l352 -330q14 -12 16.5 -19t0.5 -20l-11 -83l-452 -347zM530 170l365 330v2l-285 329l76 70l352 -330q14 -12 16.5 -19t0.5 -20l-11 -83l-452 -347z" />
<glyph unicode="&#xbc;" horiz-adv-x="1726" d="M213 688l12 100h164l53 451q-12 -8 -42.5 -23.5t-59.5 -25.5l-66 -23l-32 82l225 109q14 6 21.5 8t27.5 2h64l-68 -580h139l-12 -100h-426zM424 0l807 1358h149l-807 -1358h-149zM977 164l8 57q4 23 9 32t24 32l309 364q12 14 19.5 18.5t23.5 4.5h121l-49 -410h106 l-12 -98h-104l-21 -164h-123l21 164h-332zM1116 262h205l33 283q-10 -16 -32 -43t-42 -51l-86 -105q-20 -23 -40.5 -46.5t-37.5 -37.5z" />
<glyph unicode="&#xbd;" horiz-adv-x="1724" d="M213 688l12 100h164l53 451q-12 -8 -42.5 -23.5t-59.5 -25.5l-66 -23l-32 82l225 109q14 6 21.5 8t27.5 2h64l-68 -580h139l-12 -100h-426zM418 0l807 1358h149l-807 -1358h-149zM1056 0l6 60q2 16 5.5 24t17.5 21l172 155q98 88 138 138.5t40 103.5q0 43 -31.5 61.5 t-72.5 18.5q-47 0 -146 -31l-53 -16l-31 75q131 80 250 80q94 0 150.5 -52t56.5 -130q0 -45 -14.5 -82t-41 -70.5t-64.5 -67.5t-85 -75l-131 -110h307l-12 -103h-461z" />
<glyph unicode="&#xbe;" horiz-adv-x="1726" d="M186 766l37 72l74 -23q43 -14 80 -23.5t67 -9.5q59 0 98.5 32t39.5 87q0 41 -26 57.5t-87 16.5h-55q-14 0 -17.5 4t0.5 27l9 63h116q20 0 27.5 4t17.5 17q10 16 20.5 40.5t10.5 47.5q0 92 -100 92q-39 0 -68 -5t-61 -16l-70 -20l-29 76q57 31 119 52t121 21 q90 0 148.5 -50t58.5 -128q0 -49 -24.5 -92t-61.5 -78q37 -23 55.5 -55.5t18.5 -71.5q0 -53 -20.5 -95t-54.5 -70.5t-79 -45t-96 -16.5q-72 0 -143.5 25.5t-125.5 64.5zM430 0l807 1358h149l-806 -1358h-150zM981 164l8 57q4 23 9.5 32t23.5 32l309 364q12 14 19.5 18.5 t23.5 4.5h121l-49 -410h106l-12 -98h-104l-21 -164h-123l21 164h-332zM1120 262h205l33 283q-10 -16 -31.5 -43t-42.5 -51l-86 -105q-20 -23 -40.5 -46.5t-37.5 -37.5z" />
<glyph unicode="&#xbf;" horiz-adv-x="954" d="M21 -39q0 78 25.5 139t70.5 110.5t109.5 90.5t140.5 77l115 56l55 215h90q4 -49 6 -94t2 -74q0 -55 -14 -81t-61 -54l-156 -88q-109 -61 -167 -125t-58 -164q0 -96 65.5 -150.5t177.5 -54.5q59 0 126 14.5t141 36.5l116 37l39 -86q-102 -66 -217 -105.5t-221 -39.5 q-80 0 -149.5 23.5t-122 68.5t-83 107.5t-30.5 140.5zM517 849l16 150h178l-20 -180h-146q-20 0 -25 7t-3 23z" />
<glyph unicode="&#xc0;" horiz-adv-x="1337" d="M-12 0l690 1358h127q16 0 21 -4t10 -19l393 -1335h-139q-16 0 -21.5 4t-9.5 14l-90 318h-647l-160 -318q-6 -12 -13.5 -15t-23.5 -3h-137zM385 463h547l-88 307q-35 119 -63.5 228.5t-47.5 187.5q-14 -35 -35.5 -81t-47 -99.5t-53.5 -109.5t-52 -108zM530 1722l86 111 q6 8 12 11t19 -7l336 -285l-60 -71z" />
<glyph unicode="&#xc1;" horiz-adv-x="1337" d="M-12 0l690 1358h127q16 0 21 -4t10 -19l393 -1335h-139q-16 0 -21.5 4t-9.5 14l-90 318h-647l-160 -318q-6 -12 -13.5 -15t-23.5 -3h-137zM385 463h547l-88 307q-35 119 -63.5 228.5t-47.5 187.5q-14 -35 -35.5 -81t-47 -99.5t-53.5 -109.5t-52 -108zM542 1552l402 285 q20 14 31 -4l63 -111l-453 -241z" />
<glyph unicode="&#xc2;" horiz-adv-x="1337" d="M-12 0l690 1358h127q16 0 21 -4t10 -19l393 -1335h-139q-16 0 -21.5 4t-9.5 14l-90 318h-647l-160 -318q-6 -12 -13.5 -15t-23.5 -3h-137zM385 463h547l-88 307q-35 119 -63.5 228.5t-47.5 187.5q-14 -35 -35.5 -81t-47 -99.5t-53.5 -109.5t-52 -108zM445 1524l278 262 q12 12 22.5 16t28.5 4h39q20 0 27.5 -2t17.5 -16l219 -264l-69 -60l-226 209h-6l-276 -209z" />
<glyph unicode="&#xc3;" horiz-adv-x="1337" d="M-12 0l690 1358h127q16 0 21 -4t10 -19l393 -1335h-139q-16 0 -21.5 4t-9.5 14l-90 318h-647l-160 -318q-6 -12 -13.5 -15t-23.5 -3h-137zM385 463h547l-88 307q-35 119 -63.5 228.5t-47.5 187.5q-14 -35 -35.5 -81t-47 -99.5t-53.5 -109.5t-52 -108zM450 1538 q33 86 87.5 139.5t125.5 53.5q35 0 69 -14.5t64.5 -31t61.5 -31t59 -14.5q31 0 61 21.5t60 71.5l78 -25q-33 -86 -87 -139t-126 -53q-35 0 -68.5 14t-64.5 30.5t-61.5 31t-59.5 14.5t-59.5 -21.5t-61.5 -71.5z" />
<glyph unicode="&#xc4;" horiz-adv-x="1337" d="M-12 0l690 1358h127q16 0 21 -4t10 -19l393 -1335h-139q-16 0 -21.5 4t-9.5 14l-90 318h-647l-160 -318q-6 -12 -13.5 -15t-23.5 -3h-137zM385 463h547l-88 307q-35 119 -63.5 228.5t-47.5 187.5q-14 -35 -35.5 -81t-47 -99.5t-53.5 -109.5t-52 -108zM504 1536l22 184 h144q16 0 23 -5t7 -21v-6q0 -4 -1 -8.5t-1 -10.5l-16 -133h-178zM858 1536l22 184h144q16 0 23.5 -5t7.5 -21v-6q0 -4 -1.5 -8.5t-1.5 -10.5l-16 -133h-178z" />
<glyph unicode="&#xc5;" horiz-adv-x="1337" d="M-12 0l676 1329q-51 23 -80 73t-29 107q0 47 17.5 89t48 73t72.5 49.5t89 18.5q94 0 150.5 -59.5t56.5 -143.5q0 -72 -40 -130t-111 -81l391 -1325h-139q-16 0 -21.5 4t-9.5 14l-90 318h-647l-160 -318q-6 -12 -13.5 -15t-23.5 -3h-137zM385 463h547l-88 307 q-35 119 -63.5 228.5t-47.5 187.5q-14 -35 -35.5 -81t-47 -99.5t-53.5 -109.5t-52 -108zM659 1516q0 -41 27 -75t80 -34q49 0 85 32t36 91q0 41 -28 74.5t-81 33.5q-49 0 -84 -31.5t-35 -90.5z" />
<glyph unicode="&#xc6;" horiz-adv-x="1845" d="M-41 0l975 1358h905l-16 -133h-674l-53 -453h616l-16 -131h-615l-59 -508h696l-16 -133h-856l39 336h-500l-205 -297q-18 -29 -29.5 -34t-37.5 -5h-154zM479 463h420l88 739q-27 -39 -67.5 -101.5t-89 -133t-98.5 -144t-95 -135.5z" />
<glyph unicode="&#xc7;" horiz-adv-x="1331" d="M113 590q0 160 53 302t146.5 250.5t219 172t271.5 63.5q92 0 169 -29.5t137 -79.5t104 -119t71 -144l-110 -56l-103 119q-72 84 -139.5 120t-153.5 36q-100 0 -191 -45t-160 -126t-110 -196t-41 -254q0 -106 27 -193t80 -149.5t130 -96.5t179 -34q76 0 163 20.5t175 55.5 l156 63l51 -86q-59 -45 -128 -81.5t-141.5 -64.5t-147.5 -43t-144 -15q-8 -14 -13.5 -28.5t-5.5 -25.5q0 -20 31 -32.5t69 -30t68.5 -44t30.5 -75.5q0 -51 -31.5 -87t-83 -60.5t-115 -37t-126.5 -14.5l-13 86l134 29q53 10 74.5 23.5t21.5 37.5q0 23 -30 37.5t-66.5 28.5 t-66.5 33.5t-30 52.5q0 27 16.5 56.5t41.5 58.5q-109 16 -196 67t-147.5 131t-93 182.5t-32.5 221.5z" />
<glyph unicode="&#xc8;" horiz-adv-x="1103" d="M104 0l160 1358h834l-17 -133h-673l-54 -453h617l-17 -131h-614l-59 -508h696l-16 -133h-857zM467 1722l86 111q6 8 12 11t19 -7l336 -285l-60 -71z" />
<glyph unicode="&#xc9;" horiz-adv-x="1103" d="M104 0l160 1358h834l-17 -133h-673l-54 -453h617l-17 -131h-614l-59 -508h696l-16 -133h-857zM497 1552l402 285q20 14 31 -4l63 -111l-453 -241z" />
<glyph unicode="&#xca;" horiz-adv-x="1103" d="M104 0l160 1358h834l-17 -133h-673l-54 -453h617l-17 -131h-614l-59 -508h696l-16 -133h-857zM388 1524l278 262q12 12 22.5 16t28.5 4h39q20 0 27.5 -2t17.5 -16l219 -264l-69 -60l-226 209h-6l-276 -209z" />
<glyph unicode="&#xcb;" horiz-adv-x="1103" d="M104 0l160 1358h834l-17 -133h-673l-54 -453h617l-17 -131h-614l-59 -508h696l-16 -133h-857zM422 1536l22 184h144q16 0 23 -5t7 -21v-6q0 -4 -1 -8.5t-1 -10.5l-16 -133h-178zM776 1536l22 184h144q16 0 23.5 -5t7.5 -21v-6q0 -4 -1.5 -8.5t-1.5 -10.5l-16 -133h-178z " />
<glyph unicode="&#xcc;" horiz-adv-x="481" d="M109 0l159 1358h160l-160 -1358h-159zM131 1722l86 111q6 8 12 11t19 -7l336 -285l-60 -71z" />
<glyph unicode="&#xcd;" horiz-adv-x="481" d="M109 0l159 1358h160l-160 -1358h-159zM151 1552l402 285q20 14 31 -4l63 -111l-453 -241z" />
<glyph unicode="&#xce;" horiz-adv-x="481" d="M39 1524l278 262q12 12 22.5 16t28.5 4h39q20 0 27.5 -2t17.5 -16l219 -264l-69 -60l-226 209h-6l-276 -209zM109 0l159 1358h160l-160 -1358h-159z" />
<glyph unicode="&#xcf;" horiz-adv-x="481" d="M103 1536l22 184h144q16 0 23 -5t7 -21v-6q0 -4 -1 -8.5t-1 -10.5l-16 -133h-178zM109 0l159 1358h160l-160 -1358h-159zM457 1536l22 184h144q16 0 23.5 -5t7.5 -21v-6q0 -4 -1.5 -8.5t-1.5 -10.5l-16 -133h-178z" />
<glyph unicode="&#xd0;" horiz-adv-x="1437" d="M51 637l15 121h182l71 600h418q319 0 483 -144.5t164 -418.5q0 -176 -55 -322.5t-159.5 -251t-252 -163t-331.5 -58.5h-426l73 637h-182zM336 135h225q166 0 291 48t208 134t124 206t41 265q0 119 -31 202t-94.5 134.5t-159.5 75t-225 23.5h-252l-55 -465h307l-15 -121 h-307z" />
<glyph unicode="&#xd1;" horiz-adv-x="1427" d="M104 0l160 1358h88q16 0 23.5 -3t17.5 -18l537 -811q96 -145 164 -260l131 1092h153l-159 -1358h-89q-16 0 -23 3t-17 17l-535 809q-47 72 -90 139.5t-78 125.5l-129 -1094h-154zM526 1538q33 86 87.5 139.5t125.5 53.5q35 0 69 -14.5t64.5 -31t61.5 -31t59 -14.5 q31 0 61 21.5t60 71.5l78 -25q-33 -86 -87 -139t-126 -53q-35 0 -68.5 14t-64.5 30.5t-61.5 31t-59.5 14.5t-59.5 -21.5t-61.5 -71.5z" />
<glyph unicode="&#xd2;" horiz-adv-x="1445" d="M115 604q0 158 54 298t148.5 246.5t220.5 168t269 61.5q131 0 239.5 -49t186.5 -133t121 -198.5t43 -243.5q0 -158 -54.5 -298.5t-148.5 -247t-220 -167.5t-269 -61q-131 0 -240 49t-186.5 133t-120.5 198.5t-43 243.5zM276 616q0 -98 29 -186t84 -154.5t137.5 -104.5 t188.5 -38q113 0 208 47t164.5 129t108.5 192.5t39 239.5q0 98 -28.5 186.5t-84 155t-137.5 104.5t-188 38q-113 0 -208 -47.5t-165 -129t-109 -192.5t-39 -240zM629 1722l86 111q6 8 12 11t19 -7l336 -285l-60 -71z" />
<glyph unicode="&#xd3;" horiz-adv-x="1445" d="M115 604q0 158 54 298t148.5 246.5t220.5 168t269 61.5q131 0 239.5 -49t186.5 -133t121 -198.5t43 -243.5q0 -158 -54.5 -298.5t-148.5 -247t-220 -167.5t-269 -61q-131 0 -240 49t-186.5 133t-120.5 198.5t-43 243.5zM276 616q0 -98 29 -186t84 -154.5t137.5 -104.5 t188.5 -38q113 0 208 47t164.5 129t108.5 192.5t39 239.5q0 98 -28.5 186.5t-84 155t-137.5 104.5t-188 38q-113 0 -208 -47.5t-165 -129t-109 -192.5t-39 -240zM614 1552l402 285q20 14 31 -4l63 -111l-453 -241z" />
<glyph unicode="&#xd4;" horiz-adv-x="1445" d="M115 604q0 158 54 298t148.5 246.5t220.5 168t269 61.5q131 0 239.5 -49t186.5 -133t121 -198.5t43 -243.5q0 -158 -54.5 -298.5t-148.5 -247t-220 -167.5t-269 -61q-131 0 -240 49t-186.5 133t-120.5 198.5t-43 243.5zM276 616q0 -98 29 -186t84 -154.5t137.5 -104.5 t188.5 -38q113 0 208 47t164.5 129t108.5 192.5t39 239.5q0 98 -28.5 186.5t-84 155t-137.5 104.5t-188 38q-113 0 -208 -47.5t-165 -129t-109 -192.5t-39 -240zM521 1524l278 262q12 12 22.5 16t28.5 4h39q20 0 27.5 -2t17.5 -16l219 -264l-69 -60l-226 209h-6l-276 -209z " />
<glyph unicode="&#xd5;" horiz-adv-x="1445" d="M115 604q0 158 54 298t148.5 246.5t220.5 168t269 61.5q131 0 239.5 -49t186.5 -133t121 -198.5t43 -243.5q0 -158 -54.5 -298.5t-148.5 -247t-220 -167.5t-269 -61q-131 0 -240 49t-186.5 133t-120.5 198.5t-43 243.5zM276 616q0 -98 29 -186t84 -154.5t137.5 -104.5 t188.5 -38q113 0 208 47t164.5 129t108.5 192.5t39 239.5q0 98 -28.5 186.5t-84 155t-137.5 104.5t-188 38q-113 0 -208 -47.5t-165 -129t-109 -192.5t-39 -240zM516 1538q33 86 87.5 139.5t125.5 53.5q35 0 69 -14.5t64.5 -31t61.5 -31t59 -14.5q31 0 61 21.5t60 71.5 l78 -25q-33 -86 -87 -139t-126 -53q-35 0 -68.5 14t-64.5 30.5t-61.5 31t-59.5 14.5t-59.5 -21.5t-61.5 -71.5z" />
<glyph unicode="&#xd6;" horiz-adv-x="1445" d="M115 604q0 158 54 298t148.5 246.5t220.5 168t269 61.5q131 0 239.5 -49t186.5 -133t121 -198.5t43 -243.5q0 -158 -54.5 -298.5t-148.5 -247t-220 -167.5t-269 -61q-131 0 -240 49t-186.5 133t-120.5 198.5t-43 243.5zM276 616q0 -98 29 -186t84 -154.5t137.5 -104.5 t188.5 -38q113 0 208 47t164.5 129t108.5 192.5t39 239.5q0 98 -28.5 186.5t-84 155t-137.5 104.5t-188 38q-113 0 -208 -47.5t-165 -129t-109 -192.5t-39 -240zM568 1536l22 184h144q16 0 23 -5t7 -21v-6q0 -4 -1 -8.5t-1 -10.5l-16 -133h-178zM922 1536l22 184h144 q16 0 23.5 -5t7.5 -21v-6q0 -4 -1.5 -8.5t-1.5 -10.5l-16 -133h-178z" />
<glyph unicode="&#xd7;" horiz-adv-x="1050" d="M184 276l252 228l-192 225l96 86l192 -225l252 225l78 -86l-254 -229l195 -228l-98 -84l-193 226l-248 -224z" />
<glyph unicode="&#xd8;" horiz-adv-x="1445" d="M86 -12l170 200q-68 84 -104.5 189.5t-36.5 226.5q0 158 54 298t148.5 246.5t220.5 168t269 61.5q104 0 194.5 -30.5t161.5 -87.5l162 192l100 -84l-170 -201q68 -84 105 -188.5t37 -224.5q0 -158 -54.5 -298.5t-148.5 -247t-220 -167.5t-269 -61q-104 0 -194.5 30.5 t-162.5 85.5l-162 -192zM276 616q0 -86 21.5 -163.5t62.5 -139.5l701 828q-51 41 -117.5 62.5t-146.5 21.5q-113 0 -208 -47.5t-165 -129t-109 -192.5t-39 -240zM451 215q51 -39 117.5 -60.5t146.5 -21.5q113 0 208 47t164.5 129t108.5 192.5t39 239.5q0 86 -21.5 163 t-62.5 138z" />
<glyph unicode="&#xd9;" horiz-adv-x="1347" d="M152 440q0 35 3 85t11 116l86 717h160l-86 -723q-8 -66 -11.5 -109t-3.5 -77q0 -152 88 -235t250 -83q104 0 178 32t124 90t79 142t41 189l92 774h154l-96 -799q-35 -276 -178.5 -427.5t-403.5 -151.5q-119 0 -210 34.5t-152.5 97t-93 146.5t-31.5 182zM547 1722l86 111 q6 8 12 11t19 -7l336 -285l-60 -71z" />
<glyph unicode="&#xda;" horiz-adv-x="1347" d="M152 440q0 35 3 85t11 116l86 717h160l-86 -723q-8 -66 -11.5 -109t-3.5 -77q0 -152 88 -235t250 -83q104 0 178 32t124 90t79 142t41 189l92 774h154l-96 -799q-35 -276 -178.5 -427.5t-403.5 -151.5q-119 0 -210 34.5t-152.5 97t-93 146.5t-31.5 182zM630 1552l402 285 q20 14 31 -4l63 -111l-453 -241z" />
<glyph unicode="&#xdb;" horiz-adv-x="1347" d="M152 440q0 35 3 85t11 116l86 717h160l-86 -723q-8 -66 -11.5 -109t-3.5 -77q0 -152 88 -235t250 -83q104 0 178 32t124 90t79 142t41 189l92 774h154l-96 -799q-35 -276 -178.5 -427.5t-403.5 -151.5q-119 0 -210 34.5t-152.5 97t-93 146.5t-31.5 182zM488 1524l278 262 q12 12 22.5 16t28.5 4h39q20 0 27.5 -2t17.5 -16l219 -264l-69 -60l-226 209h-6l-276 -209z" />
<glyph unicode="&#xdc;" horiz-adv-x="1347" d="M152 440q0 35 3 85t11 116l86 717h160l-86 -723q-8 -66 -11.5 -109t-3.5 -77q0 -152 88 -235t250 -83q104 0 178 32t124 90t79 142t41 189l92 774h154l-96 -799q-35 -276 -178.5 -427.5t-403.5 -151.5q-119 0 -210 34.5t-152.5 97t-93 146.5t-31.5 182zM537 1536l22 184 h144q16 0 23 -5t7 -21v-6q0 -4 -1 -8.5t-1 -10.5l-16 -133h-178zM891 1536l22 184h144q16 0 23.5 -5t7.5 -21v-6q0 -4 -1.5 -8.5t-1.5 -10.5l-16 -133h-178z" />
<glyph unicode="&#xdd;" horiz-adv-x="1175" d="M123 1358h145q16 0 21.5 -3t11.5 -18l160 -368q23 -53 46 -109.5t44.5 -109t39 -96.5t27.5 -74h3q18 35 46.5 81t61.5 98t69 106.5t70 105.5l246 366q10 12 17.5 16.5t23.5 4.5h139l-608 -903l-53 -455h-160l53 453zM534 1552l402 285q20 14 31 -4l63 -111l-453 -241z " />
<glyph unicode="&#xde;" horiz-adv-x="1179" d="M104 0l160 1358h160l-27 -230h291q248 0 359 -110q96 -92 96 -260q0 -106 -43 -218t-129 -198q-55 -53 -119 -73.5t-172 -20.5h-387l-29 -248h-160zM309 383h418q37 0 62.5 5t45 15.5t35 26.5t31.5 39q39 57 60.5 131t21.5 152q0 111 -55 170q-37 41 -93.5 56t-142.5 15 h-311z" />
<glyph unicode="&#xdf;" horiz-adv-x="1255" d="M55 881l11 82l188 34q14 102 58 188.5t112 150t157 98t193 34.5q70 0 134.5 -19t113.5 -55t77.5 -88.5t28.5 -117.5q0 -104 -56 -167t-148 -120q-55 -35 -95.5 -60.5t-68 -46t-40.5 -38t-13 -37.5q0 -33 31.5 -53.5t121.5 -59.5q76 -31 133.5 -59.5t97 -61t60 -73.5 t20.5 -99q0 -78 -32.5 -139t-86 -104t-123 -65.5t-145.5 -22.5q-96 0 -184 25.5t-164 66.5l35 88l90 -19q70 -14 125 -23t102 -9q104 0 169 55t65 133q0 57 -39 89t-125 67q-66 27 -119 51t-93 52t-61.5 60.5t-21.5 75.5q0 72 53.5 129.5t151.5 124.5q63 43 104 74t66 57.5 t34 53t9 59.5q0 68 -60.5 103.5t-152.5 35.5q-170 0 -256 -99t-109 -278l-149 -1267h-156l142 1194h-185z" />
<glyph unicode="&#xe0;" horiz-adv-x="1112" d="M70 422q0 127 41 235.5t109.5 188.5t157.5 125t183 45q66 0 120 -21.5t114 -60.5l51 -33l41 98l104 -10l-100 -858l143 -33l-8 -69q-31 -14 -72 -23.5t-75 -9.5q-51 0 -89 27.5t-49 74.5l-43 -26q-68 -41 -134 -64.5t-132 -23.5q-80 0 -147.5 33.5t-114.5 92t-73.5 138.5 t-26.5 174zM225 424q0 -137 56.5 -220t179.5 -83q63 0 134 23.5t122 56.5q16 10 22 20t9 27l63 516q2 16 -2 24.5t-21 18.5q-109 68 -223 67q-74 0 -135 -31.5t-107.5 -90t-72 -141.5t-25.5 -187zM368 1343l86 111q6 8 12.5 11t18.5 -7l336 -284l-59 -72z" />
<glyph unicode="&#xe1;" horiz-adv-x="1112" d="M70 422q0 127 41 235.5t109.5 188.5t157.5 125t183 45q66 0 120 -21.5t114 -60.5l51 -33l41 98l104 -10l-100 -858l143 -33l-8 -69q-31 -14 -72 -23.5t-75 -9.5q-51 0 -89 27.5t-49 74.5l-43 -26q-68 -41 -134 -64.5t-132 -23.5q-80 0 -147.5 33.5t-114.5 92t-73.5 138.5 t-26.5 174zM225 424q0 -137 56.5 -220t179.5 -83q63 0 134 23.5t122 56.5q16 10 22 20t9 27l63 516q2 16 -2 24.5t-21 18.5q-109 68 -223 67q-74 0 -135 -31.5t-107.5 -90t-72 -141.5t-25.5 -187zM397 1174l402 284q20 14 30 -4l64 -111l-453 -241z" />
<glyph unicode="&#xe2;" horiz-adv-x="1112" d="M70 422q0 127 41 235.5t109.5 188.5t157.5 125t183 45q66 0 120 -21.5t114 -60.5l51 -33l41 98l104 -10l-100 -858l143 -33l-8 -69q-31 -14 -72 -23.5t-75 -9.5q-51 0 -89 27.5t-49 74.5l-43 -26q-68 -41 -134 -64.5t-132 -23.5q-80 0 -147.5 33.5t-114.5 92t-73.5 138.5 t-26.5 174zM225 424q0 -137 56.5 -220t179.5 -83q63 0 134 23.5t122 56.5q16 10 22 20t9 27l63 516q2 16 -2 24.5t-21 18.5q-109 68 -223 67q-74 0 -135 -31.5t-107.5 -90t-72 -141.5t-25.5 -187zM287 1169l278 263q12 12 22.5 16t28.5 4h39q20 0 27.5 -2t17.5 -16l219 -265 l-69 -59l-226 209h-6l-276 -209z" />
<glyph unicode="&#xe3;" horiz-adv-x="1112" d="M70 422q0 127 41 235.5t109.5 188.5t157.5 125t183 45q66 0 120 -21.5t114 -60.5l51 -33l41 98l104 -10l-100 -858l143 -33l-8 -69q-31 -14 -72 -23.5t-75 -9.5q-51 0 -89 27.5t-49 74.5l-43 -26q-68 -41 -134 -64.5t-132 -23.5q-80 0 -147.5 33.5t-114.5 92t-73.5 138.5 t-26.5 174zM225 424q0 -137 56.5 -220t179.5 -83q63 0 134 23.5t122 56.5q16 10 22 20t9 27l63 516q2 16 -2 24.5t-21 18.5q-109 68 -223 67q-74 0 -135 -31.5t-107.5 -90t-72 -141.5t-25.5 -187zM282 1184q33 86 87 139t126 53q35 0 69 -14t64.5 -30.5t61 -31t59.5 -14.5 q31 0 60.5 21.5t60.5 70.5l78 -24q-33 -86 -87 -139.5t-126 -53.5q-35 0 -69 14.5t-64.5 31t-61.5 30.5t-59 14q-29 0 -59.5 -21.5t-61.5 -70.5z" />
<glyph unicode="&#xe4;" horiz-adv-x="1112" d="M70 422q0 127 41 235.5t109.5 188.5t157.5 125t183 45q66 0 120 -21.5t114 -60.5l51 -33l41 98l104 -10l-100 -858l143 -33l-8 -69q-31 -14 -72 -23.5t-75 -9.5q-51 0 -89 27.5t-49 74.5l-43 -26q-68 -41 -134 -64.5t-132 -23.5q-80 0 -147.5 33.5t-114.5 92t-73.5 138.5 t-26.5 174zM225 424q0 -137 56.5 -220t179.5 -83q63 0 134 23.5t122 56.5q16 10 22 20t9 27l63 516q2 16 -2 24.5t-21 18.5q-109 68 -223 67q-74 0 -135 -31.5t-107.5 -90t-72 -141.5t-25.5 -187zM334 1167l22 185h144q16 0 23 -5.5t7 -21.5v-6q0 -4 -1 -8t-1 -11l-16 -133 h-178zM688 1167l23 185h143q16 0 23.5 -5.5t7.5 -21.5v-6q0 -4 -1 -8t-1 -11l-17 -133h-178z" />
<glyph unicode="&#xe5;" horiz-adv-x="1112" d="M70 422q0 127 41 235.5t109.5 188.5t157.5 125t183 45q66 0 120 -21.5t114 -60.5l51 -33l41 98l104 -10l-100 -858l143 -33l-8 -69q-31 -14 -72 -23.5t-75 -9.5q-51 0 -89 27.5t-49 74.5l-43 -26q-68 -41 -134 -64.5t-132 -23.5q-80 0 -147.5 33.5t-114.5 92t-73.5 138.5 t-26.5 174zM225 424q0 -137 56.5 -220t179.5 -83q63 0 134 23.5t122 56.5q16 10 22 20t9 27l63 516q2 16 -2 24.5t-21 18.5q-109 68 -223 67q-74 0 -135 -31.5t-107.5 -90t-72 -141.5t-25.5 -187zM406 1325q0 47 17.5 89t48 73t72.5 49t89 18q94 0 150.5 -59t56.5 -143 q0 -47 -17.5 -89t-48 -73t-72.5 -49.5t-89 -18.5t-85 16.5t-64.5 44t-42 64.5t-15.5 78zM510 1331q0 -41 27 -74.5t80 -33.5q49 0 85 32t36 91q0 41 -28 74.5t-81 33.5q-49 0 -84 -31.5t-35 -91.5z" />
<glyph unicode="&#xe6;" horiz-adv-x="1738" d="M63 293q0 154 111 222.5t303 68.5q47 0 128 -4.5t153 -12.5q8 41 14 74t6 55q0 98 -58 138t-153 40q-68 0 -124 -11t-111 -27l-111 -33l-35 86q111 63 207 95t193 32q102 0 189 -44t116 -132q61 72 155 124t211 52q90 0 164 -34t126 -91t81 -136t29 -167 q0 -74 -17.5 -99.5t-52.5 -25.5h-684q0 -76 17.5 -138.5t53.5 -107.5t92 -70.5t136 -25.5q47 0 102.5 11t129.5 36l129 43l41 -82q-41 -31 -92.5 -56.5t-106.5 -46t-112.5 -31.5t-108.5 -11q-115 0 -202 43t-146 118q-61 -37 -113.5 -66.5t-102 -51t-99.5 -32.5t-109 -11 q-74 0 -137.5 21.5t-110.5 61t-74 97t-27 129.5zM213 299q0 -86 59.5 -133t159.5 -47q35 0 81 9t95 24.5t95 35.5t81 45q-20 47 -28 105.5t-8 124.5h-285q-49 0 -94 -5t-80 -21.5t-55.5 -49.5t-20.5 -88zM920 582h589q0 135 -67.5 215t-194.5 80q-131 0 -216 -82t-111 -213z " />
<glyph unicode="&#xe7;" horiz-adv-x="1001" d="M70 436q0 129 48 246t134 199q66 61 146.5 98t183.5 37q115 0 214 -72t148 -213l-104 -51l-56 61q-63 70 -115.5 104t-117.5 34q-68 0 -127 -33t-103.5 -91.5t-70 -138t-25.5 -174.5q0 -154 73 -237.5t214 -83.5q59 0 118.5 14.5t139.5 46.5l96 39l47 -78 q-80 -66 -186 -110.5t-219 -48.5q-10 -16 -16.5 -30.5t-6.5 -27.5q0 -20 31 -32.5t69 -30t68.5 -44t30.5 -75.5q0 -51 -31.5 -87t-83 -60.5t-115 -37t-126.5 -14.5l-13 86l134 29q53 10 74.5 23.5t21.5 37.5q0 23 -30 37.5t-66.5 28.5t-66.5 33.5t-30 52.5q0 29 18.5 58.5 t43.5 58.5q-84 12 -147.5 51t-107.5 98.5t-66.5 135t-22.5 161.5z" />
<glyph unicode="&#xe8;" horiz-adv-x="1060" d="M70 446q0 119 41 223.5t110.5 181.5t162.5 121t196 44q90 0 163.5 -34t126 -93.5t81 -138t28.5 -166.5q0 -74 -17.5 -97.5t-52.5 -23.5h-684q-2 -152 70 -247t229 -95q47 0 102.5 11t129.5 36l129 43l41 -82q-41 -31 -92.5 -56.5t-106.5 -46t-112.5 -31.5t-108.5 -11 q-96 0 -176 33.5t-138.5 94t-90 145.5t-31.5 189zM242 582h589q0 135 -67.5 215t-194.5 80q-131 0 -215 -83t-112 -212zM366 1343l86 111q6 8 12.5 11t18.5 -7l336 -284l-59 -72z" />
<glyph unicode="&#xe9;" horiz-adv-x="1060" d="M70 446q0 119 41 223.5t110.5 181.5t162.5 121t196 44q90 0 163.5 -34t126 -93.5t81 -138t28.5 -166.5q0 -74 -17.5 -97.5t-52.5 -23.5h-684q-2 -152 70 -247t229 -95q47 0 102.5 11t129.5 36l129 43l41 -82q-41 -31 -92.5 -56.5t-106.5 -46t-112.5 -31.5t-108.5 -11 q-96 0 -176 33.5t-138.5 94t-90 145.5t-31.5 189zM242 582h589q0 135 -67.5 215t-194.5 80q-131 0 -215 -83t-112 -212zM370 1174l402 284q20 14 30 -4l64 -111l-453 -241z" />
<glyph unicode="&#xea;" horiz-adv-x="1060" d="M70 446q0 119 41 223.5t110.5 181.5t162.5 121t196 44q90 0 163.5 -34t126 -93.5t81 -138t28.5 -166.5q0 -74 -17.5 -97.5t-52.5 -23.5h-684q-2 -152 70 -247t229 -95q47 0 102.5 11t129.5 36l129 43l41 -82q-41 -31 -92.5 -56.5t-106.5 -46t-112.5 -31.5t-108.5 -11 q-96 0 -176 33.5t-138.5 94t-90 145.5t-31.5 189zM242 582h589q0 135 -67.5 215t-194.5 80q-131 0 -215 -83t-112 -212zM281 1169l278 263q12 12 22.5 16t28.5 4h39q20 0 27.5 -2t17.5 -16l219 -265l-69 -59l-226 209h-6l-276 -209z" />
<glyph unicode="&#xeb;" horiz-adv-x="1060" d="M70 446q0 119 41 223.5t110.5 181.5t162.5 121t196 44q90 0 163.5 -34t126 -93.5t81 -138t28.5 -166.5q0 -74 -17.5 -97.5t-52.5 -23.5h-684q-2 -152 70 -247t229 -95q47 0 102.5 11t129.5 36l129 43l41 -82q-41 -31 -92.5 -56.5t-106.5 -46t-112.5 -31.5t-108.5 -11 q-96 0 -176 33.5t-138.5 94t-90 145.5t-31.5 189zM242 582h589q0 135 -67.5 215t-194.5 80q-131 0 -215 -83t-112 -212zM334 1167l22 185h144q16 0 23 -5.5t7 -21.5v-6q0 -4 -1 -8t-1 -11l-16 -133h-178zM688 1167l23 185h143q16 0 23.5 -5.5t7.5 -21.5v-6q0 -4 -1 -8 t-1 -11l-17 -133h-178z" />
<glyph unicode="&#xec;" horiz-adv-x="434" d="M63 1343l86 111q6 8 12.5 11t18.5 -7l336 -284l-59 -72zM82 0l117 999h155l-116 -999h-156z" />
<glyph unicode="&#xed;" horiz-adv-x="434" d="M82 0l117 999h155l-116 -999h-156zM84 1174l402 284q20 14 30 -4l64 -111l-453 -241z" />
<glyph unicode="&#xee;" horiz-adv-x="434" d="M-20 1169l278 263q12 12 22.5 16t28.5 4h39q20 0 27.5 -2t17.5 -16l219 -265l-69 -59l-226 209h-6l-276 -209zM82 0l117 999h155l-116 -999h-156z" />
<glyph unicode="&#xef;" horiz-adv-x="434" d="M29 1167l22 185h144q16 0 23 -5.5t7 -21.5v-6q0 -4 -1 -8t-1 -11l-16 -133h-178zM82 0l117 999h155l-116 -999h-156zM383 1167l23 185h143q16 0 23.5 -5.5t7.5 -21.5v-6q0 -4 -1 -8t-1 -11l-17 -133h-178z" />
<glyph unicode="&#xf0;" horiz-adv-x="1095" d="M70 440q0 111 37.5 205t104.5 161.5t155 106.5t188 39q72 0 145.5 -24.5t147.5 -65.5q-10 88 -58.5 179.5t-113.5 152.5l-264 -121l-50 96l226 105q-43 35 -96.5 68.5t-108.5 66.5l53 80q152 -63 275 -160l256 115l49 -96l-213 -97q211 -225 211 -557q0 -158 -39 -289 t-108.5 -225t-165 -145t-207.5 -51q-96 0 -175 35.5t-134.5 97t-85 144.5t-29.5 179zM221 449q0 -68 17.5 -128.5t51.5 -104.5t85 -70.5t121 -26.5q74 0 141.5 34.5t118.5 105.5t80.5 177.5t29.5 249.5q0 29 -8 42t-24 26q-39 29 -109.5 48t-144.5 19q-92 0 -160 -28.5 t-112 -77.5t-65.5 -118t-21.5 -148z" />
<glyph unicode="&#xf1;" horiz-adv-x="1095" d="M78 0l117 999h112l19 -90l59 31q66 35 136.5 55.5t137.5 20.5q70 0 130.5 -21.5t105.5 -61.5t69.5 -94.5t24.5 -121.5q0 -27 -4 -63t-8 -76l-68 -578h-155l69 594q4 25 7.5 56.5t3.5 51.5q0 166 -213 166q-111 0 -240 -45q-41 -14 -47 -20t-10 -27l-91 -776h-155z M323 1184q33 86 87 139t126 53q35 0 69 -14t64.5 -30.5t61 -31t59.5 -14.5q31 0 60.5 21.5t60.5 70.5l78 -24q-33 -86 -87 -139.5t-126 -53.5q-35 0 -69 14.5t-64.5 31t-61.5 30.5t-59 14q-29 0 -59.5 -21.5t-61.5 -70.5z" />
<glyph unicode="&#xf2;" horiz-adv-x="1077" d="M70 436q0 119 40 225.5t108.5 184.5t161.5 124t200 46q90 0 167.5 -34t136 -93.5t91.5 -143.5t33 -182q0 -121 -40 -226.5t-110 -183t-162 -123.5t-198 -46q-90 0 -168 33.5t-136.5 93t-91 143.5t-32.5 182zM225 449q0 -68 17.5 -126.5t52.5 -102.5t87 -68.5t122 -24.5 q82 0 146.5 34t109.5 91t68.5 135t23.5 164q0 68 -17.5 126t-52 102t-87 68.5t-122.5 24.5q-82 0 -146.5 -33.5t-109.5 -91t-68.5 -135t-23.5 -163.5zM385 1343l86 111q6 8 12.5 11t18.5 -7l336 -284l-59 -72z" />
<glyph unicode="&#xf3;" horiz-adv-x="1077" d="M70 436q0 119 40 225.5t108.5 184.5t161.5 124t200 46q90 0 167.5 -34t136 -93.5t91.5 -143.5t33 -182q0 -121 -40 -226.5t-110 -183t-162 -123.5t-198 -46q-90 0 -168 33.5t-136.5 93t-91 143.5t-32.5 182zM225 449q0 -68 17.5 -126.5t52.5 -102.5t87 -68.5t122 -24.5 q82 0 146.5 34t109.5 91t68.5 135t23.5 164q0 68 -17.5 126t-52 102t-87 68.5t-122.5 24.5q-82 0 -146.5 -33.5t-109.5 -91t-68.5 -135t-23.5 -163.5zM401 1174l402 284q20 14 30 -4l64 -111l-453 -241z" />
<glyph unicode="&#xf4;" horiz-adv-x="1077" d="M70 436q0 119 40 225.5t108.5 184.5t161.5 124t200 46q90 0 167.5 -34t136 -93.5t91.5 -143.5t33 -182q0 -121 -40 -226.5t-110 -183t-162 -123.5t-198 -46q-90 0 -168 33.5t-136.5 93t-91 143.5t-32.5 182zM225 449q0 -68 17.5 -126.5t52.5 -102.5t87 -68.5t122 -24.5 q82 0 146.5 34t109.5 91t68.5 135t23.5 164q0 68 -17.5 126t-52 102t-87 68.5t-122.5 24.5q-82 0 -146.5 -33.5t-109.5 -91t-68.5 -135t-23.5 -163.5zM291 1169l278 263q12 12 22.5 16t28.5 4h39q20 0 27.5 -2t17.5 -16l219 -265l-69 -59l-226 209h-6l-276 -209z" />
<glyph unicode="&#xf5;" horiz-adv-x="1077" d="M70 436q0 119 40 225.5t108.5 184.5t161.5 124t200 46q90 0 167.5 -34t136 -93.5t91.5 -143.5t33 -182q0 -121 -40 -226.5t-110 -183t-162 -123.5t-198 -46q-90 0 -168 33.5t-136.5 93t-91 143.5t-32.5 182zM225 449q0 -68 17.5 -126.5t52.5 -102.5t87 -68.5t122 -24.5 q82 0 146.5 34t109.5 91t68.5 135t23.5 164q0 68 -17.5 126t-52 102t-87 68.5t-122.5 24.5q-82 0 -146.5 -33.5t-109.5 -91t-68.5 -135t-23.5 -163.5zM293 1184q33 86 87 139t126 53q35 0 69 -14t64.5 -30.5t61 -31t59.5 -14.5q31 0 60.5 21.5t60.5 70.5l78 -24 q-33 -86 -87 -139.5t-126 -53.5q-35 0 -69 14.5t-64.5 31t-61.5 30.5t-59 14q-29 0 -59.5 -21.5t-61.5 -70.5z" />
<glyph unicode="&#xf6;" horiz-adv-x="1077" d="M70 436q0 119 40 225.5t108.5 184.5t161.5 124t200 46q90 0 167.5 -34t136 -93.5t91.5 -143.5t33 -182q0 -121 -40 -226.5t-110 -183t-162 -123.5t-198 -46q-90 0 -168 33.5t-136.5 93t-91 143.5t-32.5 182zM225 449q0 -68 17.5 -126.5t52.5 -102.5t87 -68.5t122 -24.5 q82 0 146.5 34t109.5 91t68.5 135t23.5 164q0 68 -17.5 126t-52 102t-87 68.5t-122.5 24.5q-82 0 -146.5 -33.5t-109.5 -91t-68.5 -135t-23.5 -163.5zM346 1167l22 185h144q16 0 23 -5.5t7 -21.5v-6q0 -4 -1 -8t-1 -11l-16 -133h-178zM700 1167l23 185h143q16 0 23.5 -5.5 t7.5 -21.5v-6q0 -4 -1 -8t-1 -11l-17 -133h-178z" />
<glyph unicode="&#xf7;" horiz-adv-x="1046" d="M147 440l15 125h735l-14 -125h-736zM387 92q4 45 9 89t12 87h139q29 0 28 -18v-8l-16 -150h-172zM463 737l22 176h140q29 0 28 -20v-8l-18 -148h-172z" />
<glyph unicode="&#xf8;" horiz-adv-x="1077" d="M29 -55l149 184q-51 59 -79.5 136t-28.5 171q0 119 40 224.5t108.5 184.5t160.5 125t199 46q68 0 128 -19.5t111 -54.5l146 182l90 -67l-150 -191q47 -59 76 -135t29 -168q0 -119 -40 -224.5t-110 -184t-162 -124.5t-198 -46q-68 0 -127.5 18t-108.5 51l-143 -176z M225 449q0 -115 47 -197l457 575q-68 45 -158 45q-80 0 -143 -33.5t-108.5 -92t-70 -135t-24.5 -162.5zM352 168q64 -41 152 -41q80 0 144.5 33t109.5 90t69.5 135t24.5 166q0 47 -10.5 100.5t-34.5 93.5z" />
<glyph unicode="&#xf9;" horiz-adv-x="1083" d="M98 283q0 27 4 62.5t9 76.5l67 577h156l-70 -593q-4 -25 -7 -57t-3 -52q0 -168 211 -168q53 0 110.5 12.5t122.5 34.5l29 10q16 6 21.5 13.5t7.5 23.5l90 776h155l-116 -999h-113l-18 90l-60 -31q-66 -35 -133 -55t-135 -20q-72 0 -131 21.5t-103.5 61t-69 94 t-24.5 122.5zM338 1343l86 111q6 8 12.5 11t18.5 -7l336 -284l-59 -72z" />
<glyph unicode="&#xfa;" horiz-adv-x="1083" d="M98 283q0 27 4 62.5t9 76.5l67 577h156l-70 -593q-4 -25 -7 -57t-3 -52q0 -168 211 -168q53 0 110.5 12.5t122.5 34.5l29 10q16 6 21.5 13.5t7.5 23.5l90 776h155l-116 -999h-113l-18 90l-60 -31q-66 -35 -133 -55t-135 -20q-72 0 -131 21.5t-103.5 61t-69 94 t-24.5 122.5zM432 1174l402 284q20 14 30 -4l64 -111l-453 -241z" />
<glyph unicode="&#xfb;" horiz-adv-x="1083" d="M98 283q0 27 4 62.5t9 76.5l67 577h156l-70 -593q-4 -25 -7 -57t-3 -52q0 -168 211 -168q53 0 110.5 12.5t122.5 34.5l29 10q16 6 21.5 13.5t7.5 23.5l90 776h155l-116 -999h-113l-18 90l-60 -31q-66 -35 -133 -55t-135 -20q-72 0 -131 21.5t-103.5 61t-69 94 t-24.5 122.5zM289 1169l278 263q12 12 22.5 16t28.5 4h39q20 0 27.5 -2t17.5 -16l219 -265l-69 -59l-226 209h-6l-276 -209z" />
<glyph unicode="&#xfc;" horiz-adv-x="1083" d="M98 283q0 27 4 62.5t9 76.5l67 577h156l-70 -593q-4 -25 -7 -57t-3 -52q0 -168 211 -168q53 0 110.5 12.5t122.5 34.5l29 10q16 6 21.5 13.5t7.5 23.5l90 776h155l-116 -999h-113l-18 90l-60 -31q-66 -35 -133 -55t-135 -20q-72 0 -131 21.5t-103.5 61t-69 94 t-24.5 122.5zM336 1167l22 185h144q16 0 23 -5.5t7 -21.5v-6q0 -4 -1 -8t-1 -11l-16 -133h-178zM690 1167l23 185h143q16 0 23.5 -5.5t7.5 -21.5v-6q0 -4 -1 -8t-1 -11l-17 -133h-178z" />
<glyph unicode="&#xfd;" horiz-adv-x="974" d="M45 999h143q20 0 27 -18l150 -530q10 -37 21 -81t22.5 -86t19.5 -79t14 -64q10 25 26.5 61t37 76.5t41 85t41.5 85.5l266 532q6 10 11 14t20 4h137l-762 -1480l-137 49l227 422zM375 1174l402 284q20 14 30 -4l64 -111l-453 -241z" />
<glyph unicode="&#xfe;" horiz-adv-x="1083" d="M20 -469l228 1921h155l-65 -553l49 31q137 86 266 86q82 0 148.5 -34t114 -92.5t73 -139t25.5 -175.5q0 -127 -37 -234.5t-100.5 -187t-149.5 -124.5t-186 -45q-66 0 -127.5 19.5t-132.5 59.5l-39 23l-66 -555h-156zM260 236q-2 -16 2 -24.5t21 -18.5q53 -33 119.5 -51.5 t125.5 -18.5q154 0 242 119.5t88 330.5q0 143 -55 223.5t-185 80.5q-63 0 -139 -26t-127 -58q-16 -10 -23 -19.5t-10 -28.5z" />
<glyph unicode="&#xff;" horiz-adv-x="974" d="M45 999h143q20 0 27 -18l150 -530q10 -37 21 -81t22.5 -86t19.5 -79t14 -64q10 25 26.5 61t37 76.5t41 85t41.5 85.5l266 532q6 10 11 14t20 4h137l-762 -1480l-137 49l227 422zM275 1167l22 185h144q16 0 23 -5.5t7 -21.5v-6q0 -4 -1 -8t-1 -11l-16 -133h-178zM629 1167 l23 185h143q16 0 23.5 -5.5t7.5 -21.5v-6q0 -4 -1 -8t-1 -11l-17 -133h-178z" />
<glyph unicode="&#x2c6;" horiz-adv-x="778" d="M152 1169l278 263q12 12 22.5 16t28.5 4h39q20 0 27.5 -2t17.5 -16l219 -265l-69 -59l-226 209h-6l-276 -209z" />
<glyph unicode="&#x2da;" horiz-adv-x="778" d="M256 1325q0 47 17.5 89t48 73t72.5 49t89 18q94 0 150.5 -59t56.5 -143q0 -47 -17.5 -89t-48 -73t-72.5 -49.5t-89 -18.5t-85 16.5t-64.5 44t-42 64.5t-15.5 78zM360 1331q0 -41 27 -74.5t80 -33.5q49 0 85 32t36 91q0 41 -28 74.5t-81 33.5q-49 0 -84 -31.5t-35 -91.5z " />
<glyph unicode="&#x2dc;" horiz-adv-x="778" d="M135 1184q33 86 87 139t126 53q35 0 69 -14t64.5 -30.5t61 -31t59.5 -14.5q31 0 60.5 21.5t60.5 70.5l78 -24q-33 -86 -87 -139.5t-126 -53.5q-35 0 -69 14.5t-64.5 31t-61.5 30.5t-59 14q-29 0 -59.5 -21.5t-61.5 -70.5z" />
<glyph unicode="&#x2000;" horiz-adv-x="922" />
<glyph unicode="&#x2001;" horiz-adv-x="1844" />
<glyph unicode="&#x2002;" horiz-adv-x="922" />
<glyph unicode="&#x2003;" horiz-adv-x="1844" />
<glyph unicode="&#x2004;" horiz-adv-x="614" />
<glyph unicode="&#x2005;" horiz-adv-x="461" />
<glyph unicode="&#x2006;" horiz-adv-x="307" />
<glyph unicode="&#x2007;" horiz-adv-x="307" />
<glyph unicode="&#x2008;" horiz-adv-x="230" />
<glyph unicode="&#x2009;" horiz-adv-x="368" />
<glyph unicode="&#x200a;" horiz-adv-x="102" />
<glyph unicode="&#x2010;" horiz-adv-x="804" d="M104 436l17 127h579l-16 -127h-580z" />
<glyph unicode="&#x2011;" horiz-adv-x="804" d="M104 436l17 127h579l-16 -127h-580z" />
<glyph unicode="&#x2012;" horiz-adv-x="804" d="M104 436l17 127h579l-16 -127h-580z" />
<glyph unicode="&#x2013;" horiz-adv-x="1208" d="M104 436l17 127h983l-17 -127h-983z" />
<glyph unicode="&#x2014;" horiz-adv-x="2191" d="M104 436l17 127h1966l-16 -127h-1967z" />
<glyph unicode="&#x2018;" horiz-adv-x="417" d="M154 903l12 113q4 41 14 73.5t36 69.5t70 83t113 116l47 -39l-141 -227q-8 -10 -7 -15.5t7 -11.5l27 -27q10 -10 11 -17t-1 -28l-12 -121h-148q-18 0 -24 6.5t-4 24.5z" />
<glyph unicode="&#x2019;" horiz-adv-x="417" d="M115 911l141 228q8 10 7 15t-7 11l-27 27q-10 10 -11 17.5t1 27.5l12 121h148q18 0 24.5 -6t4.5 -25l-13 -113q-4 -41 -14 -73.5t-36 -69.5t-70 -83t-113 -116z" />
<glyph unicode="&#x201a;" horiz-adv-x="409" d="M-53 -315l141 227q8 10 7 15t-7 12l-27 26q-10 10 -11 17.5t1 27.5l12 121h148q18 0 24.5 -6t4.5 -25l-13 -112q-4 -41 -14 -74t-35.5 -70t-70 -83t-113.5 -115z" />
<glyph unicode="&#x201c;" horiz-adv-x="724" d="M154 903l12 113q4 41 14 73.5t36 69.5t70 83t113 116l47 -39l-141 -227q-8 -10 -7 -15.5t7 -11.5l27 -27q10 -10 11 -17t-1 -28l-12 -121h-148q-18 0 -24 6.5t-4 24.5zM461 903l12 113q4 41 14.5 73.5t36 69.5t69.5 83t114 116l47 -39l-142 -227q-8 -10 -7 -15.5t7 -11.5 l27 -27q10 -10 11 -17t-1 -28l-12 -121h-148q-18 0 -24 6.5t-4 24.5z" />
<glyph unicode="&#x201d;" horiz-adv-x="724" d="M115 911l141 228q8 10 7 15t-7 11l-27 27q-10 10 -11 17.5t1 27.5l12 121h148q18 0 24.5 -6t4.5 -25l-13 -113q-4 -41 -14 -73.5t-36 -69.5t-70 -83t-113 -116zM422 911l141 228q8 10 7 15t-7 11l-26 27q-10 10 -11.5 17.5t0.5 27.5l13 121h147q18 0 24.5 -6t4.5 -25 l-13 -113q-4 -41 -14 -73.5t-35.5 -69.5t-69.5 -83t-114 -116z" />
<glyph unicode="&#x201e;" horiz-adv-x="716" d="M-53 -315l141 227q8 10 7 15t-7 12l-27 26q-10 10 -11 17.5t1 27.5l12 121h148q18 0 24.5 -6t4.5 -25l-13 -112q-4 -41 -14 -74t-35.5 -70t-70 -83t-113.5 -115zM254 -315l141 227q8 10 7 15t-7 12l-26 26q-10 10 -11.5 17.5t0.5 27.5l13 121h147q18 0 24.5 -6t4.5 -25 l-12 -112q-4 -41 -14.5 -74t-36 -70t-69.5 -83t-114 -115z" />
<glyph unicode="&#x2020;" horiz-adv-x="1077" d="M106 709l15 133h31q43 0 71.5 -1t64.5 -3t89 -6.5t147 -12.5q2 84 4 160t15 176l24 203h142l-23 -193q-10 -86 -24.5 -171t-34.5 -175q66 4 133 10q57 4 122.5 8.5t118.5 4.5h33l-16 -133h-39q-35 0 -82 2t-98 5t-99.5 7t-85.5 8q-2 -82 -7 -177t-17 -198l-37 -319 q-14 -119 -37.5 -244t-54.5 -262h-78q4 141 9 266t22 250l37 318q6 57 12 96t13 78t16.5 83t21.5 109q-98 -10 -194.5 -16t-182.5 -6h-31z" />
<glyph unicode="&#x2021;" horiz-adv-x="1073" d="M25 51l16 135h39q39 0 78 -2t82 -5t93 -7t109 -10q2 74 7.5 142.5t13.5 137t19.5 138t25.5 147.5q-98 -10 -194.5 -16t-182.5 -6h-31l17 137h30q43 0 72 -1t64.5 -3t89 -6.5t147.5 -12.5q2 78 5 162t14 174l24 203h142l-23 -193q-10 -80 -24.5 -168t-34.5 -178 q66 4 133 10q57 4 122.5 8.5t118.5 4.5h33l-16 -137h-41q-35 0 -82 2t-98.5 5t-99.5 7t-85 8l-8 -188q-4 -98 -20.5 -194.5t-34.5 -182.5q84 8 167 16t156 8h84l-16 -135h-39q-35 0 -78 1t-91 4t-98 6.5t-95 9.5q-4 -115 -9.5 -212.5t-21.5 -219.5l-15 -109h-141l19 139 q12 100 29.5 200.5t35.5 201.5q-98 -10 -190 -15.5t-179 -5.5h-38z" />
<glyph unicode="&#x2022;" horiz-adv-x="679" d="M135 383l45 383h336q27 0 35 -9t4 -32l-41 -342h-379z" />
<glyph unicode="&#x2026;" horiz-adv-x="1204" d="M53 0l21 186h145q20 0 25.5 -7t3.5 -23l-17 -156h-178zM455 0l20 186h146q20 0 25 -7t3 -23l-16 -156h-178zM856 0l21 186h145q20 0 25.5 -7t3.5 -23l-17 -156h-178z" />
<glyph unicode="&#x202f;" horiz-adv-x="368" />
<glyph unicode="&#x2030;" horiz-adv-x="2514" d="M172 999q0 76 27.5 144.5t76 121t114 83t140.5 30.5q68 0 124.5 -24.5t97.5 -67.5t64.5 -103.5t23.5 -131.5q0 -76 -28 -143.5t-76 -120t-113.5 -83t-141.5 -30.5q-68 0 -124 24.5t-97 67.5t-64.5 102t-23.5 131zM303 1004q0 -90 50 -145.5t130 -55.5q57 0 99.5 21.5 t70 56t42 79t14.5 89.5q0 88 -50.5 144t-130.5 56q-57 0 -99 -21.5t-69.5 -56t-42 -78.5t-14.5 -89zM432 0l807 1358h150l-807 -1358h-150zM981 305q0 76 27.5 144.5t76 121t114 83t140.5 30.5q68 0 124.5 -24.5t97.5 -67.5t64.5 -103.5t23.5 -132.5q0 -76 -28 -143.5 t-76 -119.5t-113.5 -82.5t-141.5 -30.5q-68 0 -124 24.5t-97 67.5t-64.5 102t-23.5 131zM1112 309q0 -90 50 -145t130 -55q57 0 99.5 21.5t70 56t42 78.5t14.5 89q0 88 -50.5 144.5t-130.5 56.5q-57 0 -99 -21.5t-69.5 -56.5t-42 -79t-14.5 -89zM1720 305q0 76 28 144.5 t76 121t113.5 83t141.5 30.5q68 0 124 -24.5t97 -67.5t64.5 -103.5t23.5 -132.5q0 -76 -27.5 -143.5t-76 -119.5t-114 -82.5t-140.5 -30.5q-68 0 -124.5 24.5t-97.5 67.5t-64.5 102t-23.5 131zM1851 309q0 -90 50.5 -145t130.5 -55q57 0 99 21.5t69.5 56t42 78.5t14.5 89 q0 88 -50 144.5t-130 56.5q-57 0 -99.5 -21.5t-70 -56.5t-42 -79t-14.5 -89z" />
<glyph unicode="&#x2039;" horiz-adv-x="698" d="M115 451.5q-2 7.5 0 19.5l10 84l453 346l61 -67l-365 -330v-2l285 -330l-76 -70l-352 330q-14 12 -16 19.5z" />
<glyph unicode="&#x203a;" horiz-adv-x="698" d="M59 170l365 330v2l-285 329l76 70l352 -330q14 -12 16.5 -19t0.5 -20l-11 -83l-452 -347z" />
<glyph unicode="&#x2044;" horiz-adv-x="716" d="M-94 0l807 1358h149l-807 -1358h-149z" />
<glyph unicode="&#x205f;" horiz-adv-x="461" />
<glyph unicode="&#x20ac;" d="M90 492l10 86l148 16q2 39 5 70.5t9 72.5h-143l10 84l152 19q27 102 76 199.5t119.5 172t161.5 120.5t200 46q68 0 126 -21.5t107 -59t86 -88t60 -107.5l-91 -58l-96 93q-59 55 -103 80.5t-104 25.5q-74 0 -136 -33.5t-112.5 -90t-85 -128t-53.5 -147.5h420l-12 -107 h-426q-4 -23 -9.5 -65.5t-5.5 -71.5h424l-12 -108h-414q6 -174 88 -275.5t236 -101.5q100 0 254 59l108 43l46 -78q-92 -74 -208 -116.5t-227 -42.5q-102 0 -184 36.5t-140.5 104t-91 162t-36.5 209.5h-156z" />
<glyph unicode="&#x2122;" horiz-adv-x="1380" d="M127 1264l12 94h500l-12 -94h-195l-63 -535h-109l64 535h-197zM655 729l76 629h64q16 0 24 -12l195 -310l256 310q10 12 30 12h66l-76 -629h-100l53 453l-201 -242h-57q-12 0 -17 2t-12 12l-147 228l-53 -453h-101z" />
<glyph unicode="&#x25fc;" horiz-adv-x="1003" d="M0 0v1004h1004v-1004h-1004z" />
</font>
</defs>
</svg>
