<?xml version="1.0" standalone="no"?>
<!DOCTYPE svg PUBLIC "-//W3C//DTD SVG 1.1//EN" "http://www.w3.org/Graphics/SVG/1.1/DTD/svg11.dtd" >
<svg xmlns="http://www.w3.org/2000/svg" xmlns:xlink="http://www.w3.org/1999/xlink" version="1.1">
<metadata></metadata>
<defs>
<font id="fs_emeric_webbook" horiz-adv-x="1245" >
<font-face units-per-em="2048" ascent="1497" descent="-551" />
<missing-glyph horiz-adv-x="475" />
<glyph horiz-adv-x="0" />
<glyph horiz-adv-x="0" />
<glyph unicode="&#xd;" horiz-adv-x="475" />
<glyph unicode=" "  horiz-adv-x="475" />
<glyph unicode="&#x09;" horiz-adv-x="475" />
<glyph unicode="&#xa0;" horiz-adv-x="475" />
<glyph unicode="!" horiz-adv-x="499" d="M160 0v180h145q23 0 29 -6t6 -24v-150h-180zM172 860v498h156v-498q0 -53 -3 -117.5t-10 -132.5l-24 -260h-82l-25 260q-6 68 -9 132.5t-3 117.5z" />
<glyph unicode="&#x22;" horiz-adv-x="790" d="M152 1276v82h163v-82q0 -47 -2 -93t-10 -118l-24 -231h-91l-24 231q-8 72 -10 118t-2 93zM475 1276v82h164v-82q0 -47 -2 -93t-10 -118l-25 -231h-90l-25 231q-8 72 -10 118t-2 93z" />
<glyph unicode="#" d="M121 391v127h201l57 320h-258v127h280l70 393h135l-69 -393h270l70 393h135l-70 -393h182v-127h-204l-58 -320h262v-127h-284l-68 -391h-135l68 391h-271l-67 -391h-136l68 391h-178zM457 518h270l57 320h-270z" />
<glyph unicode="$" d="M135 109l43 92l129 -33q76 -20 146.5 -32.5t130.5 -14.5v547l-54 18q-90 31 -160.5 66.5t-117.5 81.5q-45 43 -68.5 96t-23.5 125q0 74 31.5 132t88 99t134.5 63.5t170 26.5l20 205h86v-205q88 -6 179.5 -26.5t168.5 -51.5l-26 -100l-125 16q-113 14 -197 19v-447l29 -10 q96 -33 171 -70.5t124 -91.5q41 -45 63.5 -102t22.5 -135q0 -86 -31 -154.5t-85 -119t-130 -81t-164 -38.5l-20 -209h-86v205q-57 2 -119 13t-120 27.5t-112.5 39t-97.5 49.5zM309 1053q0 -78 63.5 -128.5t211.5 -101.5v410q-129 -4 -202 -46t-73 -134zM690 125 q129 16 192.5 84t63.5 168q0 49 -13 85t-44 64.5t-80 54t-119 50.5v-506z" />
<glyph unicode="%" horiz-adv-x="1822" d="M98 1026q0 76 27 141.5t74 111.5t109.5 72.5t133.5 26.5q72 0 134.5 -26.5t109.5 -72.5t73.5 -111.5t26.5 -141.5q0 -78 -26.5 -142.5t-73.5 -110.5t-109.5 -72.5t-134.5 -26.5t-134 26.5t-109 72.5t-74 110.5t-27 142.5zM231 1026q0 -115 58.5 -170t152.5 -55t152.5 55 t58.5 170t-58 170t-153 55q-94 0 -152.5 -55t-58.5 -170zM502 0l674 1358h143l-672 -1358h-145zM1036 332q0 76 27 141.5t74 111.5t109.5 72.5t133.5 26.5q72 0 134.5 -26.5t109.5 -72.5t73.5 -111.5t26.5 -141.5q0 -78 -26.5 -142.5t-73.5 -110.5t-109.5 -72.5 t-134.5 -26.5t-134 26.5t-109 72.5t-74 110.5t-27 142.5zM1169 332q0 -115 58.5 -170.5t152.5 -55.5t152.5 55.5t58.5 170.5t-58 170t-153 55q-94 0 -152.5 -55.5t-58.5 -169.5z" />
<glyph unicode="&#x26;" horiz-adv-x="1505" d="M70 436q0 131 84 225.5t217 172.5q-35 51 -56.5 103t-21.5 112q0 76 30.5 137t82 104t117 65.5t134.5 22.5q68 0 130.5 -22.5t109.5 -64.5t75.5 -100t28.5 -130q0 -104 -71.5 -200.5t-212.5 -192.5l311 -318q41 57 87 138t87 169l70 152l104 -27q-47 -154 -113.5 -285.5 t-142.5 -240.5l129 -131l178 -25v-69q-29 -14 -69.5 -25.5t-75.5 -11.5q-53 0 -94 19.5t-92 72.5l-66 66q-86 -82 -198.5 -127t-241.5 -45q-109 0 -203 35.5t-164.5 98t-111.5 145.5t-41 177zM225 446q0 -68 25.5 -128t75 -104t119 -69.5t157.5 -25.5q92 0 183.5 32.5 t152.5 94.5l-504 512l-16 -13q-96 -72 -144.5 -140t-48.5 -159zM432 1057q0 -31 10.5 -61.5t32 -63.5t55 -71t80.5 -85l41 -41l86 82q66 61 97.5 119.5t31.5 126.5q0 80 -60.5 132t-156.5 52t-156.5 -53t-60.5 -137z" />
<glyph unicode="'" horiz-adv-x="466" d="M152 1276v82h163v-82q0 -47 -2 -93t-10 -118l-24 -231h-91l-24 231q-8 72 -10 118t-2 93z" />
<glyph unicode="(" horiz-adv-x="638" d="M139 444q0 285 111.5 518.5t316.5 415.5l78 -65q-184 -195 -265 -417.5t-81 -451.5t81 -451t265 -419l-78 -66q-205 184 -316.5 417t-111.5 519z" />
<glyph unicode=")" horiz-adv-x="638" d="M-6 -426q184 197 265 419t81 451t-81 451.5t-265 417.5l78 65q205 -182 316.5 -415.5t111.5 -518.5q0 -287 -112 -519t-316 -417z" />
<glyph unicode="*" horiz-adv-x="874" d="M86 1057l37 98q6 16 14 20.5t29 -6.5l233 -125l-30 314h114q18 0 23.5 -6t3.5 -23l-29 -285l264 134l39 -97q8 -18 1 -25t-23 -12l-252 -71l223 -242l-96 -61q-25 -16 -43 10l-154 246l-172 -271l-96 60q-16 10 -16 19t14 24l199 215z" />
<glyph unicode="+" horiz-adv-x="1081" d="M160 440v125h317v318h125v-318h320v-125h-320v-319h-125v319h-317z" />
<glyph unicode="," horiz-adv-x="440" d="M57 -260l125 229q8 16 -4 27l-18 14q-18 14 -24.5 25.5t-6.5 34.5v118h150q23 0 29.5 -6t6.5 -24v-97q0 -41 -9 -77.5t-31.5 -76.5t-61.5 -89t-98 -115z" />
<glyph unicode="-" horiz-adv-x="858" d="M127 436v127h604v-127h-604z" />
<glyph unicode="." horiz-adv-x="440" d="M129 0v188h145q23 0 30 -6t7 -24v-158h-182z" />
<glyph unicode="/" horiz-adv-x="903" d="M33 0l686 1358h151l-686 -1358h-151z" />
<glyph unicode="0" d="M104 678q0 147 35 275t101.5 222.5t163 148.5t219.5 54t219 -54t162.5 -148.5t101.5 -222.5t35 -275t-35 -275.5t-101.5 -222.5t-163 -147t-218.5 -53q-123 0 -219.5 53t-163 147t-101.5 222t-35 276zM266 678q0 -123 21.5 -225.5t65.5 -175t110.5 -112.5t159.5 -40 q92 0 158.5 40t110.5 112.5t65.5 175t21.5 225.5t-21.5 225.5t-65.5 176t-110.5 113.5t-158.5 40t-159 -40t-111 -113.5t-65.5 -176t-21.5 -225.5z" />
<glyph unicode="1" d="M205 1149l407 192q20 10 33.5 13.5t40.5 3.5h78v-1233h317v-125h-839v125h368v1069q-27 -16 -81 -40t-119 -48l-156 -57z" />
<glyph unicode="2" d="M160 1225q113 72 226.5 112.5t229.5 40.5q88 0 164 -25.5t132.5 -74.5t88 -117.5t31.5 -154.5q0 -70 -19.5 -130.5t-59.5 -122t-103.5 -131t-149.5 -155.5l-333 -336h700v-131h-889v84q0 16 3 25.5t20 25.5l405 430q72 76 123 135.5t83 109.5t46 95t14 96 q0 115 -71.5 175.5t-192.5 60.5q-66 0 -135.5 -16.5t-146.5 -44.5l-115 -43z" />
<glyph unicode="3" d="M102 150l54 90l166 -60q66 -23 144.5 -41t149.5 -18q154 0 235 80t81 205q0 113 -55 167q-31 31 -79 44.5t-126 13.5h-137q-27 0 -27 22v101h199q41 0 65.5 10t44.5 37q29 37 47.5 90t18.5 113q0 119 -70 176t-192 57q-78 0 -149 -16.5t-155 -46.5l-104 -39l-51 92 q119 72 236.5 111.5t230.5 39.5q92 0 167.5 -25.5t129 -71.5t82 -108.5t28.5 -134.5q0 -92 -40 -176t-105 -147q203 -78 203 -307q0 -92 -34 -170t-95.5 -135.5t-147.5 -90t-190 -32.5q-152 0 -283 49t-242 121z" />
<glyph unicode="4" d="M90 352v88q0 16 3 26.5t18 29.5l663 839q12 16 20.5 19.5t24.5 3.5h131v-881h203v-125h-203v-352h-153v352h-707zM252 477h545v690q-6 -8 -22.5 -31.5t-38 -52t-45 -58.5t-40.5 -50l-264 -338q-31 -41 -71 -87t-64 -73z" />
<glyph unicode="5" d="M137 141l51 90l107 -38q90 -33 168 -52.5t153 -19.5q156 0 236 82t80 225q0 137 -85 202.5t-231 65.5q-72 0 -150.5 -17t-137.5 -38q-12 -4 -20.5 -3t-24.5 9l-52 31q-12 8 -15 14t-3 23v643h778v-131h-635v-234q0 -66 -2 -128t-6 -101q70 29 155 45t156 16 q92 0 171 -28.5t137.5 -81.5t91.5 -127t33 -166q0 -90 -30 -170t-89.5 -140.5t-146.5 -96t-199 -35.5q-125 0 -254 46t-236 115z" />
<glyph unicode="6" d="M139 623v10q0 166 45 303t125 235.5t189.5 152.5t238.5 54q82 0 160 -21.5t147 -56.5l-36 -94q-72 18 -137.5 28.5t-118.5 10.5q-109 0 -190 -37t-138 -104.5t-89 -163.5t-40 -213l49 23q94 43 183 69.5t173 26.5q90 0 168 -27.5t136.5 -81t92 -129.5t33.5 -170 q0 -104 -38.5 -188t-103 -144.5t-148.5 -93t-174 -32.5q-123 0 -220.5 49t-165 135t-104.5 203.5t-37 255.5zM295 565q0 -90 24.5 -171t71.5 -142.5t115.5 -98t157.5 -36.5q72 0 130 23.5t99 64.5t63.5 99t22.5 130q0 279 -311 279q-86 0 -176.5 -24.5t-163.5 -61.5 q-20 -10 -26.5 -18.5t-6.5 -35.5v-8z" />
<glyph unicode="7" d="M135 1225v133h979v-80q0 -16 -2 -29.5t-12 -31.5l-330 -560q-66 -111 -105.5 -193.5t-63 -156.5t-34 -146.5t-14.5 -160.5h-156q4 92 13.5 165t31 142.5t56 142t88.5 164.5l198 338q41 72 87.5 144.5t84.5 128.5h-821z" />
<glyph unicode="8" d="M111 387q0 57 19.5 111.5t53 101.5t77.5 87t93 73q-76 49 -124 114.5t-48 161.5q0 82 39 145.5t102.5 107.5t143.5 66.5t162 22.5q88 0 169 -24.5t143.5 -69.5t99 -108.5t36.5 -141.5q0 -94 -56 -179t-149 -159q53 -25 100.5 -54.5t82.5 -68t55 -88t20 -110.5 q0 -80 -37.5 -152.5t-106 -126t-162 -85t-203.5 -31.5q-102 0 -195.5 29.5t-163 82.5t-110.5 129t-41 166zM264 397q0 -59 24.5 -109t71 -89t114 -60.5t153.5 -21.5q76 0 140 19.5t111.5 54t74 81t26.5 99.5q0 49 -22.5 88t-66.5 70.5t-107.5 59t-145.5 56.5l-148 53 q-18 6 -29 4t-28 -14q-72 -59 -120 -131t-48 -160zM328 1036q0 -86 73.5 -140t190.5 -95l131 -47q23 -8 32 -6t21 12q27 25 55.5 53.5t51 61t37 67.5t14.5 70q0 111 -84 169t-223 58q-59 0 -113.5 -13.5t-95.5 -39t-65.5 -63.5t-24.5 -87z" />
<glyph unicode="9" d="M115 928q0 96 35.5 178t98 142.5t147.5 95t182 34.5q123 0 220 -48t165.5 -134t105.5 -204t37 -257v-12q0 -166 -36 -302t-107.5 -234.5t-179 -152.5t-251.5 -54q-78 0 -159.5 21.5t-153.5 55.5l37 95q70 -16 134.5 -27.5t123.5 -11.5q109 0 188.5 36.5t133 104.5t81 163 t33.5 212l-47 -25q-96 -45 -185 -68.5t-175 -23.5q-92 0 -170 29.5t-135.5 84t-90 131.5t-32.5 171zM266 934q0 -135 80 -212t229 -77q88 0 181.5 24.5t163.5 59.5q18 10 24 19.5t6 31.5v11q0 94 -25.5 176t-72.5 143t-115.5 96t-156.5 35q-141 0 -227.5 -84t-86.5 -223z " />
<glyph unicode=":" horiz-adv-x="440" d="M129 0v188h145q23 0 30 -6t7 -24v-158h-182zM129 670v188h145q23 0 30 -6t7 -25v-157h-182z" />
<glyph unicode=";" horiz-adv-x="440" d="M55 -260l125 229q8 16 -4 27l-18 14q-18 14 -24.5 25.5t-6.5 34.5v118h149q23 0 30 -6t7 -24v-97q0 -41 -9 -77.5t-31.5 -76.5t-61.5 -89t-98 -115zM129 670v188h145q23 0 30 -6t7 -25v-157h-182z" />
<glyph unicode="&#x3c;" horiz-adv-x="1081" d="M160 449v108l762 348v-141l-590 -262l590 -260v-142z" />
<glyph unicode="=" horiz-adv-x="1081" d="M160 254v123h762v-123h-762zM160 629v123h762v-123h-762z" />
<glyph unicode="&#x3e;" horiz-adv-x="1081" d="M160 100v142l590 260l-590 262v141l762 -348v-108z" />
<glyph unicode="?" horiz-adv-x="995" d="M41 1227q104 66 228 108.5t241 42.5q84 0 158.5 -23.5t131 -70.5t89.5 -115.5t33 -158.5q0 -127 -77 -218.5t-233 -168.5l-116 -58l-31 -215h-92l-15 92q-4 35 -8 66t-4 51q0 39 17.5 57.5t46.5 34.5l67 37q78 43 132.5 80t89 76t50 81t15.5 93q0 104 -69.5 160.5 t-192.5 56.5q-72 0 -144.5 -15.5t-150.5 -39.5l-121 -39zM330 0v180h145q23 0 29 -6t6 -24v-150h-180z" />
<glyph unicode="@" horiz-adv-x="1552" d="M70 498q0 154 56 281.5t154.5 221t229.5 144.5t281 51q147 0 272 -49t216 -135t141 -200t50 -243q0 -92 -24.5 -167.5t-68.5 -131t-104.5 -86t-129.5 -30.5q-70 0 -116 22.5t-75 56.5l-55 -26q-49 -25 -90 -37t-86 -12q-53 0 -99.5 18.5t-80 49t-53 72.5t-19.5 89 q0 78 50 125t159 47q39 0 110.5 -5t133.5 -11v53q0 74 -32 101.5t-108 27.5q-41 0 -82 -5t-86 -15l-65 -15l-33 72q63 37 135 59.5t137 22.5q117 0 188 -55.5t71 -178.5v-239q0 -49 25.5 -79t80.5 -30q92 0 141 85t49 214q0 119 -41.5 212t-116.5 158.5t-175.5 100.5 t-216.5 35q-125 0 -231.5 -37t-183.5 -109.5t-120 -178t-43 -240.5t43 -242.5t121 -182.5t186.5 -114t239.5 -39q98 0 199.5 25.5t187.5 60.5l158 66l43 -72q-57 -41 -128 -78t-150 -65.5t-163 -46t-168 -17.5q-150 0 -279.5 51.5t-227 143.5t-152.5 221t-55 285zM598 387 q0 -49 36 -82t107 -33q41 0 87 10.5t75 24.5q14 6 16.5 11.5t2.5 17.5v108q0 12 -19 13h-235q-31 0 -50.5 -15.5t-19.5 -54.5z" />
<glyph unicode="A" horiz-adv-x="1380" d="M41 0l555 1358h141q16 0 20.5 -3t10.5 -18l569 -1337h-147q-23 0 -31 18l-131 318h-686l-125 -318q-4 -10 -9 -14t-22 -4h-145zM393 465h582l-92 221q-29 70 -60.5 145.5t-59.5 145.5t-50.5 126t-34.5 87l-199 -506z" />
<glyph unicode="B" horiz-adv-x="1257" d="M160 0v1358h485q121 0 204 -21.5t136 -70.5q86 -80 86 -226q0 -88 -39 -173t-104 -150q102 -37 170.5 -117t68.5 -205q0 -184 -110 -284q-59 -53 -148.5 -82t-218.5 -29h-530zM322 133h356q100 0 162.5 19.5t101.5 60.5q59 61 59 180q0 66 -19 110t-52 70 q-41 33 -102.5 44.5t-145.5 11.5h-360v-496zM322 756h419q41 0 61.5 8t37.5 27q35 39 54 105.5t19 125.5q0 53 -12 91t-41 63q-31 27 -83 38t-144 11h-311v-469z" />
<glyph unicode="C" horiz-adv-x="1370" d="M82 680q0 147 49 274t137 221.5t208 148.5t259 54q188 0 326.5 -101t212.5 -263l-103 -62l-118 119q-76 76 -150 116t-178 40q-109 0 -196 -40t-150.5 -113t-97 -173t-33.5 -223t32.5 -224.5t95 -173t154 -110.5t209.5 -39q82 0 165 25.5t165 66.5l158 80l65 -82 q-115 -104 -267.5 -172.5t-313.5 -68.5q-139 0 -255 52t-199 146t-129 222t-46 280z" />
<glyph unicode="D" horiz-adv-x="1425" d="M160 0v1358h389q379 0 571 -154q111 -86 167 -219t56 -305t-56 -306t-167 -220q-193 -154 -571 -154h-389zM322 135h208q166 0 289 29t205 100q154 135 154 416q0 279 -154 414q-82 72 -205 100.5t-289 28.5h-208v-1088z" />
<glyph unicode="E" horiz-adv-x="1146" d="M160 0v1358h864v-133h-702v-453h628v-131h-628v-508h727v-133h-889z" />
<glyph unicode="F" horiz-adv-x="1075" d="M160 0v1358h848v-133h-686v-453h610v-131h-610v-641h-162z" />
<glyph unicode="G" horiz-adv-x="1488" d="M82 676q0 160 53 290t145.5 221t213 141t256.5 50q84 0 164.5 -23.5t152.5 -66.5t132.5 -106.5t103.5 -143.5l-97 -67l-129 112q-82 72 -156.5 109t-181.5 37q-102 0 -192 -36t-156.5 -106.5t-104.5 -173t-38 -235.5t35.5 -234.5t101.5 -172t158 -106.5t207 -36 q49 0 104 9t110.5 24.5t106.5 35t92 42.5q16 10 21.5 17t5.5 24v270h-270v123h397q29 0 29 -25v-649h-109l-35 121l-96 -45q-209 -96 -383 -96q-145 0 -263 53t-202 146t-130 221t-46 276z" />
<glyph unicode="H" horiz-adv-x="1427" d="M160 0v1358h162v-584h784v584h162v-1358h-162v639h-784v-639h-162z" />
<glyph unicode="I" horiz-adv-x="501" d="M170 0v1358h162v-1358h-162z" />
<glyph unicode="J" horiz-adv-x="1001" d="M45 92l37 90l104 -24q72 -16 140.5 -27.5t128.5 -11.5q117 0 172 55q61 63 61 217v967h162v-985q0 -197 -102 -297q-47 -47 -117 -71.5t-166 -24.5q-102 0 -215 30.5t-205 81.5z" />
<glyph unicode="K" horiz-adv-x="1286" d="M160 0v1358h162v-703l792 707l92 -94l-520 -461l571 -807h-153q-18 0 -26.5 4t-18.5 16l-490 693q-20 -16 -55 -45t-71.5 -58.5t-70.5 -55.5t-50 -38v-516h-162z" />
<glyph unicode="L" horiz-adv-x="1064" d="M160 0v1358h162v-1225h679v-133h-841z" />
<glyph unicode="M" horiz-adv-x="1699" d="M160 0v1358h116q16 0 24.5 -4t18.5 -17l535 -706h2l530 706q10 12 18.5 16.5t25.5 4.5h110v-1358h-156v1112q-29 -39 -80 -108.5t-114 -153.5l-279 -367h-96q-16 0 -24.5 4.5t-18.5 16.5l-264 342q-53 68 -107.5 139.5t-85.5 118.5v-1104h-155z" />
<glyph unicode="N" horiz-adv-x="1495" d="M160 0v1358h98q23 0 31 -4t18 -17l578 -716q92 -113 171 -214.5t124 -160.5v1112h155v-1358h-98q-20 0 -29.5 4t-19.5 16l-578 715q-45 55 -88 109.5t-82 103.5t-71.5 91t-53.5 71v-1110h-155z" />
<glyph unicode="O" horiz-adv-x="1486" d="M82 678q0 152 52 280.5t141.5 222t210 145.5t257.5 52t258 -52t210 -145.5t141.5 -222t52.5 -280.5t-52.5 -280t-141.5 -221t-209.5 -145t-258.5 -52q-137 0 -257.5 52t-210 145t-141.5 221t-52 280zM248 678q0 -127 35.5 -228.5t101.5 -171t157 -106.5t201 -37 q111 0 202 37t156.5 106.5t101.5 171t36 228.5t-36 228.5t-101.5 172t-156.5 107.5t-202 37t-201.5 -37t-156.5 -107.5t-101.5 -172t-35.5 -228.5z" />
<glyph unicode="P" horiz-adv-x="1243" d="M160 0v1358h489q129 0 231.5 -29t168.5 -98q49 -51 76.5 -126t27.5 -173q0 -111 -29.5 -202t-95.5 -157q-47 -47 -110.5 -70.5t-159.5 -23.5h-436v-479h-162zM322 610h469q41 0 67.5 9.5t48.5 33.5q39 45 60.5 120t21.5 161q0 141 -65 211q-41 45 -110 62.5t-169 17.5 h-323v-615z" />
<glyph unicode="Q" horiz-adv-x="1486" d="M82 678q0 152 52 280.5t141.5 222t210 145.5t257.5 52t258 -52t210 -145.5t141.5 -222t52.5 -280.5q0 -109 -26.5 -205t-76 -177t-117 -144.5t-149.5 -104.5l230 -330l-144 -69l-225 348q-35 -8 -76 -12t-78 -4q-137 0 -257.5 52t-210 145t-141.5 221t-52 280zM248 678 q0 -127 35.5 -228.5t101.5 -171t157 -106.5t201 -37q111 0 202 37t156.5 106.5t101.5 171t36 228.5t-36 228.5t-101.5 172t-156.5 107.5t-202 37t-201.5 -37t-156.5 -107.5t-101.5 -172t-35.5 -228.5z" />
<glyph unicode="R" horiz-adv-x="1298" d="M160 0v1358h487q129 0 231.5 -29t168.5 -98q49 -51 76.5 -126t27.5 -173q0 -133 -60.5 -239.5t-172.5 -164.5l311 -528h-148q-16 0 -23 4t-16 16l-272 467q-8 14 -16.5 18.5t-26.5 4.5h-405v-510h-162zM322 641h481q39 0 63.5 8t44.5 31q35 39 55.5 106.5t20.5 145.5 q0 143 -65 213q-41 45 -109 62.5t-168 17.5h-323v-584z" />
<glyph unicode="S" horiz-adv-x="1165" d="M86 109l43 92l129 -33q86 -23 163 -35t152 -12q158 0 242 70.5t84 185.5q0 49 -14.5 86t-46 65.5t-81.5 54t-122 50.5l-154 53q-92 31 -161.5 65.5t-116.5 79.5q-45 43 -68.5 96.5t-23.5 123.5q0 78 34.5 139t97 103t147.5 63.5t183 21.5q100 0 212 -21.5t204 -58.5 l-26 -100l-125 16q-80 10 -144.5 15.5t-111.5 5.5q-152 0 -238 -43t-86 -143q0 -78 62.5 -126.5t201.5 -95.5l148 -51q96 -33 170.5 -70.5t124.5 -91.5q41 -45 63.5 -102t22.5 -135q0 -94 -37 -168t-101.5 -125t-152.5 -77.5t-191 -26.5q-59 0 -124.5 10t-130 26.5t-124 40 t-104.5 52.5z" />
<glyph unicode="T" horiz-adv-x="1177" d="M49 1225v133h1079v-133h-458v-1225h-162v1225h-459z" />
<glyph unicode="U" horiz-adv-x="1409" d="M152 510v848h161v-834q0 -106 21.5 -173.5t68.5 -117.5q47 -47 124 -74.5t180 -27.5q102 0 179 27.5t124 74.5q47 49 68.5 117t21.5 176v832h157v-848q0 -139 -36.5 -230.5t-108.5 -158.5q-72 -66 -178.5 -103.5t-228.5 -37.5q-123 0 -229.5 37.5t-178.5 103.5 q-72 68 -108.5 159t-36.5 230z" />
<glyph unicode="V" horiz-adv-x="1355" d="M33 1358h151q14 0 19.5 -4t9.5 -15l281 -675q31 -72 59.5 -146t54 -140.5t47 -122.5t33.5 -95h4q12 39 34 97t46.5 126t52 140.5t56.5 142.5l268 673q4 10 8 14.5t19 4.5h147l-547 -1358h-147q-16 0 -22.5 5t-10.5 15z" />
<glyph unicode="W" horiz-adv-x="2048" d="M37 1358h147q14 0 19.5 -3t9.5 -16l221 -671q25 -72 48.5 -147t44 -144.5t36 -126.5t25.5 -92q8 35 23.5 92t34 128t39 147.5t42.5 150.5l199 682h143q16 0 22.5 -3t10.5 -18l215 -671q20 -61 42.5 -133t44 -141.5t40 -131t31.5 -102.5q10 39 27.5 99t38 130t43 141.5 t42.5 135.5l217 675q4 12 9.5 15.5t19.5 3.5h139l-448 -1358h-164q-25 0 -33 20l-197 613q-18 61 -40.5 133t-43 145.5t-40 142t-31.5 122.5h-2q-14 -59 -31.5 -127t-37 -138.5t-38 -141.5t-37.5 -134l-182 -635h-164q-27 0 -35 20z" />
<glyph unicode="X" horiz-adv-x="1310" d="M20 0l531 715l-494 643h152q18 0 26.5 -4t16.5 -15l397 -514l379 514q10 12 17.5 15.5t23.5 3.5h150l-478 -643l547 -715h-153q-16 0 -23.5 4t-15.5 14l-453 586l-428 -586q-12 -18 -43 -18h-152z" />
<glyph unicode="Y" d="M14 1358h152q16 0 22.5 -4t12.5 -15l213 -366q53 -90 110.5 -191.5t102.5 -187.5h2q23 43 51.5 93t57 101.5t56 99.5t50.5 87l209 364q8 12 14 15.5t23 3.5h141l-524 -897v-461h-162v457z" />
<glyph unicode="Z" horiz-adv-x="1150" d="M82 1225v133h975v-76q0 -27 -19 -53l-497 -727q-86 -125 -152.5 -220.5t-107.5 -148.5h792v-133h-983v74q0 16 3 26.5t16 28.5l497 727q98 141 164 235.5t94 133.5h-782z" />
<glyph unicode="[" horiz-adv-x="620" d="M170 -469v1827h428v-133h-276v-1561h276v-133h-428z" />
<glyph unicode="\" horiz-adv-x="903" d="M33 1358h151l686 -1358h-151z" />
<glyph unicode="]" horiz-adv-x="620" d="M23 -336h276v1561h-276v133h428v-1827h-428v133z" />
<glyph unicode="^" horiz-adv-x="1081" d="M147 932l332 446h121l332 -446l-107 -70l-284 379h-2l-285 -379z" />
<glyph unicode="_" horiz-adv-x="929" d="M25 -135h880v-119h-880v119z" />
<glyph unicode="`" horiz-adv-x="798" d="M154 1341l73 111q12 16 33 4l383 -285l-51 -69z" />
<glyph unicode="a" horiz-adv-x="1095" d="M74 311q0 121 76 187q41 37 104 56t156 19h6q35 0 80 -2t93 -6t94 -8t83 -8v94q0 63 -13.5 104t-41.5 70q-31 31 -79 45.5t-110 14.5q-57 0 -122.5 -13.5t-137.5 -38.5l-88 -30l-45 86q104 66 204.5 100.5t198.5 34.5q90 0 167 -27.5t130 -85.5q41 -45 66 -109.5 t25 -156.5v-508l153 -29v-73q-29 -12 -67.5 -21.5t-73.5 -9.5q-53 0 -94 25.5t-58 70.5q-90 -49 -171 -78.5t-167 -29.5q-74 0 -141.5 24.5t-117.5 68.5t-79.5 103.5t-29.5 130.5zM231 317q0 -86 61.5 -144t178.5 -58q70 0 143.5 21.5t126.5 49.5q14 8 19.5 15.5t5.5 23.5 v205q0 20 -25 21h-370q-78 0 -109 -33q-16 -16 -23.5 -40t-7.5 -61z" />
<glyph unicode="b" horiz-adv-x="1159" d="M145 0v1452h154v-557l55 33q164 88 295 88q92 0 171 -37t135.5 -104.5t89 -163t32.5 -211.5q0 -115 -30.5 -210t-88 -163t-136.5 -105.5t-177 -37.5q-72 0 -137.5 20.5t-149.5 63.5l-69 36l-37 -104h-107zM299 250q0 -16 4 -23.5t19 -15.5q74 -43 152.5 -64.5 t146.5 -21.5q160 0 228.5 100.5t68.5 274.5q0 106 -23 178t-60.5 115t-91 61t-114.5 18q-68 0 -151 -21.5t-156 -62.5q-14 -8 -18.5 -15t-4.5 -23v-500z" />
<glyph unicode="c" horiz-adv-x="1050" d="M80 504q0 111 38 205t103.5 161.5t154.5 106.5t191 39q74 0 138.5 -21.5t116.5 -59.5t90 -90t61 -112l-99 -51l-61 61q-72 72 -129 104t-131 32q-72 0 -129 -27t-98 -75t-63.5 -116.5t-22.5 -152.5q0 -82 20.5 -151.5t61 -122t103 -82t148.5 -29.5q63 0 130 19.5 t131 50.5l108 53l55 -78q-86 -78 -200.5 -131t-235.5 -53q-106 0 -194 38.5t-151.5 107.5t-99.5 164t-36 210z" />
<glyph unicode="d" horiz-adv-x="1163" d="M82 500q0 115 36 210t98.5 162.5t145 105.5t175.5 38q76 0 141 -20.5t137 -61.5l49 -29v547h154v-1452h-107l-37 104l-69 -36q-84 -43 -152.5 -63.5t-140.5 -20.5q-98 0 -177 37.5t-135.5 105.5t-87 163t-30.5 210zM242 500q0 -193 74.5 -284t222.5 -91q68 0 148.5 21.5 t154.5 64.5q14 8 18 15t4 24v504q0 16 -4 25t-18 18q-66 35 -139.5 56t-145.5 21q-143 0 -229 -90t-86 -284z" />
<glyph unicode="e" horiz-adv-x="1099" d="M80 500q0 115 37 210t100.5 162.5t149.5 105.5t186 38q102 0 187 -37t145.5 -101.5t94.5 -149.5t34 -183q0 -49 -9.5 -65.5t-29.5 -16.5h-735q8 -152 93 -247t247 -95q66 0 124 14.5t134 46.5l104 45l55 -77q-90 -74 -204.5 -120t-227.5 -46q-111 0 -200 39.5t-152 109.5 t-98 164t-35 203zM242 582h620q-10 133 -88 215t-219 82q-129 0 -214 -77t-99 -220z" />
<glyph unicode="f" horiz-adv-x="698" d="M4 881v80l186 34q-12 39 -20 80t-8 80q0 76 26.5 135.5t72.5 98t107.5 59t129.5 20.5q80 0 158.5 -22.5t144.5 -59.5l-35 -88l-68 15q-59 12 -101 18t-81 6q-96 0 -145 -43q-57 -51 -58 -149q0 -35 7.5 -75t19.5 -71h373v-118h-363v-881h-153v881h-193z" />
<glyph unicode="g" horiz-adv-x="1097" d="M35 -156q0 66 33.5 114t87.5 79q-16 16 -25.5 36.5t-9.5 41.5q0 29 16.5 57.5t48.5 69.5l74 92q-66 53 -104.5 129t-38.5 168q0 82 31.5 152.5t88 121.5t132 81t163.5 30q78 0 148 -23.5t123 -66.5l92 65q61 43 113 43q23 0 45 -8t45 -22v-86l-205 -56q-20 -6 -10 -20 q31 -45 48 -98.5t17 -112.5q0 -82 -31.5 -152.5t-88 -122t-132 -81t-164.5 -29.5q-86 0 -165 28q-12 4 -16.5 3t-10.5 -11l-51 -98q-8 -16 -8 -25q0 -23 43 -22h329q104 0 172 -15.5t115 -50.5q90 -66 90 -200q0 -78 -38 -143.5t-104.5 -113t-158.5 -74t-199 -26.5 q-111 0 -201.5 25.5t-156.5 72t-101.5 110t-35.5 138.5zM182 -139q0 -102 91.5 -168t256.5 -66q76 0 140.5 15.5t111.5 45t73 71.5t26 96q0 70 -41 100q-29 23 -73 30t-108 7h-335q-76 0 -109 -33t-33 -98zM266 631q0 -129 74 -192.5t192 -63.5q119 0 193 63.5t74 192.5 t-74 192.5t-193 63.5t-192.5 -63.5t-73.5 -192.5z" />
<glyph unicode="h" horiz-adv-x="1134" d="M145 0v1452h154v-532l49 24q72 35 137.5 53.5t137.5 18.5q92 0 165.5 -27.5t124.5 -81.5q43 -47 68 -111.5t25 -160.5v-635h-154v627q0 131 -55 186q-31 31 -80 44t-121 13q-63 0 -134 -15t-124 -36l-16 -6q-16 -6 -19.5 -12t-3.5 -21v-780h-154z" />
<glyph unicode="i" horiz-adv-x="452" d="M143 1198v172h133q20 0 26.5 -6t6.5 -23v-143h-166zM150 0v999h153v-999h-153z" />
<glyph unicode="j" horiz-adv-x="452" d="M-123 -383l96 14q55 8 90 19.5t54 34.5q23 25 28 65.5t5 108.5v1140h153v-1161q0 -80 -18.5 -142.5t-59.5 -103.5q-35 -35 -84 -52t-121 -17q-33 0 -73.5 5t-69.5 11v78zM143 1198v172h133q20 0 26.5 -6t6.5 -23v-143h-166z" />
<glyph unicode="k" horiz-adv-x="1089" d="M145 0v1452h154v-965l621 527l86 -94l-367 -310l422 -610h-148q-29 0 -41 18l-342 504q-59 -47 -118.5 -89t-112.5 -77v-356h-154z" />
<glyph unicode="l" horiz-adv-x="499" d="M150 172v1280h153v-1323l182 -29v-71q-29 -12 -76 -23.5t-85 -11.5q-84 0 -129 45t-45 133z" />
<glyph unicode="m" horiz-adv-x="1787" d="M145 0v999h111l29 -86l63 31q68 33 133.5 52.5t130.5 19.5q86 0 162 -29t135 -94l90 45q92 45 159 61.5t130 16.5q80 0 151.5 -24.5t119.5 -71.5q49 -47 74.5 -113t25.5 -162v-645h-154v625q0 129 -55 186q-59 59 -184 59q-61 0 -123 -13t-127 -38l-27 -10 q-16 -6 -20 -13.5t0 -25.5q6 -25 10 -56.5t4 -70.5v-643h-154v625q0 129 -55 186q-59 59 -184 59q-61 0 -124 -13t-128 -38l-16 -6q-16 -6 -19.5 -12t-3.5 -21v-780h-154z" />
<glyph unicode="n" horiz-adv-x="1134" d="M145 0v999h111l29 -86l63 31q72 35 137.5 53.5t137.5 18.5q92 0 165.5 -27.5t124.5 -81.5q43 -47 68 -111.5t25 -160.5v-635h-154v627q0 131 -55 186q-31 31 -80 44t-121 13q-63 0 -134 -15t-124 -36l-16 -6q-16 -6 -19.5 -12t-3.5 -21v-780h-154z" />
<glyph unicode="o" horiz-adv-x="1132" d="M80 500q0 115 37 210t102.5 162.5t153.5 105.5t190 38h6q102 0 190.5 -38t154 -105.5t102.5 -162.5t37 -210t-37 -210t-102.5 -163t-153.5 -105.5t-191 -37.5h-6q-102 0 -190 37.5t-153.5 105.5t-102.5 163t-37 210zM240 500q0 -184 85 -278.5t238 -94.5h6 q154 0 239 94.5t85 278.5t-85 278t-239 94h-6q-154 0 -238.5 -94t-84.5 -278z" />
<glyph unicode="p" horiz-adv-x="1159" d="M145 -469v1468h111l37 -106l61 35q164 88 295 88q92 0 171 -36t135.5 -103.5t89 -163t32.5 -213.5q0 -115 -31.5 -210t-89 -163t-137.5 -105.5t-178 -37.5q-68 0 -136.5 20.5t-146.5 63.5l-59 32v-569h-154zM299 250q0 -16 4 -23.5t19 -15.5q74 -43 151 -64.5t145 -21.5 q162 0 231 101.5t69 273.5q0 106 -23 178t-60.5 115t-91 61t-114.5 18q-68 0 -151 -21.5t-156 -62.5q-14 -8 -18.5 -15t-4.5 -23v-500z" />
<glyph unicode="q" horiz-adv-x="1163" d="M82 500q0 115 36 210t98.5 162.5t145 105.5t175.5 38q72 0 139 -20.5t139 -61.5l59 -35l33 100h111v-1468h-154v567l-59 -30q-84 -43 -152.5 -63.5t-140.5 -20.5q-98 0 -177 37.5t-135.5 105.5t-87 163t-30.5 210zM242 500q0 -193 74.5 -284t222.5 -91q68 0 148.5 21.5 t154.5 64.5q14 8 18 15t4 24v504q0 16 -4 25t-18 18q-61 35 -134 56t-151 21q-143 0 -229 -90t-86 -284z" />
<glyph unicode="r" horiz-adv-x="733" d="M145 0v999h117l29 -145l96 59q47 29 83 48.5t64.5 31t52 16.5t46.5 5q43 0 88 -21v-92q-41 -12 -94.5 -30.5t-109.5 -39t-108.5 -41t-86.5 -34.5q-16 -6 -19.5 -13.5t-3.5 -19.5v-723h-154z" />
<glyph unicode="s" horiz-adv-x="948" d="M74 96l39 86l80 -20q106 -29 172.5 -39t117.5 -10q119 0 176.5 46t57.5 130q0 66 -45 97.5t-140 59.5l-161 48q-131 39 -199 99t-68 165q0 63 30 112.5t80 81t119.5 48t149.5 16.5q84 0 175.5 -18.5t162.5 -47.5l-26 -94l-84 12q-55 8 -112.5 13.5t-113.5 5.5 q-135 0 -188 -33t-53 -92q0 -53 39 -83t141 -61l137 -40q150 -45 223.5 -108.5t73.5 -178.5q0 -66 -24.5 -122t-71.5 -97t-115.5 -64.5t-154.5 -23.5q-102 0 -217 31.5t-201 80.5z" />
<glyph unicode="t" horiz-adv-x="808" d="M-8 881v80l192 36v291h154v-289h362v-118h-362v-588q0 -49 7 -83t28 -56q33 -37 110 -37q59 0 195 37l61 16l37 -82q-33 -23 -72.5 -42t-80.5 -32.5t-82 -21.5t-76 -8q-129 0 -203 73q-39 39 -58.5 95.5t-19.5 136.5v592h-192z" />
<glyph unicode="u" horiz-adv-x="1128" d="M129 365v634h154v-626q0 -66 12 -112t41 -75q31 -31 79 -44t120 -13q61 0 131.5 15.5t124.5 35.5l16 6q16 6 19 12.5t3 20.5v780h154v-999h-111l-28 86l-64 -31q-72 -35 -137 -53t-135 -18q-186 0 -289 108q-43 47 -66.5 111.5t-23.5 161.5z" />
<glyph unicode="v" horiz-adv-x="1050" d="M10 999h135q16 0 22.5 -4t10.5 -14l254 -584q33 -72 58.5 -139.5t41.5 -110.5q16 41 41 104.5t58 139.5l248 590q4 10 9 14t19 4h133l-428 -999h-133q-16 0 -22 4t-11 14z" />
<glyph unicode="w" horiz-adv-x="1644" d="M16 999h134q16 0 21 -4t9 -14l211 -561q29 -78 52.5 -145.5t39.5 -114.5q10 47 29.5 113.5t46.5 146.5l184 579h138q12 0 18 -3t10 -15l201 -553q29 -78 53.5 -149.5t40.5 -120.5q16 55 36 123.5t48 148.5l187 551q4 10 9 14t21 4h123l-346 -999h-139q-16 0 -21.5 4 t-9.5 14l-194 535q-35 94 -58.5 162.5t-36.5 113.5q-23 -92 -82 -274l-176 -555h-139q-16 0 -22.5 4t-10.5 14z" />
<glyph unicode="x" horiz-adv-x="1040" d="M23 0l393 526l-381 473h151q16 0 21.5 -3t15.5 -13l289 -369l270 369q10 12 16.5 14t20.5 2h133l-358 -479l424 -520h-152q-16 0 -23 3t-16 13l-327 410l-303 -412q-8 -10 -14.5 -12t-22.5 -2h-137z" />
<glyph unicode="y" horiz-adv-x="1050" d="M10 999h140q14 0 19 -4t9 -14l236 -541q37 -86 69.5 -166.5t48.5 -126.5h3q16 45 48.5 128t67.5 163l228 543q4 10 9 14t19 4h131l-626 -1472l-140 33l191 428z" />
<glyph unicode="z" horiz-adv-x="964" d="M94 0v63q0 14 2 22.5t13 23.5l356 475q86 115 140 185.5t89 111.5h-590v118h775v-63q0 -14 -2.5 -22.5t-12.5 -22.5l-356 -475q-86 -115 -140.5 -185.5t-88.5 -111.5h608v-119h-793z" />
<glyph unicode="{" horiz-adv-x="677" d="M102 397v97q127 20 172 70t45 141q0 47 -9 108t-21.5 126t-21.5 125t-9 103q0 98 61.5 154.5t174.5 56.5q45 0 97 -9t91 -19v-78l-190 -27q-41 -6 -63.5 -21.5t-22.5 -58.5q0 -39 9 -99t21.5 -127t21.5 -130.5t9 -110.5q0 -90 -48 -151.5t-155 -102.5q106 -41 154.5 -101 t48.5 -150q0 -47 -9 -112t-21.5 -130.5t-21.5 -126t-9 -98.5q0 -43 22.5 -58.5t63.5 -21.5l190 -27v-78q-39 -10 -91 -19t-97 -9q-113 0 -174.5 56t-61.5 155q0 43 9 103t21.5 124.5t21.5 126t9 108.5q0 90 -45 140.5t-172 70.5z" />
<glyph unicode="|" horiz-adv-x="493" d="M176 -469v1921h141v-1921h-141z" />
<glyph unicode="}" horiz-adv-x="677" d="M-4 -381l190 27q41 6 63.5 21.5t22.5 58.5q0 39 -9 99t-21.5 125.5t-21.5 130t-9 112.5q0 90 48 150t155 101q-106 41 -154.5 102.5t-48.5 151.5q0 47 9 110.5t21.5 130.5t21.5 127t9 99q0 43 -22.5 58.5t-63.5 21.5l-190 27v78q39 10 91 19t97 9q113 0 174.5 -56 t61.5 -155q0 -43 -9.5 -103t-21.5 -125t-21.5 -126t-9.5 -108q0 -90 45.5 -140.5t171.5 -70.5v-97q-127 -20 -172 -70.5t-45 -140.5q0 -47 9.5 -108.5t21.5 -126t21.5 -124.5t9.5 -103q0 -98 -61.5 -154.5t-174.5 -56.5q-45 0 -97 9t-91 19v78z" />
<glyph unicode="~" horiz-adv-x="1081" d="M135 598q31 88 95.5 141.5t144.5 53.5q45 0 88 -14.5t83 -31t79 -31t75 -14.5q55 0 91 23t71 72l80 -29q-29 -88 -94 -141.5t-143 -53.5q-47 0 -89.5 14.5t-82 31t-78.5 31t-78 14.5q-53 0 -90 -23t-70 -72z" />
<glyph unicode="&#xa1;" horiz-adv-x="499" d="M160 849v150h180v-180h-145q-23 0 -29 6t-6 24zM172 139q0 53 3 117.5t10 132.5l24 260h82l25 -260q6 -68 9 -132.5t3 -117.5v-498h-156v498z" />
<glyph unicode="&#xa2;" d="M184 504q0 102 33 191t90.5 156t137 108.5t171.5 52.5l21 205h84v-205q129 -14 222 -91t134 -188l-98 -51l-61 61q-55 53 -100.5 85t-96.5 44v-747q53 4 108.5 22.5t108.5 45.5l109 53l55 -78q-78 -70 -176.5 -120t-204.5 -60l-21 -213h-84v211q-94 6 -174 46t-137 107.5 t-89 160.5t-32 204zM344 508q0 -152 63.5 -252t208.5 -129v750q-127 -16 -199.5 -114.5t-72.5 -254.5z" />
<glyph unicode="&#xa3;" d="M115 618v82l161 21q-20 68 -34.5 136.5t-14.5 133.5q0 90 33 162t89.5 122t133 76.5t166.5 26.5q127 0 252 -59t215 -174l-76 -78l-108 72q-76 51 -143.5 74.5t-145.5 23.5q-123 0 -195.5 -62.5t-72.5 -187.5q0 -55 15.5 -122.5t37.5 -137.5h451v-109h-416 q20 -61 28.5 -115t8.5 -89q0 -74 -38 -136.5t-120 -150.5h784v-127h-938v80q0 18 4.5 28.5t16.5 26.5l61 76q53 66 69.5 108.5t16.5 88.5q0 39 -12 93t-33 117h-196z" />
<glyph unicode="&#xa4;" d="M125 301l151 152q-59 96 -59 225t59 225l-151 152l98 96l144 -143q53 43 118.5 67.5t137.5 24.5t137 -24.5t119 -67.5l143 143l98 -96l-151 -152q59 -96 59 -225t-59 -225l151 -152l-98 -96l-143 143q-53 -43 -119 -67.5t-137 -24.5q-72 0 -137.5 24.5t-118.5 67.5 l-144 -143zM360 678q0 -133 70 -212t193 -79t192.5 79t69.5 212t-70 212t-192 79q-123 0 -193 -79t-70 -212z" />
<glyph unicode="&#xa5;" d="M35 1358h145q16 0 22.5 -4t12.5 -15l203 -366q63 -115 120.5 -219.5t88.5 -163.5h2l207 385l198 364q8 12 14.5 15.5t22.5 3.5h139l-462 -826h247v-108h-290v-88h290v-109h-290v-227h-162v227h-289v109h289v88h-289v108h246z" />
<glyph unicode="&#xa6;" horiz-adv-x="493" d="M176 387h141v-856h-141v856zM176 596v856h141v-856h-141z" />
<glyph unicode="&#xa7;" horiz-adv-x="1169" d="M123 494q0 80 41 159.5t96 139.5q-102 98 -102 243q0 78 33.5 141.5t91 107.5t135.5 68.5t166 24.5q104 0 206.5 -26.5t190.5 -71.5l-35 -96l-96 22q-80 18 -139.5 27.5t-120.5 9.5q-129 0 -204 -56.5t-75 -156.5q0 -86 61.5 -138t178.5 -93l137 -49 q174 -61 266.5 -141.5t92.5 -213.5q0 -80 -41 -159.5t-97 -139.5q102 -98 103 -243q0 -78 -34 -141.5t-91.5 -108.5t-135 -68.5t-165.5 -23.5q-104 0 -207 26.5t-191 71.5l35 96l96 -22q80 -18 140 -27.5t121 -9.5q129 0 203.5 56t74.5 157q0 86 -61.5 138t-178.5 93 l-137 49q-174 61 -266 141t-92 214zM266 518q0 -41 12.5 -72.5t42 -61.5t82 -56.5t132.5 -55.5l139 -49q37 -14 74.5 -29.5t68.5 -33.5q35 49 60.5 103t25.5 108q0 39 -12 71.5t-42 62.5t-82 56.5t-132 54.5l-139 50q-37 14 -75 29.5t-69 33.5q-35 -49 -60.5 -103.5 t-25.5 -107.5z" />
<glyph unicode="&#xa8;" horiz-adv-x="798" d="M123 1167v183h147q20 0 27.5 -5.5t7.5 -23.5v-154h-182zM494 1167v183h147q20 0 27.5 -5.5t7.5 -23.5v-154h-182z" />
<glyph unicode="&#xa9;" horiz-adv-x="1527" d="M70 680q0 145 53 272t147.5 222.5t221 149.5t272.5 54q145 0 272 -54t220.5 -149.5t147.5 -222.5t54 -272t-54 -272t-147.5 -222.5t-220.5 -150.5t-272 -55t-272 55t-221.5 150.5t-147.5 222.5t-53 272zM197 680q0 -127 42 -233.5t117.5 -183.5t180 -120t227.5 -43 t227.5 43t179 120t116.5 183.5t42 233.5t-42 232.5t-116.5 182t-179 118.5t-227.5 42t-227.5 -42t-180 -118.5t-117.5 -182t-42 -232.5zM475 684q0 72 24.5 129t66.5 96t95.5 59.5t108.5 20.5q84 0 149.5 -47t100.5 -123l-68 -41l-57 51q-35 33 -65.5 47.5t-69.5 14.5 q-31 0 -62.5 -12.5t-56.5 -39t-40 -65.5t-15 -90q0 -90 49 -147.5t141 -57.5q35 0 70 9.5t72 25.5l77 33l39 -58q-51 -45 -121.5 -77.5t-144.5 -32.5q-63 0 -117.5 22.5t-93.5 62.5t-60.5 96t-21.5 124z" />
<glyph unicode="&#xaa;" horiz-adv-x="962" d="M86 797q0 115 76 165t194 50q66 0 133 -6l162 -13v74q0 90 -50 138t-144 48q-80 0 -197 -34l-90 -27l-41 82q88 51 172 77.5t162 26.5q63 0 122.5 -18.5t105.5 -56t73 -95t27 -137.5v-412l114 -22v-72q-25 -10 -56.5 -18t-60.5 -8q-45 0 -76.5 21.5t-47.5 57.5 q-80 -47 -146.5 -68.5t-132.5 -21.5q-61 0 -115.5 20.5t-95.5 56.5t-64.5 85t-23.5 107zM223 803q0 -72 51.5 -114t139.5 -42q55 0 114.5 16.5t98.5 36.5q12 6 18 12.5t6 22.5v154q0 14 -16 14h-309q-29 0 -46.5 -6t-29.5 -16q-27 -27 -27 -78z" />
<glyph unicode="&#xab;" horiz-adv-x="1210" d="M115 473v82l426 346l69 -67l-338 -330v-2l338 -332l-69 -66l-408 330q-10 10 -14 16.5t-4 22.5zM604 473v82l426 346l70 -67l-338 -330v-2l338 -332l-70 -66l-407 330q-10 10 -14.5 16.5t-4.5 22.5z" />
<glyph unicode="&#xac;" horiz-adv-x="1081" d="M160 629v123h762v-498h-125v375h-637z" />
<glyph unicode="&#xad;" horiz-adv-x="858" d="M127 436v127h604v-127h-604z" />
<glyph unicode="&#xae;" horiz-adv-x="1527" d="M70 680q0 145 53 272t147.5 222.5t221 149.5t272.5 54q145 0 272 -54t220.5 -149.5t147.5 -222.5t54 -272t-54 -272t-147.5 -222.5t-220.5 -150.5t-272 -55t-272 55t-221.5 150.5t-147.5 222.5t-53 272zM197 680q0 -127 42 -233.5t117.5 -183.5t180 -120t227.5 -43 t227.5 43t179 120t116.5 183.5t42 233.5t-42 232.5t-116.5 182t-179 118.5t-227.5 42t-227.5 -42t-180 -118.5t-117.5 -182t-42 -232.5zM530 387v594h246q113 0 166 -47q29 -25 41 -60.5t12 -76.5q0 -61 -30.5 -105.5t-83.5 -66.5l135 -238h-94q-16 0 -23 10l-113 205 q-4 8 -7 9t-11 1h-133v-225h-105zM635 700h190q27 0 41 17q25 31 25 78q0 53 -25 75q-14 12 -35.5 16.5t-52.5 4.5h-143v-191z" />
<glyph unicode="&#xaf;" horiz-adv-x="798" d="M96 1190v121h604v-121h-604z" />
<glyph unicode="&#xb0;" horiz-adv-x="892" d="M106 1040q0 74 27 136.5t73 107.5t107.5 69.5t132.5 24.5q72 0 133.5 -24.5t107.5 -69.5t72.5 -107.5t26.5 -136.5t-26.5 -136t-72.5 -107t-107.5 -70t-133.5 -25t-133 25t-107 70t-73 107.5t-27 135.5zM242 1040q0 -104 56 -159.5t148 -55.5t148.5 55.5t56.5 159.5 t-56 159.5t-149 55.5q-92 0 -148 -55t-56 -160z" />
<glyph unicode="&#xb1;" horiz-adv-x="1081" d="M160 0v123h762v-123h-762zM160 592v123h317v289h125v-289h320v-123h-320v-289h-125v289h-317z" />
<glyph unicode="&#xb2;" horiz-adv-x="819" d="M137 1292q53 37 119 61.5t131 24.5q106 0 171 -58t65 -149q0 -66 -40 -125t-128 -137l-131 -118h319v-103h-475v62q0 16 4 24t14 19l220 219q53 53 72.5 88t19.5 71q0 45 -31 73t-86 28q-33 0 -62.5 -7.5t-64.5 -17.5l-78 -26z" />
<glyph unicode="&#xb3;" horiz-adv-x="819" d="M135 778l43 74l92 -37q41 -16 74 -24.5t68 -8.5q57 0 91 29t34 82q0 51 -28 66.5t-87 15.5h-70q-18 0 -18 16v78h127q16 0 23.5 3t13.5 11q12 18 18 42t6 44q0 47 -29.5 74t-86.5 27q-29 0 -59 -7.5t-77 -23.5l-65 -25l-41 72q57 41 122.5 66.5t131.5 25.5q43 0 83 -12 t71.5 -36.5t51 -60.5t19.5 -81q0 -86 -70 -156q92 -45 93 -145q0 -100 -71 -155.5t-181 -55.5q-72 0 -149 29.5t-130 72.5z" />
<glyph unicode="&#xb4;" horiz-adv-x="798" d="M154 1171l385 285q18 14 30 -4l74 -111l-438 -239z" />
<glyph unicode="&#xb5;" horiz-adv-x="1144" d="M145 -469v1468h154v-626q0 -66 12.5 -112t40.5 -75q31 -31 79 -44t120 -13q61 0 132 15.5t124 35.5l16 6q16 6 19.5 12.5t3.5 20.5v780h153v-999h-110l-29 86l-63 -31q-72 -35 -137.5 -53t-135.5 -18q-135 0 -225 67v-520h-154z" />
<glyph unicode="&#xb6;" horiz-adv-x="1077" d="M94 911v447h955v-125h-179v-1702h-129v1702h-143v-1702h-129v1329h-317q-35 0 -46.5 11.5t-11.5 39.5z" />
<glyph unicode="&#xb7;" horiz-adv-x="440" d="M129 477v189h145q23 0 30 -6.5t7 -24.5v-158h-182z" />
<glyph unicode="&#xb8;" horiz-adv-x="798" d="M217 -365l131 27q90 18 90 57q0 20 -33.5 35t-74.5 30t-75 37.5t-34 63.5q0 37 29 78t69 80l74 -18q-20 -27 -32.5 -50.5t-12.5 -40.5q0 -14 17.5 -25t43 -20.5t56.5 -20.5t56.5 -28.5t43 -43t17.5 -62.5q0 -80 -86 -132.5t-260 -56.5z" />
<glyph unicode="&#xb9;" horiz-adv-x="819" d="M166 1257l229 103q16 6 23.5 8t21.5 2h60v-582h149v-100h-452v100h178v451q-12 -6 -35 -15.5t-47 -19.5l-90 -33z" />
<glyph unicode="&#xba;" horiz-adv-x="962" d="M74 954q0 94 31.5 173t87 134.5t130 86t158.5 30.5t159 -30.5t130 -86t87 -134.5t32 -173q0 -96 -32 -174t-87 -133t-130 -86t-159 -31t-158.5 31t-130 86t-87 133t-31.5 174zM217 954q0 -129 67.5 -210.5t196.5 -81.5t196.5 81.5t67.5 210.5t-67.5 211t-196.5 82 t-196.5 -82t-67.5 -211z" />
<glyph unicode="&#xbb;" horiz-adv-x="1210" d="M111 172l338 330v2l-338 332l69 65l408 -330q10 -10 14 -16t4 -23v-81l-426 -347zM600 172l338 330v2l-338 332l70 65l407 -330q10 -10 14.5 -16t4.5 -23v-81l-426 -347z" />
<glyph unicode="&#xbc;" horiz-adv-x="1777" d="M172 1251l229 103q16 6 23.5 8t21.5 2h60v-582h149v-100h-452v100h178v451q-12 -6 -34.5 -15.5t-47.5 -19.5l-90 -33zM524 0l674 1358h143l-671 -1358h-146zM1038 166v53q0 14 2 21.5t15 23.5l317 395q10 14 17.5 18.5t23.5 4.5h109v-420h108v-96h-108v-166h-121v166 h-363zM1171 262h230v287q-10 -14 -26.5 -37t-37.5 -49l-96 -119q-16 -23 -36.5 -45.5t-33.5 -36.5z" />
<glyph unicode="&#xbd;" horiz-adv-x="1777" d="M172 1251l229 103q16 6 23.5 8t21.5 2h60v-582h149v-100h-452v100h178v451q-12 -6 -35 -15.5t-47 -19.5l-90 -33zM523 0l673 1358h144l-672 -1358h-145zM1132 604q53 37 119 61.5t131 24.5q106 0 171 -58t65 -149q0 -66 -40 -125t-128 -137l-131 -118h319v-103h-475v62 q0 16 4 24t14 19l220 219q53 53 72.5 88t19.5 71q0 45 -31 73t-86 28q-33 0 -62.5 -7.5t-64.5 -17.5l-78 -26z" />
<glyph unicode="&#xbe;" horiz-adv-x="1777" d="M156 772l43 74l92 -37q41 -16 73.5 -24.5t67.5 -8.5q57 0 91 29t34 82q0 51 -27.5 66.5t-87.5 15.5h-69q-18 0 -19 16v78h127q16 0 23.5 3t13.5 11q12 18 18.5 42t6.5 44q0 47 -30 74t-87 27q-29 0 -58.5 -7.5t-76.5 -23.5l-66 -25l-41 72q57 41 123 66.5t131 25.5 q43 0 83 -12t72 -37t51.5 -60.5t19.5 -80.5q0 -86 -70 -156q92 -45 92 -145t-70.5 -155.5t-181.5 -55.5q-72 0 -148.5 29.5t-129.5 72.5zM506 0l674 1358h143l-672 -1358h-145zM1010 166v53q0 14 2 21.5t14 23.5l317 395q10 14 17.5 18.5t23.5 4.5h109v-420h109v-96h-109 v-166h-121v166h-362zM1143 262h229v287q-10 -14 -26.5 -37t-36.5 -49l-97 -119q-16 -23 -36.5 -45.5t-32.5 -36.5z" />
<glyph unicode="&#xbf;" horiz-adv-x="995" d="M73 -11q0 127 77 218.5t233 168.5l116 58l31 215h92l15 -92q4 -35 8 -66t4 -51q0 -39 -17.5 -57.5t-46.5 -34.5l-67 -37q-78 -43 -132.5 -80t-89 -76t-50 -81t-15.5 -93q0 -104 69.5 -160.5t192.5 -56.5q72 0 144.5 15.5t150.5 39.5l121 39l45 -86q-104 -66 -228 -108.5 t-241 -42.5q-84 0 -158.5 23.5t-131 70.5t-89.5 115.5t-33 158.5zM485 849v150h180v-180h-145q-23 0 -29 6t-6 24z" />
<glyph unicode="&#xc0;" horiz-adv-x="1380" d="M41 0l555 1358h141q16 0 20.5 -3t10.5 -18l569 -1337h-147q-23 0 -31 18l-131 318h-686l-125 -318q-4 -10 -9 -14t-22 -4h-145zM393 465h582l-92 221q-29 70 -60.5 145.5t-59.5 145.5t-50.5 126t-34.5 87l-199 -506zM422 1716l73 111q12 16 33 4l383 -285l-51 -69z" />
<glyph unicode="&#xc1;" horiz-adv-x="1380" d="M41 0l555 1358h141q16 0 20.5 -3t10.5 -18l569 -1337h-147q-23 0 -31 18l-131 318h-686l-125 -318q-4 -10 -9 -14t-22 -4h-145zM393 465h582l-92 221q-29 70 -60.5 145.5t-59.5 145.5t-50.5 126t-34.5 87l-199 -506zM451 1546l385 285q18 14 30 -4l74 -111l-438 -239z " />
<glyph unicode="&#xc2;" horiz-adv-x="1380" d="M41 0l555 1358h141q16 0 20.5 -3t10.5 -18l569 -1337h-147q-23 0 -31 18l-131 318h-686l-125 -318q-4 -10 -9 -14t-22 -4h-145zM353 1501l256 262q14 14 21 17t28 3h41q20 0 27.5 -3t21.5 -17l258 -262l-61 -60l-263 211h-4l-264 -211zM393 465h582l-92 221 q-29 70 -60.5 145.5t-59.5 145.5t-50.5 126t-34.5 87l-199 -506z" />
<glyph unicode="&#xc3;" horiz-adv-x="1380" d="M41 0l555 1358h141q16 0 20.5 -3t10.5 -18l569 -1337h-147q-23 0 -31 18l-131 318h-686l-125 -318q-4 -10 -9 -14t-22 -4h-145zM342 1544q23 86 75 139.5t126 53.5q37 0 73 -14.5t69.5 -31t66.5 -30.5t62 -14q35 0 62.5 20.5t55.5 71.5l82 -25q-23 -86 -73.5 -139 t-126.5 -53q-37 0 -73 14t-70 30.5t-65.5 31t-60.5 14.5q-35 0 -63.5 -20.5t-57.5 -71.5zM393 465h582l-92 221q-29 70 -60.5 145.5t-59.5 145.5t-50.5 126t-34.5 87l-199 -506z" />
<glyph unicode="&#xc4;" horiz-adv-x="1380" d="M41 0l555 1358h141q16 0 20.5 -3t10.5 -18l569 -1337h-147q-23 0 -31 18l-131 318h-686l-125 -318q-4 -10 -9 -14t-22 -4h-145zM393 465h582l-92 221q-29 70 -60.5 145.5t-59.5 145.5t-50.5 126t-34.5 87l-199 -506zM402 1536v182h147q20 0 27.5 -5t7.5 -23v-154h-182z M773 1536v182h147q20 0 27.5 -5t7.5 -23v-154h-182z" />
<glyph unicode="&#xc5;" horiz-adv-x="1380" d="M41 0l539 1319q-49 27 -85 78t-36 119q0 49 18.5 90t49 68.5t71.5 43t86 15.5t86 -15.5t71.5 -43t49 -68.5t18.5 -90q0 -72 -39 -123.5t-92 -75.5l559 -1317h-147q-23 0 -31 18l-131 318h-686l-125 -318q-4 -10 -9 -14t-22 -4h-145zM393 465h582l-92 221 q-29 70 -60.5 145.5t-59.5 145.5t-50.5 126t-34.5 87l-199 -506zM567 1516q0 -55 31 -85t86 -30t86 30t31 85t-31 84.5t-86 29.5t-86 -29.5t-31 -84.5z" />
<glyph unicode="&#xc6;" horiz-adv-x="1910" d="M10 0l869 1358h909v-133h-703v-453h629v-131h-629v-508h727v-133h-888v336h-529l-192 -307q-10 -16 -20.5 -22.5t-35.5 -6.5h-137zM475 465h449v727q-18 -35 -53 -91.5t-76 -125t-86 -141t-88 -140.5z" />
<glyph unicode="&#xc7;" horiz-adv-x="1370" d="M82 680q0 147 49 274t137 221.5t208 148.5t259 54q188 0 326.5 -101t212.5 -263l-103 -62l-118 119q-76 76 -150 116t-178 40q-109 0 -196 -40t-150.5 -113t-97 -173t-33.5 -223t32.5 -224.5t95 -173t154 -110.5t209.5 -39q82 0 165 25.5t165 66.5l158 80l65 -82 q-55 -51 -120.5 -94t-137 -75t-148.5 -51t-155 -21q-14 -23 -14 -46q0 -14 17.5 -25t43 -20.5t56 -20.5t56 -28.5t43 -43t17.5 -62.5q0 -80 -86 -132.5t-260 -56.5l-18 90l131 27q90 18 90 57q0 20 -34 35t-75 30t-74.5 37.5t-33.5 63.5q0 45 43 99q-123 14 -225.5 71.5 t-174 149.5t-111.5 213t-40 262z" />
<glyph unicode="&#xc8;" horiz-adv-x="1146" d="M160 0v1358h864v-133h-702v-453h628v-131h-628v-508h727v-133h-889zM351 1716l73 111q12 16 33 4l383 -285l-51 -69z" />
<glyph unicode="&#xc9;" horiz-adv-x="1146" d="M160 0v1358h864v-133h-702v-453h628v-131h-628v-508h727v-133h-889zM365 1546l385 285q18 14 30 -4l74 -111l-438 -239z" />
<glyph unicode="&#xca;" horiz-adv-x="1146" d="M160 0v1358h864v-133h-702v-453h628v-131h-628v-508h727v-133h-889zM273 1530l256 262q14 14 21 17t28 3h41q20 0 27.5 -3t21.5 -17l258 -262l-61 -60l-263 211h-4l-264 -211z" />
<glyph unicode="&#xcb;" horiz-adv-x="1146" d="M160 0v1358h864v-133h-702v-453h628v-131h-628v-508h727v-133h-889zM318 1536v182h147q20 0 27.5 -5t7.5 -23v-154h-182zM689 1536v182h147q20 0 27.5 -5t7.5 -23v-154h-182z" />
<glyph unicode="&#xcc;" horiz-adv-x="501" d="M15 1716l73 111q12 16 33 4l383 -285l-51 -69zM170 0v1358h162v-1358h-162z" />
<glyph unicode="&#xcd;" horiz-adv-x="501" d="M17 1546l385 285q18 14 30 -4l74 -111l-438 -239zM170 0v1358h162v-1358h-162z" />
<glyph unicode="&#xce;" horiz-adv-x="501" d="M-69 1530l256 262q14 14 21 17t28 3h41q20 0 27.5 -3t21.5 -17l258 -262l-61 -60l-263 211h-4l-264 -211zM170 0v1358h162v-1358h-162z" />
<glyph unicode="&#xcf;" horiz-adv-x="501" d="M-22 1536v182h147q20 0 27.5 -5t7.5 -23v-154h-182zM170 0v1358h162v-1358h-162zM349 1536v182h147q20 0 27.5 -5t7.5 -23v-154h-182z" />
<glyph unicode="&#xd0;" horiz-adv-x="1470" d="M16 637v121h189v600h389q379 0 571 -154q111 -86 167.5 -219t56.5 -305t-56.5 -306t-167.5 -220q-193 -154 -571 -154h-389v637h-189zM367 135h208q166 0 289 29t205 100q154 135 154 416q0 279 -154 414q-82 72 -205 100.5t-289 28.5h-208v-465h331v-121h-331v-502z" />
<glyph unicode="&#xd1;" horiz-adv-x="1490" d="M158 0v1358h98q23 0 31 -4t18 -17l578 -716q92 -113 171 -214.5t124 -160.5v1112h155v-1358h-98q-20 0 -29.5 4t-19.5 16l-578 715q-45 55 -88 109.5t-82 103.5t-71.5 91t-53.5 71v-1110h-155zM413 1544q23 86 75 139.5t126 53.5q37 0 73 -14.5t69.5 -31t66.5 -30.5 t62 -14q35 0 62.5 20.5t55.5 71.5l82 -25q-23 -86 -73.5 -139t-126.5 -53q-37 0 -73 14t-70 30.5t-65.5 31t-60.5 14.5q-35 0 -63.5 -20.5t-57.5 -71.5z" />
<glyph unicode="&#xd2;" horiz-adv-x="1486" d="M82 678q0 152 52 280.5t141.5 222t210 145.5t257.5 52t258 -52t210 -145.5t141.5 -222t52.5 -280.5t-52.5 -280t-141.5 -221t-209.5 -145t-258.5 -52q-137 0 -257.5 52t-210 145t-141.5 221t-52 280zM248 678q0 -127 35.5 -228.5t101.5 -171t157 -106.5t201 -37 q111 0 202 37t156.5 106.5t101.5 171t36 228.5t-36 228.5t-101.5 172t-156.5 107.5t-202 37t-201.5 -37t-156.5 -107.5t-101.5 -172t-35.5 -228.5zM494 1716l73 111q12 16 33 4l383 -285l-51 -69z" />
<glyph unicode="&#xd3;" horiz-adv-x="1486" d="M82 678q0 152 52 280.5t141.5 222t210 145.5t257.5 52t258 -52t210 -145.5t141.5 -222t52.5 -280.5t-52.5 -280t-141.5 -221t-209.5 -145t-258.5 -52q-137 0 -257.5 52t-210 145t-141.5 221t-52 280zM248 678q0 -127 35.5 -228.5t101.5 -171t157 -106.5t201 -37 q111 0 202 37t156.5 106.5t101.5 171t36 228.5t-36 228.5t-101.5 172t-156.5 107.5t-202 37t-201.5 -37t-156.5 -107.5t-101.5 -172t-35.5 -228.5zM514 1546l385 285q18 14 30 -4l74 -111l-438 -239z" />
<glyph unicode="&#xd4;" horiz-adv-x="1486" d="M82 678q0 152 52 280.5t141.5 222t210 145.5t257.5 52t258 -52t210 -145.5t141.5 -222t52.5 -280.5t-52.5 -280t-141.5 -221t-209.5 -145t-258.5 -52q-137 0 -257.5 52t-210 145t-141.5 221t-52 280zM248 678q0 -127 35.5 -228.5t101.5 -171t157 -106.5t201 -37 q111 0 202 37t156.5 106.5t101.5 171t36 228.5t-36 228.5t-101.5 172t-156.5 107.5t-202 37t-201.5 -37t-156.5 -107.5t-101.5 -172t-35.5 -228.5zM418 1530l256 262q14 14 21 17t28 3h41q20 0 27.5 -3t21.5 -17l258 -262l-61 -60l-263 211h-4l-264 -211z" />
<glyph unicode="&#xd5;" horiz-adv-x="1486" d="M82 678q0 152 52 280.5t141.5 222t210 145.5t257.5 52t258 -52t210 -145.5t141.5 -222t52.5 -280.5t-52.5 -280t-141.5 -221t-209.5 -145t-258.5 -52q-137 0 -257.5 52t-210 145t-141.5 221t-52 280zM248 678q0 -127 35.5 -228.5t101.5 -171t157 -106.5t201 -37 q111 0 202 37t156.5 106.5t101.5 171t36 228.5t-36 228.5t-101.5 172t-156.5 107.5t-202 37t-201.5 -37t-156.5 -107.5t-101.5 -172t-35.5 -228.5zM409 1544q23 86 75 139.5t126 53.5q37 0 73 -14.5t69.5 -31t66.5 -30.5t62 -14q35 0 62.5 20.5t55.5 71.5l82 -25 q-23 -86 -73.5 -139t-126.5 -53q-37 0 -73 14t-70 30.5t-65.5 31t-60.5 14.5q-35 0 -63.5 -20.5t-57.5 -71.5z" />
<glyph unicode="&#xd6;" horiz-adv-x="1486" d="M82 678q0 152 52 280.5t141.5 222t210 145.5t257.5 52t258 -52t210 -145.5t141.5 -222t52.5 -280.5t-52.5 -280t-141.5 -221t-209.5 -145t-258.5 -52q-137 0 -257.5 52t-210 145t-141.5 221t-52 280zM248 678q0 -127 35.5 -228.5t101.5 -171t157 -106.5t201 -37 q111 0 202 37t156.5 106.5t101.5 171t36 228.5t-36 228.5t-101.5 172t-156.5 107.5t-202 37t-201.5 -37t-156.5 -107.5t-101.5 -172t-35.5 -228.5zM465 1536v182h147q20 0 27.5 -5t7.5 -23v-154h-182zM836 1536v182h147q20 0 27.5 -5t7.5 -23v-154h-182z" />
<glyph unicode="&#xd7;" horiz-adv-x="1081" d="M227 276l224 226l-224 225l88 88l224 -225l227 225l88 -88l-227 -225l227 -226l-88 -88l-227 226l-224 -226z" />
<glyph unicode="&#xd8;" horiz-adv-x="1486" d="M82 678q0 152 52 280.5t141.5 222t210 145.5t257.5 52q98 0 189.5 -27.5t169.5 -78.5l133 178l106 -74l-139 -186q94 -94 148.5 -225t54.5 -287q0 -152 -52.5 -280t-141.5 -221t-209.5 -145t-258.5 -52q-102 0 -194 27.5t-170 80.5l-135 -180l-107 74l142 190 q-92 94 -144.5 223t-52.5 283zM248 678q0 -121 31.5 -217t91.5 -166l639 856q-55 35 -123 53.5t-144 18.5q-111 0 -201.5 -37t-156.5 -107.5t-101.5 -172t-35.5 -228.5zM469 209q113 -74 274 -74q111 0 202 37t156.5 106.5t101.5 171t36 228.5q0 123 -34 220t-95 169z" />
<glyph unicode="&#xd9;" horiz-adv-x="1409" d="M152 510v848h161v-834q0 -106 21.5 -173.5t68.5 -117.5q47 -47 124 -74.5t180 -27.5q102 0 179 27.5t124 74.5q47 49 68.5 117t21.5 176v832h157v-848q0 -139 -36.5 -230.5t-108.5 -158.5q-72 -66 -178.5 -103.5t-228.5 -37.5q-123 0 -229.5 37.5t-178.5 103.5 q-72 68 -108.5 159t-36.5 230zM441 1716l73 111q12 16 33 4l383 -285l-51 -69z" />
<glyph unicode="&#xda;" horiz-adv-x="1409" d="M152 510v848h161v-834q0 -106 21.5 -173.5t68.5 -117.5q47 -47 124 -74.5t180 -27.5q102 0 179 27.5t124 74.5q47 49 68.5 117t21.5 176v832h157v-848q0 -139 -36.5 -230.5t-108.5 -158.5q-72 -66 -178.5 -103.5t-228.5 -37.5q-123 0 -229.5 37.5t-178.5 103.5 q-72 68 -108.5 159t-36.5 230zM510 1546l385 285q18 14 30 -4l74 -111l-438 -239z" />
<glyph unicode="&#xdb;" horiz-adv-x="1409" d="M152 510v848h161v-834q0 -106 21.5 -173.5t68.5 -117.5q47 -47 124 -74.5t180 -27.5q102 0 179 27.5t124 74.5q47 49 68.5 117t21.5 176v832h157v-848q0 -139 -36.5 -230.5t-108.5 -158.5q-72 -66 -178.5 -103.5t-228.5 -37.5q-123 0 -229.5 37.5t-178.5 103.5 q-72 68 -108.5 159t-36.5 230zM379 1530l256 262q14 14 21 17t28 3h41q20 0 27.5 -3t21.5 -17l258 -262l-61 -60l-263 211h-4l-264 -211z" />
<glyph unicode="&#xdc;" horiz-adv-x="1409" d="M152 510v848h161v-834q0 -106 21.5 -173.5t68.5 -117.5q47 -47 124 -74.5t180 -27.5q102 0 179 27.5t124 74.5q47 49 68.5 117t21.5 176v832h157v-848q0 -139 -36.5 -230.5t-108.5 -158.5q-72 -66 -178.5 -103.5t-228.5 -37.5q-123 0 -229.5 37.5t-178.5 103.5 q-72 68 -108.5 159t-36.5 230zM426 1536v182h147q20 0 27.5 -5t7.5 -23v-154h-182zM797 1536v182h147q20 0 27.5 -5t7.5 -23v-154h-182z" />
<glyph unicode="&#xdd;" d="M14 1358h152q16 0 22.5 -4t12.5 -15l213 -366q53 -90 110.5 -191.5t102.5 -187.5h2q23 43 51.5 93t57 101.5t56 99.5t50.5 87l209 364q8 12 14 15.5t23 3.5h141l-524 -897v-461h-162v457zM426 1546l385 285q18 14 30 -4l74 -111l-438 -239z" />
<glyph unicode="&#xde;" horiz-adv-x="1247" d="M160 0v1358h162v-230h327q129 0 231.5 -28.5t168.5 -98.5q49 -51 76.5 -125.5t27.5 -173.5q0 -111 -34 -201.5t-99 -156.5q-47 -47 -106.5 -70.5t-155.5 -23.5h-436v-250h-162zM322 383h469q41 0 67.5 9t48.5 34q39 45 60.5 116.5t21.5 157.5q0 143 -65 213 q-41 45 -110 62.5t-169 17.5h-323v-610z" />
<glyph unicode="&#xdf;" horiz-adv-x="1308" d="M4 881v80l193 34q0 109 36.5 197t103 149.5t160 94t205.5 32.5q74 0 142.5 -19t120 -57t82 -92.5t30.5 -123.5q0 -86 -48 -146.5t-132 -109.5l-117 -70q-63 -39 -90.5 -62.5t-27.5 -54.5q0 -37 40.5 -61.5t131.5 -57.5l110 -39q141 -49 216 -111.5t75 -174.5 q0 -68 -27.5 -124t-77 -96t-118 -62.5t-150.5 -22.5q-94 0 -192.5 28.5t-184.5 75.5l39 88l76 -20q78 -23 139.5 -33t114.5 -10q115 0 174 47t59 119q0 66 -50 99.5t-148 67.5l-133 48q-117 41 -178.5 90t-61.5 129q0 70 49 119t140 110l92 64q72 49 101.5 85.5t29.5 86.5 q0 78 -64.5 119.5t-171.5 41.5q-82 0 -149.5 -22.5t-110.5 -73.5q-41 -47 -61.5 -111.5t-20.5 -168.5v-963h-153v881h-193z" />
<glyph unicode="&#xe0;" horiz-adv-x="1095" d="M74 311q0 121 76 187q41 37 104 56t156 19h6q35 0 80 -2t93 -6t94 -8t83 -8v94q0 63 -13.5 104t-41.5 70q-31 31 -79 45.5t-110 14.5q-57 0 -122.5 -13.5t-137.5 -38.5l-88 -30l-45 86q104 66 204.5 100.5t198.5 34.5q90 0 167 -27.5t130 -85.5q41 -45 66 -109.5 t25 -156.5v-508l153 -29v-73q-29 -12 -67.5 -21.5t-73.5 -9.5q-53 0 -94 25.5t-58 70.5q-90 -49 -171 -78.5t-167 -29.5q-74 0 -141.5 24.5t-117.5 68.5t-79.5 103.5t-29.5 130.5zM231 317q0 -86 61.5 -144t178.5 -58q70 0 143.5 21.5t126.5 49.5q14 8 19.5 15.5t5.5 23.5 v205q0 20 -25 21h-370q-78 0 -109 -33q-16 -16 -23.5 -40t-7.5 -61zM304 1341l73 111q12 16 33 4l383 -285l-51 -69z" />
<glyph unicode="&#xe1;" horiz-adv-x="1095" d="M74 311q0 121 76 187q41 37 104 56t156 19h6q35 0 80 -2t93 -6t94 -8t83 -8v94q0 63 -13.5 104t-41.5 70q-31 31 -79 45.5t-110 14.5q-57 0 -122.5 -13.5t-137.5 -38.5l-88 -30l-45 86q104 66 204.5 100.5t198.5 34.5q90 0 167 -27.5t130 -85.5q41 -45 66 -109.5 t25 -156.5v-508l153 -29v-73q-29 -12 -67.5 -21.5t-73.5 -9.5q-53 0 -94 25.5t-58 70.5q-90 -49 -171 -78.5t-167 -29.5q-74 0 -141.5 24.5t-117.5 68.5t-79.5 103.5t-29.5 130.5zM231 317q0 -86 61.5 -144t178.5 -58q70 0 143.5 21.5t126.5 49.5q14 8 19.5 15.5t5.5 23.5 v205q0 20 -25 21h-370q-78 0 -109 -33q-16 -16 -23.5 -40t-7.5 -61zM304 1171l385 285q18 14 30 -4l74 -111l-438 -239z" />
<glyph unicode="&#xe2;" horiz-adv-x="1095" d="M74 311q0 121 76 187q41 37 104 56t156 19h6q35 0 80 -2t93 -6t94 -8t83 -8v94q0 63 -13.5 104t-41.5 70q-31 31 -79 45.5t-110 14.5q-57 0 -122.5 -13.5t-137.5 -38.5l-88 -30l-45 86q104 66 204.5 100.5t198.5 34.5q90 0 167 -27.5t130 -85.5q41 -45 66 -109.5 t25 -156.5v-508l153 -29v-73q-29 -12 -67.5 -21.5t-73.5 -9.5q-53 0 -94 25.5t-58 70.5q-90 -49 -171 -78.5t-167 -29.5q-74 0 -141.5 24.5t-117.5 68.5t-79.5 103.5t-29.5 130.5zM222 1169l256 263q14 14 21 17t28 3h41q20 0 27.5 -3t21.5 -17l258 -263l-61 -59l-263 211 h-4l-264 -211zM231 317q0 -86 61.5 -144t178.5 -58q70 0 143.5 21.5t126.5 49.5q14 8 19.5 15.5t5.5 23.5v205q0 20 -25 21h-370q-78 0 -109 -33q-16 -16 -23.5 -40t-7.5 -61z" />
<glyph unicode="&#xe3;" horiz-adv-x="1095" d="M74 311q0 121 76 187q41 37 104 56t156 19h6q35 0 80 -2t93 -6t94 -8t83 -8v94q0 63 -13.5 104t-41.5 70q-31 31 -79 45.5t-110 14.5q-57 0 -122.5 -13.5t-137.5 -38.5l-88 -30l-45 86q104 66 204.5 100.5t198.5 34.5q90 0 167 -27.5t130 -85.5q41 -45 66 -109.5 t25 -156.5v-508l153 -29v-73q-29 -12 -67.5 -21.5t-73.5 -9.5q-53 0 -94 25.5t-58 70.5q-90 -49 -171 -78.5t-167 -29.5q-74 0 -141.5 24.5t-117.5 68.5t-79.5 103.5t-29.5 130.5zM196 1184q23 86 75 139t126 53q37 0 73 -14t69.5 -30.5t66.5 -31t62 -14.5q35 0 62.5 20.5 t55.5 71.5l82 -24q-23 -86 -73.5 -139.5t-126.5 -53.5q-37 0 -73 14.5t-70 31t-65.5 30.5t-60.5 14q-35 0 -63.5 -20.5t-57.5 -71.5zM231 317q0 -86 61.5 -144t178.5 -58q70 0 143.5 21.5t126.5 49.5q14 8 19.5 15.5t5.5 23.5v205q0 20 -25 21h-370q-78 0 -109 -33 q-16 -16 -23.5 -40t-7.5 -61z" />
<glyph unicode="&#xe4;" horiz-adv-x="1095" d="M74 311q0 121 76 187q41 37 104 56t156 19h6q35 0 80 -2t93 -6t94 -8t83 -8v94q0 63 -13.5 104t-41.5 70q-31 31 -79 45.5t-110 14.5q-57 0 -122.5 -13.5t-137.5 -38.5l-88 -30l-45 86q104 66 204.5 100.5t198.5 34.5q90 0 167 -27.5t130 -85.5q41 -45 66 -109.5 t25 -156.5v-508l153 -29v-73q-29 -12 -67.5 -21.5t-73.5 -9.5q-53 0 -94 25.5t-58 70.5q-90 -49 -171 -78.5t-167 -29.5q-74 0 -141.5 24.5t-117.5 68.5t-79.5 103.5t-29.5 130.5zM231 317q0 -86 61.5 -144t178.5 -58q70 0 143.5 21.5t126.5 49.5q14 8 19.5 15.5t5.5 23.5 v205q0 20 -25 21h-370q-78 0 -109 -33q-16 -16 -23.5 -40t-7.5 -61zM256 1167v183h147q20 0 27.5 -5.5t7.5 -23.5v-154h-182zM627 1167v183h147q20 0 27.5 -5.5t7.5 -23.5v-154h-182z" />
<glyph unicode="&#xe5;" horiz-adv-x="1095" d="M74 311q0 121 76 187q41 37 104 56t156 19h6q35 0 80 -2t93 -6t94 -8t83 -8v94q0 63 -13.5 104t-41.5 70q-31 31 -79 45.5t-110 14.5q-57 0 -122.5 -13.5t-137.5 -38.5l-88 -30l-45 86q104 66 204.5 100.5t198.5 34.5q90 0 167 -27.5t130 -85.5q41 -45 66 -109.5 t25 -156.5v-508l153 -29v-73q-29 -12 -67.5 -21.5t-73.5 -9.5q-53 0 -94 25.5t-58 70.5q-90 -49 -171 -78.5t-167 -29.5q-74 0 -141.5 24.5t-117.5 68.5t-79.5 103.5t-29.5 130.5zM231 317q0 -86 61.5 -144t178.5 -58q70 0 143.5 21.5t126.5 49.5q14 8 19.5 15.5t5.5 23.5 v205q0 20 -25 21h-370q-78 0 -109 -33q-16 -16 -23.5 -40t-7.5 -61zM307 1337q0 49 18.5 90t49 69t71.5 43t86 15t86 -15t72 -43t49.5 -69t18.5 -90t-18.5 -90t-49.5 -68.5t-72 -43t-86 -15.5t-86 15.5t-71.5 43t-49 68.5t-18.5 90zM416 1337q0 -55 30.5 -84.5t85.5 -29.5 t86 29.5t31 84.5t-30.5 85t-86.5 30q-55 0 -85.5 -29.5t-30.5 -85.5z" />
<glyph unicode="&#xe6;" horiz-adv-x="1783" d="M78 315q0 121 76 187q41 37 104.5 56.5t155.5 19.5h6q35 0 79 -2.5t91 -5.5t93 -7t83 -8v88q0 63 -13.5 104t-41.5 70q-31 31 -79 45.5t-110 14.5q-57 0 -122.5 -13.5t-137.5 -38.5l-88 -30l-45 86q104 66 204.5 100.5t198.5 34.5q90 0 167 -27.5t130 -85.5 q12 -14 23.5 -29.5t21.5 -33.5q66 84 159 130t204 46q102 0 187 -37t145.5 -101.5t94.5 -149.5t34 -183q0 -49 -9.5 -65.5t-29.5 -16.5h-733q8 -152 92 -247t246 -95q66 0 124 14.5t134 46.5l104 45l55 -77q-90 -74 -204.5 -120t-227.5 -46q-117 0 -210 44t-156 122l-56 -37 q-86 -57 -181 -93t-195 -36q-82 0 -151 25.5t-118 69.5t-76.5 104.5t-27.5 131.5zM236 322q0 -86 60 -146.5t183 -60.5q90 0 181 39t161 88q-23 47 -37 101t-18 112h-391q-78 0 -109 -33q-16 -16 -23 -40t-7 -60zM928 582h618q-10 133 -89 215t-220 82q-129 0 -212 -75 t-97 -222z" />
<glyph unicode="&#xe7;" horiz-adv-x="1050" d="M80 504q0 111 38 205t103.5 161.5t154.5 106.5t191 39q74 0 138.5 -21.5t116.5 -59.5t90 -90t61 -112l-99 -51l-61 61q-72 72 -129 104t-131 32q-143 0 -228 -101.5t-85 -269.5q0 -92 25.5 -168t76.5 -129q41 -41 97.5 -64.5t133.5 -23.5q63 0 130 19.5t131 50.5l108 53 l55 -78q-86 -78 -197.5 -130t-232.5 -54q-16 -29 -16 -50q0 -14 17.5 -25t43 -20.5t56 -20.5t56.5 -28.5t43 -43t17 -62.5q0 -80 -86 -132.5t-260 -56.5l-18 90l131 27q90 18 90 57q0 20 -34 35t-74.5 30t-74.5 37.5t-34 63.5q0 25 13.5 51.5t35.5 53.5q-66 10 -120 35.5 t-99 64.5q-82 72 -128 178.5t-46 235.5z" />
<glyph unicode="&#xe8;" horiz-adv-x="1099" d="M80 500q0 115 37 210t100.5 162.5t149.5 105.5t186 38q102 0 187 -37t145.5 -101.5t94.5 -149.5t34 -183q0 -49 -9.5 -65.5t-29.5 -16.5h-735q8 -152 93 -247t247 -95q66 0 124 14.5t134 46.5l104 45l55 -77q-90 -74 -204.5 -120t-227.5 -46q-111 0 -200 39.5t-152 109.5 t-98 164t-35 203zM242 582h620q-10 133 -88 215t-219 82q-129 0 -214 -77t-99 -220zM322 1341l73 111q12 16 33 4l383 -285l-51 -69z" />
<glyph unicode="&#xe9;" horiz-adv-x="1099" d="M80 500q0 115 37 210t100.5 162.5t149.5 105.5t186 38q102 0 187 -37t145.5 -101.5t94.5 -149.5t34 -183q0 -49 -9.5 -65.5t-29.5 -16.5h-735q8 -152 93 -247t247 -95q66 0 124 14.5t134 46.5l104 45l55 -77q-90 -74 -204.5 -120t-227.5 -46q-111 0 -200 39.5t-152 109.5 t-98 164t-35 203zM242 582h620q-10 133 -88 215t-219 82q-129 0 -214 -77t-99 -220zM322 1171l385 285q18 14 30 -4l74 -111l-438 -239z" />
<glyph unicode="&#xea;" horiz-adv-x="1099" d="M80 500q0 115 37 210t100.5 162.5t149.5 105.5t186 38q102 0 187 -37t145.5 -101.5t94.5 -149.5t34 -183q0 -49 -9.5 -65.5t-29.5 -16.5h-735q8 -152 93 -247t247 -95q66 0 124 14.5t134 46.5l104 45l55 -77q-90 -74 -204.5 -120t-227.5 -46q-111 0 -200 39.5t-152 109.5 t-98 164t-35 203zM236 1169l256 263q14 14 21 17t28 3h41q20 0 27.5 -3t21.5 -17l258 -263l-61 -59l-263 211h-4l-264 -211zM242 582h620q-10 133 -88 215t-219 82q-129 0 -214 -77t-99 -220z" />
<glyph unicode="&#xeb;" horiz-adv-x="1099" d="M80 500q0 115 37 210t100.5 162.5t149.5 105.5t186 38q102 0 187 -37t145.5 -101.5t94.5 -149.5t34 -183q0 -49 -9.5 -65.5t-29.5 -16.5h-735q8 -152 93 -247t247 -95q66 0 124 14.5t134 46.5l104 45l55 -77q-90 -74 -204.5 -120t-227.5 -46q-111 0 -200 39.5t-152 109.5 t-98 164t-35 203zM242 582h620q-10 133 -88 215t-219 82q-129 0 -214 -77t-99 -220zM283 1167v183h147q20 0 27.5 -5.5t7.5 -23.5v-154h-182zM654 1167v183h147q20 0 27.5 -5.5t7.5 -23.5v-154h-182z" />
<glyph unicode="&#xec;" horiz-adv-x="454" d="M-28 1341l73 111q12 16 33 4l383 -285l-51 -69zM150 0v999h155v-999h-155z" />
<glyph unicode="&#xed;" horiz-adv-x="454" d="M-6 1171l385 285q18 14 30 -4l74 -111l-438 -239zM150 0v999h155v-999h-155z" />
<glyph unicode="&#xee;" horiz-adv-x="454" d="M-98 1169l256 263q14 14 21 17t28 3h41q20 0 27.5 -3t21.5 -17l258 -263l-61 -59l-263 211h-4l-264 -211zM150 0v999h155v-999h-155z" />
<glyph unicode="&#xef;" horiz-adv-x="454" d="M-47 1167v183h147q20 0 27.5 -5.5t7.5 -23.5v-154h-182zM150 0v999h155v-999h-155zM324 1167v183h147q20 0 27.5 -5.5t7.5 -23.5v-154h-182z" />
<glyph unicode="&#xf0;" horiz-adv-x="1134" d="M80 483q0 109 38 196t101.5 147.5t147.5 92t174 31.5q139 0 299 -82q-29 96 -89.5 181.5t-134.5 146.5l-264 -119l-47 92l217 101q-53 37 -109.5 71.5t-125.5 69.5l47 80q88 -35 167 -76t144 -90l262 117l47 -92l-215 -99q147 -131 224 -302t77 -374v-6 q0 -127 -34.5 -234.5t-99 -185t-154.5 -121.5t-203 -44h-6q-102 0 -187.5 37.5t-147 105.5t-95 159t-33.5 197zM233 485q0 -164 80 -265t238 -101q88 0 151.5 34.5t104.5 94t60.5 138.5t19.5 169q0 45 -3 87t-7 71q-4 16 -10.5 24t-24.5 19q-51 27 -122 45t-147 18 q-162 0 -251 -84t-89 -250z" />
<glyph unicode="&#xf1;" horiz-adv-x="1134" d="M145 0v999h111l29 -86l63 31q72 35 137.5 53.5t137.5 18.5q92 0 165.5 -27.5t124.5 -81.5q43 -47 68 -111.5t25 -160.5v-635h-154v627q0 131 -55 186q-31 31 -80 44t-121 13q-63 0 -134 -15t-124 -36l-16 -6q-16 -6 -19.5 -12t-3.5 -21v-780h-154zM251 1184q23 86 75 139 t126 53q37 0 73 -14t69.5 -30.5t66.5 -31t62 -14.5q35 0 62.5 20.5t55.5 71.5l82 -24q-23 -86 -73.5 -139.5t-126.5 -53.5q-37 0 -73 14.5t-70 31t-65.5 30.5t-60.5 14q-35 0 -63.5 -20.5t-57.5 -71.5z" />
<glyph unicode="&#xf2;" horiz-adv-x="1132" d="M80 500q0 115 37 210t102.5 162.5t153.5 105.5t190 38h6q102 0 190.5 -38t154 -105.5t102.5 -162.5t37 -210t-37 -210t-102.5 -163t-153.5 -105.5t-191 -37.5h-6q-102 0 -190 37.5t-153.5 105.5t-102.5 163t-37 210zM240 500q0 -184 85 -278.5t238 -94.5h6 q154 0 239 94.5t85 278.5t-85 278t-239 94h-6q-154 0 -238.5 -94t-84.5 -278zM320 1341l73 111q12 16 33 4l383 -285l-51 -69z" />
<glyph unicode="&#xf3;" horiz-adv-x="1132" d="M80 500q0 115 37 210t102.5 162.5t153.5 105.5t190 38h6q102 0 190.5 -38t154 -105.5t102.5 -162.5t37 -210t-37 -210t-102.5 -163t-153.5 -105.5t-191 -37.5h-6q-102 0 -190 37.5t-153.5 105.5t-102.5 163t-37 210zM240 500q0 -184 85 -278.5t238 -94.5h6 q154 0 239 94.5t85 278.5t-85 278t-239 94h-6q-154 0 -238.5 -94t-84.5 -278zM347 1171l385 285q18 14 30 -4l74 -111l-438 -239z" />
<glyph unicode="&#xf4;" horiz-adv-x="1132" d="M80 500q0 115 37 210t102.5 162.5t153.5 105.5t190 38h6q102 0 190.5 -38t154 -105.5t102.5 -162.5t37 -210t-37 -210t-102.5 -163t-153.5 -105.5t-191 -37.5h-6q-102 0 -190 37.5t-153.5 105.5t-102.5 163t-37 210zM240 500q0 -184 85 -278.5t238 -94.5h6 q154 0 239 94.5t85 278.5t-85 278t-239 94h-6q-154 0 -238.5 -94t-84.5 -278zM240 1169l256 263q14 14 21 17t28 3h41q20 0 27.5 -3t21.5 -17l258 -263l-61 -59l-263 211h-4l-264 -211z" />
<glyph unicode="&#xf5;" horiz-adv-x="1132" d="M80 500q0 115 37 210t102.5 162.5t153.5 105.5t190 38h6q102 0 190.5 -38t154 -105.5t102.5 -162.5t37 -210t-37 -210t-102.5 -163t-153.5 -105.5t-191 -37.5h-6q-102 0 -190 37.5t-153.5 105.5t-102.5 163t-37 210zM229 1184q23 86 75 139t126 53q37 0 73 -14 t69.5 -30.5t66.5 -31t62 -14.5q35 0 62.5 20.5t55.5 71.5l82 -24q-23 -86 -73.5 -139.5t-126.5 -53.5q-37 0 -73 14.5t-70 31t-65.5 30.5t-60.5 14q-35 0 -63.5 -20.5t-57.5 -71.5zM240 500q0 -184 85 -278.5t238 -94.5h6q154 0 239 94.5t85 278.5t-85 278t-239 94h-6 q-154 0 -238.5 -94t-84.5 -278z" />
<glyph unicode="&#xf6;" horiz-adv-x="1132" d="M80 500q0 115 37 210t102.5 162.5t153.5 105.5t190 38h6q102 0 190.5 -38t154 -105.5t102.5 -162.5t37 -210t-37 -210t-102.5 -163t-153.5 -105.5t-191 -37.5h-6q-102 0 -190 37.5t-153.5 105.5t-102.5 163t-37 210zM240 500q0 -184 85 -278.5t238 -94.5h6 q154 0 239 94.5t85 278.5t-85 278t-239 94h-6q-154 0 -238.5 -94t-84.5 -278zM289 1167v183h147q20 0 27.5 -5.5t7.5 -23.5v-154h-182zM660 1167v183h147q20 0 27.5 -5.5t7.5 -23.5v-154h-182z" />
<glyph unicode="&#xf7;" horiz-adv-x="1081" d="M160 440v125h762v-125h-762zM455 92v176h139q23 0 28 -5t5 -21v-150h-172zM455 737v176h139q23 0 28 -6t5 -22v-148h-172z" />
<glyph unicode="&#xf8;" horiz-adv-x="1132" d="M80 500q0 115 37 210t102.5 162.5t153.5 105.5t190 38h6q72 0 135.5 -18.5t118.5 -53.5l133 180l95 -63l-138 -189q66 -70 103 -164t37 -208q0 -115 -37 -210t-102.5 -163t-153.5 -105.5t-191 -37.5h-6q-72 0 -134 17t-118 50l-127 -174l-96 64l133 182 q-66 70 -103.5 165t-37.5 212zM240 500q0 -166 67 -258l434 589q-72 41 -172 41h-6q-154 0 -238.5 -94t-84.5 -278zM395 166q70 -39 168 -39h6q154 0 239 94.5t85 278.5q0 162 -68 254z" />
<glyph unicode="&#xf9;" horiz-adv-x="1128" d="M129 365v634h154v-626q0 -66 12 -112t41 -75q31 -31 79 -44t120 -13q61 0 131.5 15.5t124.5 35.5l16 6q16 6 19 12.5t3 20.5v780h154v-999h-111l-28 86l-64 -31q-72 -35 -137 -53t-135 -18q-186 0 -289 108q-43 47 -66.5 111.5t-23.5 161.5zM277 1341l73 111q12 16 33 4 l383 -285l-51 -69z" />
<glyph unicode="&#xfa;" horiz-adv-x="1128" d="M129 365v634h154v-626q0 -66 12 -112t41 -75q31 -31 79 -44t120 -13q61 0 131.5 15.5t124.5 35.5l16 6q16 6 19 12.5t3 20.5v780h154v-999h-111l-28 86l-64 -31q-72 -35 -137 -53t-135 -18q-186 0 -289 108q-43 47 -66.5 111.5t-23.5 161.5zM379 1171l385 285 q18 14 30 -4l74 -111l-438 -239z" />
<glyph unicode="&#xfb;" horiz-adv-x="1128" d="M129 365v634h154v-626q0 -66 12 -112t41 -75q31 -31 79 -44t120 -13q61 0 131.5 15.5t124.5 35.5l16 6q16 6 19 12.5t3 20.5v780h154v-999h-111l-28 86l-64 -31q-72 -35 -137 -53t-135 -18q-186 0 -289 108q-43 47 -66.5 111.5t-23.5 161.5zM236 1169l256 263 q14 14 21 17t28 3h41q20 0 27.5 -3t21.5 -17l258 -263l-61 -59l-263 211h-4l-264 -211z" />
<glyph unicode="&#xfc;" horiz-adv-x="1128" d="M129 365v634h154v-626q0 -66 12 -112t41 -75q31 -31 79 -44t120 -13q61 0 131.5 15.5t124.5 35.5l16 6q16 6 19 12.5t3 20.5v780h154v-999h-111l-28 86l-64 -31q-72 -35 -137 -53t-135 -18q-186 0 -289 108q-43 47 -66.5 111.5t-23.5 161.5zM287 1167v183h147 q20 0 27.5 -5.5t7.5 -23.5v-154h-182zM658 1167v183h147q20 0 27.5 -5.5t7.5 -23.5v-154h-182z" />
<glyph unicode="&#xfd;" horiz-adv-x="1050" d="M10 999h140q14 0 19 -4t9 -14l236 -541q37 -86 69.5 -166.5t48.5 -126.5h3q16 45 48.5 128t67.5 163l228 543q4 10 9 14t19 4h131l-626 -1472l-140 33l191 428zM349 1171l385 285q18 14 30 -4l74 -111l-438 -239z" />
<glyph unicode="&#xfe;" horiz-adv-x="1159" d="M145 -469v1921h154v-557l55 33q164 88 295 88q92 0 171 -36t135.5 -103.5t89 -163t32.5 -213.5q0 -115 -31.5 -210t-89 -163t-137.5 -105.5t-178 -37.5q-68 0 -136.5 20.5t-146.5 63.5l-59 32v-569h-154zM299 250q0 -16 4 -23.5t19 -15.5q74 -43 151 -64.5t145 -21.5 q162 0 231 101.5t69 273.5q0 106 -23 178t-60.5 115t-91 61t-114.5 18q-68 0 -151 -21.5t-156 -62.5q-14 -8 -18.5 -15t-4.5 -23v-500z" />
<glyph unicode="&#xff;" horiz-adv-x="1050" d="M10 999h140q14 0 19 -4t9 -14l236 -541q37 -86 69.5 -166.5t48.5 -126.5h3q16 45 48.5 128t67.5 163l228 543q4 10 9 14t19 4h131l-626 -1472l-140 33l191 428zM252 1167v183h147q20 0 27.5 -5.5t7.5 -23.5v-154h-182zM623 1167v183h147q20 0 27.5 -5.5t7.5 -23.5v-154 h-182z" />
<glyph unicode="&#x2c6;" horiz-adv-x="798" d="M72 1169l256 263q14 14 21 17t28 3h41q20 0 27.5 -3t21.5 -17l258 -263l-61 -59l-263 211h-4l-264 -211z" />
<glyph unicode="&#x2da;" horiz-adv-x="798" d="M174 1337q0 49 18.5 90t49 69t71.5 43t86 15t86 -15t72 -43t49.5 -69t18.5 -90t-18.5 -90t-49.5 -68.5t-72 -43t-86 -15.5t-86 15.5t-71.5 43t-49 68.5t-18.5 90zM283 1337q0 -55 30.5 -84.5t85.5 -29.5t86 29.5t31 84.5t-30.5 85t-86.5 30q-55 0 -85.5 -29.5 t-30.5 -85.5z" />
<glyph unicode="&#x2dc;" horiz-adv-x="798" d="M63 1184q23 86 75 139t126 53q37 0 73 -14t69.5 -30.5t66.5 -31t62 -14.5q35 0 62.5 20.5t55.5 71.5l82 -24q-23 -86 -73.5 -139.5t-126.5 -53.5q-37 0 -73 14.5t-70 31t-65.5 30.5t-60.5 14q-35 0 -63.5 -20.5t-57.5 -71.5z" />
<glyph unicode="&#x2000;" horiz-adv-x="918" />
<glyph unicode="&#x2001;" horiz-adv-x="1837" />
<glyph unicode="&#x2002;" horiz-adv-x="918" />
<glyph unicode="&#x2003;" horiz-adv-x="1837" />
<glyph unicode="&#x2004;" horiz-adv-x="612" />
<glyph unicode="&#x2005;" horiz-adv-x="459" />
<glyph unicode="&#x2006;" horiz-adv-x="306" />
<glyph unicode="&#x2007;" horiz-adv-x="306" />
<glyph unicode="&#x2008;" horiz-adv-x="229" />
<glyph unicode="&#x2009;" horiz-adv-x="367" />
<glyph unicode="&#x200a;" horiz-adv-x="102" />
<glyph unicode="&#x2010;" horiz-adv-x="858" d="M127 436v127h604v-127h-604z" />
<glyph unicode="&#x2011;" horiz-adv-x="858" d="M127 436v127h604v-127h-604z" />
<glyph unicode="&#x2012;" horiz-adv-x="858" d="M127 436v127h604v-127h-604z" />
<glyph unicode="&#x2013;" horiz-adv-x="1277" d="M127 436v127h1024v-127h-1024z" />
<glyph unicode="&#x2014;" horiz-adv-x="2301" d="M127 436v127h2048v-127h-2048z" />
<glyph unicode="&#x2018;" horiz-adv-x="446" d="M119 907v97q0 41 9 77.5t31.5 76.5t61.5 89t98 115l58 -37l-125 -229q-8 -16 4 -27l18 -14q18 -14 24.5 -25.5t6.5 -34.5v-118h-149q-23 0 -30 6t-7 24z" />
<glyph unicode="&#x2019;" horiz-adv-x="446" d="M70 909l125 230q8 16 -5 26l-18 15q-18 14 -24.5 25.5t-6.5 33.5v119h150q23 0 30 -6t7 -25v-96q0 -41 -9.5 -78t-32 -77t-61.5 -89t-98 -115z" />
<glyph unicode="&#x201a;" horiz-adv-x="440" d="M57 -317l125 229q8 16 -4 27l-18 14q-18 14 -24.5 25.5t-6.5 33.5v119h150q23 0 29.5 -6t6.5 -25v-96q0 -41 -9 -78t-31.5 -76.5t-61.5 -89t-98 -114.5z" />
<glyph unicode="&#x201c;" horiz-adv-x="765" d="M119 907v97q0 41 9 77.5t31.5 76.5t61.5 89t98 115l58 -37l-125 -229q-8 -16 4 -27l18 -14q18 -14 24.5 -25.5t6.5 -34.5v-118h-149q-23 0 -30 6t-7 24zM438 907v97q0 41 9.5 77.5t32 76.5t61.5 89t98 115l57 -37l-125 -229q-8 -16 4 -27l19 -14q18 -14 24.5 -25.5 t6.5 -34.5v-118h-150q-23 0 -30 6t-7 24z" />
<glyph unicode="&#x201d;" horiz-adv-x="765" d="M70 909l125 230q8 16 -5 26l-18 15q-18 14 -24.5 25.5t-6.5 33.5v119h150q23 0 30 -6t7 -25v-96q0 -41 -9.5 -78t-32 -77t-61.5 -89t-98 -115zM389 909l125 230q8 16 -4 26l-18 15q-18 14 -24.5 25.5t-6.5 33.5v119h149q23 0 30 -6t7 -25v-96q0 -41 -9 -78t-31.5 -77 t-61.5 -89t-99 -115z" />
<glyph unicode="&#x201e;" horiz-adv-x="759" d="M57 -317l125 229q8 16 -4 27l-18 14q-18 14 -24.5 25.5t-6.5 33.5v119h150q23 0 29.5 -6t6.5 -25v-96q0 -41 -9 -78t-31.5 -76.5t-61.5 -89t-98 -114.5zM377 -317l125 229q8 16 -4 27l-19 14q-18 14 -24 25.5t-6 33.5v119h149q23 0 30 -6t7 -25v-96q0 -41 -9.5 -78 t-32 -76.5t-61 -89t-98.5 -114.5z" />
<glyph unicode="&#x2020;" horiz-adv-x="1103" d="M80 709v133h47q35 0 86 -3t109 -8l180 -14l-10 156q-4 59 -7.5 123.5t-3.5 111.5v150h140v-152q0 -47 -2.5 -110.5t-6.5 -124.5l-10 -154l180 14q57 4 108.5 7.5t86.5 3.5h47v-133h-47q-35 0 -86 3t-109 7l-180 14l10 -172q4 -53 6.5 -98t2.5 -84v-340q0 -41 -2.5 -93 t-6.5 -98l-24 -317h-74l-25 317q-4 45 -6 97.5t-2 93.5v340q0 41 2 85t6 97l13 172l-180 -14q-57 -4 -108.5 -7t-86.5 -3h-47z" />
<glyph unicode="&#x2021;" horiz-adv-x="1103" d="M80 47v131h47q35 0 86 -3t109 -7l180 -12l-13 135q-4 35 -6 77t-2 76q0 35 2 77t6 77l13 135l-180 -14q-57 -4 -108.5 -7t-86.5 -3h-47v133h47q35 0 86 -3t109 -8l180 -14l-10 156q-4 59 -7.5 121.5t-3.5 109.5v154h140v-156q0 -47 -2.5 -108.5t-6.5 -122.5l-10 -154 l180 14q57 4 108.5 7.5t86.5 3.5h47v-133h-47q-35 0 -86 3t-109 7l-180 14l10 -135q4 -35 6.5 -77t2.5 -77t-2.5 -76.5t-6.5 -76.5l-10 -135l180 12q57 4 108.5 7t86.5 3h47v-131h-47q-35 0 -86 3t-109 7l-180 13l10 -154q4 -61 6.5 -122.5t2.5 -108.5v-154h-140v154 q0 45 3 107.5t8 121.5l10 156l-180 -13q-57 -4 -108.5 -7t-86.5 -3h-47z" />
<glyph unicode="&#x2022;" horiz-adv-x="702" d="M156 383v383h344q29 0 38 -9t9 -34v-340h-391z" />
<glyph unicode="&#x2026;" horiz-adv-x="1320" d="M129 0v188h145q23 0 30 -6t7 -24v-158h-182zM569 0v188h146q23 0 30 -6t7 -24v-158h-183zM1010 0v188h145q23 0 30 -6t7 -24v-158h-182z" />
<glyph unicode="&#x202f;" horiz-adv-x="367" />
<glyph unicode="&#x2030;" horiz-adv-x="2588" d="M98 1026q0 76 27 141.5t74 111.5t109.5 72.5t133.5 26.5q72 0 134.5 -26.5t109.5 -72.5t73.5 -111.5t26.5 -141.5q0 -78 -26.5 -142.5t-73.5 -110.5t-109.5 -72.5t-134.5 -26.5t-134 26.5t-109 72.5t-74 110.5t-27 142.5zM231 1026q0 -115 58.5 -170t152.5 -55t152.5 55 t58.5 170t-58 170t-153 55q-94 0 -152.5 -55t-58.5 -170zM502 0l674 1358h143l-672 -1358h-145zM1036 332q0 76 27 141.5t74 111.5t109.5 72.5t133.5 26.5q72 0 134.5 -26.5t109.5 -72.5t73.5 -111.5t26.5 -141.5q0 -78 -26.5 -142.5t-73.5 -110.5t-109.5 -72.5 t-134.5 -26.5t-134 26.5t-109 72.5t-74 110.5t-27 142.5zM1169 332q0 -115 58.5 -170.5t152.5 -55.5t152.5 55.5t58.5 170.5t-58 170t-153 55q-94 0 -152.5 -55.5t-58.5 -169.5zM1802 332q0 76 26.5 141.5t74 111.5t110 72.5t133.5 26.5q72 0 134.5 -26.5t109.5 -72.5 t73.5 -111.5t26.5 -141.5q0 -78 -26.5 -142.5t-73.5 -110.5t-109.5 -72.5t-134.5 -26.5t-134 26.5t-109.5 72.5t-74 110.5t-26.5 142.5zM1935 332q0 -115 58.5 -170.5t152.5 -55.5t152.5 55.5t58.5 170.5t-58 170t-153 55q-94 0 -152.5 -55.5t-58.5 -169.5z" />
<glyph unicode="&#x2039;" horiz-adv-x="720" d="M115 473v82l426 346l69 -67l-338 -330v-2l338 -332l-69 -66l-408 330q-10 10 -14 16.5t-4 22.5z" />
<glyph unicode="&#x203a;" horiz-adv-x="720" d="M111 172l338 330v2l-338 332l69 65l408 -330q10 -10 14 -16t4 -23v-81l-426 -347z" />
<glyph unicode="&#x2044;" horiz-adv-x="784" d="M-16 0l673 1358h144l-672 -1358h-145z" />
<glyph unicode="&#x205f;" horiz-adv-x="459" />
<glyph unicode="&#x20ac;" d="M74 496v82l149 16q-2 35 -3 77t1 70h-147v80l157 19q18 119 63.5 217t113 169.5t155.5 111.5t195 40q143 0 255.5 -78.5t170.5 -207.5l-92 -56l-105 97q-63 57 -114.5 83.5t-124.5 26.5q-133 0 -232.5 -101.5t-126.5 -297.5h434v-103h-444q-2 -16 -2 -32.5v-30.5v-41.5 t2 -36.5h444v-104h-430q23 -172 124 -276.5t261 -104.5q57 0 122 19.5t130 53.5l107 56l57 -76q-37 -43 -87 -78t-108.5 -59.5t-120 -37.5t-116.5 -13q-104 0 -193.5 37.5t-157 105t-112.5 163t-63 210.5h-162z" />
<glyph unicode="&#x2122;" horiz-adv-x="1423" d="M33 1264v94h518v-94h-203v-535h-112v535h-203zM649 729v629h72q10 0 14 -2t10 -10l240 -306l236 306q6 8 11 10t17 2h64v-629h-107v432l-180 -229h-63q-18 0 -29 12l-180 227v-442h-105z" />
<glyph unicode="&#x25fc;" horiz-adv-x="1003" d="M0 0v1004h1004v-1004h-1004z" />
</font>
</defs>
</svg>
